{
.appVersion = "895";
DisplayStrings = (
"abcdefghijklmnopqrstuvwxyz /aogonek/sacute/zdotaccent/zacute/cacute/nacute/lslash \U00F3/eogonek  ABCDEFGHIJKLMNOPQRSTUVWXYZ /Aogonek/Sacute/Zdotaccent/Zacute/Cacute/Nacute/Lslash \U00D3/Eogonek/ogonek p/aogonek e/eogonek u/uogonek A/Aogonek E/Eogonek U/Uogonek U\0121234567890 */backslash :,!#.?;//_  /emdash  /endash  -    \012Wcaeyfinding\012Woda",
"ncanacbcdefaghijklmnopqrstuvwxyz /aogonek/sacute/zdotaccent/zacute/cacute/nacute/lslash \U00F3/eogonek  ABCDEFGHIJKLMNOPQRSTUVWWXYZ /Aogonek/Sacute/Zdotaccent/Zacute Cc/Cacute Ss/Nacute/Lslash \U00D3/ogonek/Eogonek/eogonek \0121234567890 x*l/backslash p.:,li!#H.c!?,;//_p {pl}[pl](cdl) /emdash  /endash  - \U00ABneajen\U00BB /guilsinglleft neue/guilsinglright ,,/quotedblbase/quotedblleft/quotedblright/quoteleft/quoteright/quotesinglbase ,l'\"\U00A2S$C/euro/franc FE /endash ~n.\U00F7=z><u/mu l/minus \U00D70%Oo+ |a@cS3H&aceR8\U00A9cCl\U00AER/published PS\U00A7s/trademark C1235628O\U00B0l*/dagger n/servicemark"
);
classes = (
{
automatic = 1;
code = "A Aacute Aogonek B C Cacute D E Eacute Eogonek F G H I J K L Lslash M N Nacute O Oacute P Q R S Sacute T U Uogonek V W X Y Z Zacute Zdotaccent J.alt";
name = Uppercase;
}
);
date = "2016-04-19 20:06:13 +0000";
familyName = WK;
featurePrefixes = (
{
automatic = 1;
code = "languagesystem DFLT dflt;\012languagesystem latn dflt;\012";
name = Languagesystems;
}
);
features = (
{
automatic = 1;
code = "feature ccmp;\012feature case;\012feature ss01;\012feature salt;\012";
name = aalt;
},
{
automatic = 1;

glyphs = (
{
glyphname = A;
lastChange = "2016-08-14 16:26:42 +0000";
layers = (
{
anchors = (
{
name = bottom;
position = "{576, 0}";
},
{
name = ogonek;
position = "{1025, 0}";
},
{
name = top;
position = "{606, 1264}";
}
);
background = {
paths = (
{
closed = 1;
nodes = (
"996 0 LINE",
"996 1264 LINE",
"873 1264 LINE",
"873 0 LINE"
);
},
{
closed = 1;
nodes = (
"263 0 LINE",
"263 1264 LINE",
"140 1264 LINE",
"140 0 LINE"
);
},
{
closed = 1;
nodes = (
"913 604 LINE",
"913 714 LINE",
"227 714 LINE",
"227 604 LINE"
);
}
);
};
layerId = "785B6CE2-304A-4677-8076-DAC1C502AB09";
paths = (
{
closed = 1;
nodes = (
"913 411 LINE",
"913 514 LINE",
"227 514 LINE",
"227 411 LINE"
);
},
{
closed = 1;
nodes = (
"505 1264 LINE",
"40 0 LINE",
"167 0 LINE",
"567 1113 LINE",
"586 1166 LINE",
"558 1167 LINE",
"574 1114 LINE",
"981 0 LINE",
"1111 0 LINE",
"645 1264 LINE"
);
}
);
width = 1151;
},
{
anchors = (
{
name = bottom;
position = "{615, 0}";
},
{
name = ogonek;
position = "{1017, 0}";
},
{
name = top;
position = "{585, 1277}";
}
);
background = {
paths = (
{
closed = 1;
nodes = (
"913 341 LINE",
"913 544 LINE",
"227 544 LINE",
"227 341 LINE"
);
},
{
closed = 1;
nodes = (
"428 1277 LINE",
"-24 0 LINE",
"234 0 LINE",
"552 959 LINE",
"616 1184 LINE",
"528 1185 LINE",
"593 959 LINE",
"913 0 LINE",
"1192 0 LINE",
"747 1277 LINE"
);
}
);
};
layerId = "9D994BBA-EAF3-4FD1-99F5-B9EE3FFE0BB8";
paths = (
{
closed = 1;
nodes = (
"913 291 LINE",
"913 494 LINE",
"227 494 LINE",
"227 291 LINE"
);
},
{
closed = 1;
nodes = (
"424 1277 LINE",
"-28 0 LINE",
"234 0 LINE",
"552 959 LINE",
"616 1184 LINE",
"528 1185 LINE",
"593 959 LINE",
"913 0 LINE",
"1192 0 LINE",
"747 1277 LINE"
);
}
);
width = 1229;
},
{
associatedMasterId = "785B6CE2-304A-4677-8076-DAC1C502AB09";
background = {
paths = (
{
closed = 1;
nodes = (
"1056 0 LINE",
"1056 1264 LINE",
"933 1264 LINE",
"933 0 LINE"
);
},
{
closed = 1;
nodes = (
"323 0 LINE",
"323 1264 LINE",
"200 1264 LINE",
"200 0 LINE"
);
},
{
closed = 1;
nodes = (
"973 604 LINE",
"973 714 LINE",
"287 714 LINE",
"287 604 LINE"
);
}
);
};
layerId = "70F29EFF-D1E4-40AF-B08D-6F6B5F8C957D";
name = "Light Aug 3 16, 10:04";
paths = (
{
closed = 1;
nodes = (
"1136 0 LINE",
"736 1264 LINE",
"613 1264 LINE",
"1013 0 LINE"
);
},
{
closed = 1;
nodes = (
"243 0 LINE",
"653 1264 LINE",
"530 1264 LINE",
"120 0 LINE"
);
},
{
closed = 1;
nodes = (
"973 411 LINE",
"973 514 LINE",
"287 514 LINE",
"287 411 LINE"
);
}
);
width = 1256;
},
{
associatedMasterId = "9D994BBA-EAF3-4FD1-99F5-B9EE3FFE0BB8";
background = {
paths = (
{
closed = 1;
nodes = (
"913 341 LINE",
"913 544 LINE",
"227 544 LINE",
"227 341 LINE"
);
},
{
closed = 1;
nodes = (
"435 1277 LINE",
"-17 0 LINE",
"234 0 LINE",
"552 959 LINE",
"616 1184 LINE",
"528 1185 LINE",
"593 959 LINE",
"913 0 LINE",
"1185 0 LINE",
"740 1277 LINE"
);
}
);
};
layerId = "6A29CE97-F39C-4990-A2D8-BF4B69CB2F1C";
name = "Bold Aug 9 16, 21:56";
paths = (
{
closed = 1;
nodes = (
"913 291 LINE",
"913 494 LINE",
"227 494 LINE",
"227 291 LINE"
);
},
{
closed = 1;
nodes = (
"422 1277 LINE",
"-30 0 LINE",
"234 0 LINE",
"552 959 LINE",
"616 1184 LINE",
"528 1185 LINE",
"593 959 LINE",
"913 0 LINE",
"1198 0 LINE",
"753 1277 LINE"
);
}
);
width = 1229;
}
);
leftKerningGroup = A;
rightKerningGroup = A;
unicode = 0041;
},
{
color = 0;
glyphname = Aogonek;
lastChange = "2016-08-19 02:26:54 +0000";
layers = (
{
anchors = (
{
name = _ogonek;
position = "{1025, 0}";
}
);
background = {
paths = (
{
closed = 1;
nodes = (
"924 -54 OFFCURVE",
"828 -151 OFFCURVE",
"828 -255 CURVE SMOOTH",
"828 -345 OFFCURVE",
"895 -391 OFFCURVE",
"996 -391 CURVE SMOOTH",
"1064 -391 OFFCURVE",
"1116 -370 OFFCURVE",
"1139 -362 CURVE",
"1139 -267 LINE",
"1110 -282 OFFCURVE",
"1055 -293 OFFCURVE",
"1016 -293 CURVE SMOOTH",
"968 -293 OFFCURVE",
"945 -271 OFFCURVE",
"945 -223 CURVE SMOOTH",
"945 -159 OFFCURVE",
"994 -99 OFFCURVE",
"1087 0 CURVE",
"981 0 LINE"
);
}
);
};
components = (
{
name = A;
}
);
layerId = "785B6CE2-304A-4677-8076-DAC1C502AB09";
paths = (
{
closed = 1;
nodes = (
"924 -54 OFFCURVE",
"828 -151 OFFCURVE",
"828 -255 CURVE SMOOTH",
"828 -345 OFFCURVE",
"895 -391 OFFCURVE",
"996 -391 CURVE SMOOTH",
"1064 -391 OFFCURVE",
"1116 -370 OFFCURVE",
"1139 -362 CURVE",
"1139 -267 LINE",
"1110 -282 OFFCURVE",
"1055 -293 OFFCURVE",
"1016 -293 CURVE SMOOTH",
"968 -293 OFFCURVE",
"945 -271 OFFCURVE",
"945 -223 CURVE SMOOTH",
"945 -159 OFFCURVE",
"994 -99 OFFCURVE",
"1111 0 CURVE",
"981 0 LINE"
);
}
);
width = 1151;
},
{
anchors = (
{
name = _ogonek;
position = "{1016.91, 0}";
}
);
background = {
anchors = (
{
name = _ogonek;
position = "{1016.91, 0}";
}
);
components = (
{
name = A;
}
);
paths = (
{
closed = 1;
nodes = (
"889 -25 OFFCURVE",
"763 -126 OFFCURVE",
"763 -235 CURVE SMOOTH",
"763 -344 OFFCURVE",
"852 -400 OFFCURVE",
"989 -400 CURVE SMOOTH",
"1086 -400 OFFCURVE",
"1147 -369 OFFCURVE",
"1181 -347 CURVE",
"1181 -197 LINE",
"1153 -207 OFFCURVE",
"1107 -220 OFFCURVE",
"1070 -220 CURVE",
"1017 -220 OFFCURVE",
"1000 -197 OFFCURVE",
"1000 -168 CURVE SMOOTH",
"1000 -126 OFFCURVE",
"1061 -46 OFFCURVE",
"1192 0 CURVE",
"913 0 LINE"
);
},
{
closed = 1;
nodes = (
"889 -25 OFFCURVE",
"763 -126 OFFCURVE",
"763 -235 CURVE SMOOTH",
"763 -344 OFFCURVE",
"852 -400 OFFCURVE",
"989 -400 CURVE SMOOTH",
"1086 -400 OFFCURVE",
"1147 -369 OFFCURVE",
"1181 -347 CURVE",
"1181 -197 LINE",
"1153 -207 OFFCURVE",
"1107 -220 OFFCURVE",
"1070 -220 CURVE",
"1017 -220 OFFCURVE",
"1000 -208 OFFCURVE",
"1000 -168 CURVE SMOOTH",
"1000 -126 OFFCURVE",
"1061 -46 OFFCURVE",
"1130 0 CURVE",
"913 0 LINE"
);
}
);
};
components = (
{
name = A;
}
);
layerId = "9D994BBA-EAF3-4FD1-99F5-B9EE3FFE0BB8";
paths = (
{
closed = 1;
nodes = (
"889 -25 OFFCURVE",
"763 -126 OFFCURVE",
"763 -235 CURVE SMOOTH",
"763 -344 OFFCURVE",
"852 -400 OFFCURVE",
"989 -400 CURVE SMOOTH",
"1086 -400 OFFCURVE",
"1147 -369 OFFCURVE",
"1181 -347 CURVE",
"1181 -197 LINE",
"1153 -207 OFFCURVE",
"1107 -220 OFFCURVE",
"1070 -220 CURVE SMOOTH",
"1017 -220 OFFCURVE",
"1000 -208 OFFCURVE",
"1000 -168 CURVE SMOOTH",
"1000 -126 OFFCURVE",
"1061 -46 OFFCURVE",
"1192 0 CURVE",
"913 0 LINE"
);
}
);
width = 1229;
}
);
leftMetricsKey = A;
unicode = 0104;
},
{
glyphname = B;
lastChange = "2016-08-10 18:37:09 +0000";
layers = (
{
background = {
paths = (
{
closed = 1;
nodes = (
"528 610 LINE SMOOTH",
"697 610 OFFCURVE",
"941 744 OFFCURVE",
"941 948 CURVE SMOOTH",
"941 1151 OFFCURVE",
"776 1264 OFFCURVE",
"571 1264 CURVE SMOOTH",
"287 1264 LINE",
"287 1154 LINE",
"530 1154 LINE SMOOTH",
"747 1154 OFFCURVE",
"816 1061 OFFCURVE",
"816 932 CURVE SMOOTH",
"816 807 OFFCURVE",
"717 705 OFFCURVE",
"556 705 CURVE SMOOTH",
"299 705 LINE",
"299 610 LINE"
);
},
{
closed = 1;
nodes = (
"323 0 LINE",
"323 1264 LINE",
"200 1264 LINE",
"200 0 LINE"
);
},
{
closed = 1;
nodes = (
"587 0 LINE SMOOTH",
"852 0 OFFCURVE",
"1017 138 OFFCURVE",
"1017 356 CURVE SMOOTH",
"1017 612 OFFCURVE",
"771 693 OFFCURVE",
"635 693 CURVE SMOOTH",
"287 693 LINE",
"287 600 LINE",
"595 600 LINE SMOOTH",
"738 600 OFFCURVE",
"890 522 OFFCURVE",
"890 359 CURVE SMOOTH",
"890 190 OFFCURVE",
"776 110 OFFCURVE",
"584 110 CURVE SMOOTH",
"299 110 LINE",
"299 0 LINE"
);
}
);
};
layerId = "785B6CE2-304A-4677-8076-DAC1C502AB09";
paths = (
{
closed = 1;
nodes = (
"528 610 LINE SMOOTH",
"697 610 OFFCURVE",
"941 744 OFFCURVE",
"941 948 CURVE SMOOTH",
"941 1151 OFFCURVE",
"756 1264 OFFCURVE",
"551 1264 CURVE SMOOTH",
"287 1264 LINE",
"287 1154 LINE",
"510 1154 LINE SMOOTH",
"727 1154 OFFCURVE",
"816 1061 OFFCURVE",
"816 932 CURVE SMOOTH",
"816 807 OFFCURVE",
"717 705 OFFCURVE",
"556 705 CURVE SMOOTH",
"299 705 LINE",
"299 610 LINE"
);
},
{
closed = 1;
nodes = (
"323 0 LINE",
"323 1264 LINE",
"200 1264 LINE",
"200 0 LINE"
);
},
{
closed = 1;
nodes = (
"577 0 LINE SMOOTH",
"842 0 OFFCURVE",
"1017 138 OFFCURVE",
"1017 346 CURVE SMOOTH",
"1017 602 OFFCURVE",
"771 683 OFFCURVE",
"635 683 CURVE SMOOTH",
"287 683 LINE",
"287 600 LINE",
"595 600 LINE SMOOTH",
"738 600 OFFCURVE",
"890 512 OFFCURVE",
"890 349 CURVE SMOOTH",
"890 186 OFFCURVE",
"771 110 OFFCURVE",
"574 110 CURVE SMOOTH",
"299 110 LINE",
"299 0 LINE"
);
}
);
width = 1125;
},
{
background = {
paths = (
{
closed = 1;
nodes = (
"536 610 LINE SMOOTH",
"705 610 OFFCURVE",
"949 744 OFFCURVE",
"949 948 CURVE SMOOTH",
"949 1151 OFFCURVE",
"764 1264 OFFCURVE",
"559 1264 CURVE SMOOTH",
"295 1264 LINE",
"295 1154 LINE",
"518 1154 LINE SMOOTH",
"735 1154 OFFCURVE",
"824 1061 OFFCURVE",
"824 932 CURVE SMOOTH",
"824 807 OFFCURVE",
"725 705 OFFCURVE",
"564 705 CURVE SMOOTH",
"307 705 LINE",
"307 610 LINE"
);
},
{
closed = 1;
nodes = (
"331 0 LINE",
"331 1264 LINE",
"208 1264 LINE",
"208 0 LINE"
);
},
{
closed = 1;
nodes = (
"585 0 LINE SMOOTH",
"850 0 OFFCURVE",
"1025 138 OFFCURVE",
"1025 346 CURVE SMOOTH",
"1025 602 OFFCURVE",
"779 683 OFFCURVE",
"643 683 CURVE SMOOTH",
"295 683 LINE",
"295 600 LINE",
"603 600 LINE SMOOTH",
"746 600 OFFCURVE",
"898 512 OFFCURVE",
"898 349 CURVE SMOOTH",
"898 186 OFFCURVE",
"779 110 OFFCURVE",
"582 110 CURVE SMOOTH",
"307 110 LINE",
"307 0 LINE"
);
}
);
};
layerId = "9D994BBA-EAF3-4FD1-99F5-B9EE3FFE0BB8";
paths = (
{
closed = 1;
nodes = (
"516 627 LINE SMOOTH",
"736 627 OFFCURVE",
"1018 708 OFFCURVE",
"1018 959 CURVE SMOOTH",
"1018 1151 OFFCURVE",
"893 1277 OFFCURVE",
"577 1277 CURVE SMOOTH",
"275 1277 LINE",
"275 1079 LINE",
"594 1079 LINE SMOOTH",
"693 1079 OFFCURVE",
"759 1034 OFFCURVE",
"759 925 CURVE SMOOTH",
"759 805 OFFCURVE",
"699 745 OFFCURVE",
"570 745 CURVE SMOOTH",
"287 745 LINE",
"287 627 LINE"
);
},
{
closed = 1;
nodes = (
"399 0 LINE",
"399 1277 LINE",
"140 1277 LINE",
"140 0 LINE"
);
},
{
closed = 1;
nodes = (
"565 0 LINE SMOOTH",
"927 0 OFFCURVE",
"1087 143 OFFCURVE",
"1087 355 CURVE SMOOTH",
"1087 584 OFFCURVE",
"901 700 OFFCURVE",
"623 700 CURVE SMOOTH",
"275 700 LINE",
"275 555 LINE",
"570 555 LINE SMOOTH",
"751 555 OFFCURVE",
"818 482 OFFCURVE",
"818 371 CURVE SMOOTH",
"818 271 OFFCURVE",
"763 202 OFFCURVE",
"631 202 CURVE SMOOTH",
"287 202 LINE",
"287 0 LINE"
);
}
);
width = 1177;
},
{
associatedMasterId = "9D994BBA-EAF3-4FD1-99F5-B9EE3FFE0BB8";
background = {
paths = (
{
closed = 1;
nodes = (
"536 610 LINE SMOOTH",
"705 610 OFFCURVE",
"949 744 OFFCURVE",
"949 948 CURVE SMOOTH",
"949 1151 OFFCURVE",
"764 1264 OFFCURVE",
"559 1264 CURVE SMOOTH",
"295 1264 LINE",
"295 1154 LINE",
"518 1154 LINE SMOOTH",
"735 1154 OFFCURVE",
"824 1061 OFFCURVE",
"824 932 CURVE SMOOTH",
"824 807 OFFCURVE",
"725 705 OFFCURVE",
"564 705 CURVE SMOOTH",
"307 705 LINE",
"307 610 LINE"
);
},
{
closed = 1;
nodes = (
"331 0 LINE",
"331 1264 LINE",
"208 1264 LINE",
"208 0 LINE"
);
},
{
closed = 1;
nodes = (
"585 0 LINE SMOOTH",
"850 0 OFFCURVE",
"1025 138 OFFCURVE",
"1025 346 CURVE SMOOTH",
"1025 602 OFFCURVE",
"779 683 OFFCURVE",
"643 683 CURVE SMOOTH",
"295 683 LINE",
"295 600 LINE",
"603 600 LINE SMOOTH",
"746 600 OFFCURVE",
"898 512 OFFCURVE",
"898 349 CURVE SMOOTH",
"898 186 OFFCURVE",
"779 110 OFFCURVE",
"582 110 CURVE SMOOTH",
"307 110 LINE",
"307 0 LINE"
);
}
);
};
layerId = "84A80B02-186C-4BE5-A503-F5297F852E01";
name = "Bold Aug 10 16, 20:37";
paths = (
{
closed = 1;
nodes = (
"516 627 LINE SMOOTH",
"736 627 OFFCURVE",
"1018 708 OFFCURVE",
"1018 952 CURVE SMOOTH",
"1018 1138 OFFCURVE",
"893 1264 OFFCURVE",
"577 1264 CURVE SMOOTH",
"275 1264 LINE",
"275 1066 LINE",
"594 1066 LINE SMOOTH",
"693 1066 OFFCURVE",
"759 1021 OFFCURVE",
"759 918 CURVE SMOOTH",
"759 805 OFFCURVE",
"699 745 OFFCURVE",
"570 745 CURVE SMOOTH",
"287 745 LINE",
"287 627 LINE"
);
},
{
closed = 1;
nodes = (
"399 0 LINE",
"399 1264 LINE",
"140 1264 LINE",
"140 0 LINE"
);
},
{
closed = 1;
nodes = (
"565 0 LINE SMOOTH",
"927 0 OFFCURVE",
"1087 143 OFFCURVE",
"1087 355 CURVE SMOOTH",
"1087 584 OFFCURVE",
"901 700 OFFCURVE",
"623 700 CURVE SMOOTH",
"275 700 LINE",
"275 555 LINE",
"570 555 LINE SMOOTH",
"751 555 OFFCURVE",
"818 482 OFFCURVE",
"818 371 CURVE SMOOTH",
"818 271 OFFCURVE",
"763 202 OFFCURVE",
"631 202 CURVE SMOOTH",
"287 202 LINE",
"287 0 LINE"
);
}
);
width = 1177;
}
);
unicode = 0042;
},
{
glyphname = C;
lastChange = "2016-08-15 22:41:12 +0000";
layers = (
{
anchors = (
{
name = bottom;
position = "{547, 0}";
},
{
name = top;
position = "{647, 1264}";
}
);
background = {
paths = (
{
closed = 1;
nodes = (
"829 -33 OFFCURVE",
"977 29 OFFCURVE",
"1067 78 CURVE",
"1006 -32 LINE",
"1006 408 LINE",
"1151 269 LINE",
"847 269 LINE",
"1074 332 LINE",
"934 206 OFFCURVE",
"755 187 OFFCURVE",
"675 187 CURVE SMOOTH",
"481 187 OFFCURVE",
"368 358 OFFCURVE",
"368 636 CURVE SMOOTH",
"368 956 OFFCURVE",
"514 1092 OFFCURVE",
"655 1092 CURVE SMOOTH",
"802 1092 OFFCURVE",
"952 1002 OFFCURVE",
"1010 937 CURVE",
"819 982 LINE",
"1123 982 LINE",
"956 907 LINE",
"1052 1230 LINE",
"1112 1154 LINE",
"981 1239 OFFCURVE",
"886 1310 OFFCURVE",
"671 1310 CURVE SMOOTH",
"318 1310 OFFCURVE",
"86 1028 OFFCURVE",
"86 604 CURVE SMOOTH",
"86 199 OFFCURVE",
"298 -33 OFFCURVE",
"641 -33 CURVE SMOOTH"
);
},
{
closed = 1;
nodes = (
"786 -24 OFFCURVE",
"945 34 OFFCURVE",
"1019 103 CURVE",
"994 12 LINE",
"994 272 LINE",
"1062 205 LINE",
"921 205 LINE",
"1028 235 LINE",
"922 147 OFFCURVE",
"773 90 OFFCURVE",
"636 90 CURVE SMOOTH",
"391 90 OFFCURVE",
"261 272 OFFCURVE",
"261 629 CURVE SMOOTH",
"261 992 OFFCURVE",
"395 1177 OFFCURVE",
"633 1177 CURVE SMOOTH",
"762 1177 OFFCURVE",
"874 1122 OFFCURVE",
"990 1042 CURVE",
"914 1066 LINE",
"1008 1066 LINE",
"939 1013 LINE",
"1000 1211 LINE",
"1030 1150 LINE",
"952 1225 OFFCURVE",
"799 1288 OFFCURVE",
"646 1288 CURVE SMOOTH",
"344 1288 OFFCURVE",
"130 1044 OFFCURVE",
"130 608 CURVE SMOOTH",
"130 188 OFFCURVE",
"328 -24 OFFCURVE",
"629 -24 CURVE SMOOTH"
);
}
);
};
layerId = "785B6CE2-304A-4677-8076-DAC1C502AB09";
paths = (
{
closed = 1;
nodes = (
"786 -24 OFFCURVE",
"945 34 OFFCURVE",
"1019 103 CURVE",
"994 12 LINE",
"994 272 LINE",
"1062 202 LINE",
"921 202 LINE",
"1028 235 LINE",
"922 147 OFFCURVE",
"773 90 OFFCURVE",
"636 90 CURVE SMOOTH",
"391 90 OFFCURVE",
"261 272 OFFCURVE",
"261 629 CURVE SMOOTH",
"261 992 OFFCURVE",
"395 1177 OFFCURVE",
"633 1177 CURVE SMOOTH",
"767 1177 OFFCURVE",
"874 1116 OFFCURVE",
"990 1036 CURVE",
"914 1065 LINE",
"1008 1065 LINE",
"939 1007 LINE",
"1000 1205 LINE",
"1030 1144 LINE",
"952 1219 OFFCURVE",
"804 1288 OFFCURVE",
"646 1288 CURVE SMOOTH",
"344 1288 OFFCURVE",
"130 1044 OFFCURVE",
"130 608 CURVE SMOOTH",
"130 188 OFFCURVE",
"328 -24 OFFCURVE",
"629 -24 CURVE SMOOTH"
);
}
);
width = 1094;
},
{
anchors = (
{
name = bottom;
position = "{547, 0}";
},
{
name = top;
position = "{646, 1277}";
}
);
background = {
paths = (
{
closed = 1;
nodes = (
"829 -33 OFFCURVE",
"977 29 OFFCURVE",
"1067 78 CURVE",
"1006 -32 LINE",
"1006 408 LINE",
"1151 268 LINE",
"847 268 LINE",
"1074 332 LINE",
"934 206 OFFCURVE",
"755 181 OFFCURVE",
"675 181 CURVE SMOOTH",
"481 181 OFFCURVE",
"368 358 OFFCURVE",
"368 636 CURVE SMOOTH",
"368 956 OFFCURVE",
"514 1086 OFFCURVE",
"655 1086 CURVE SMOOTH",
"802 1086 OFFCURVE",
"952 979 OFFCURVE",
"1010 914 CURVE",
"819 962 LINE",
"1123 962 LINE",
"956 884 LINE",
"1052 1207 LINE",
"1112 1131 LINE",
"981 1216 OFFCURVE",
"886 1310 OFFCURVE",
"671 1310 CURVE SMOOTH",
"318 1310 OFFCURVE",
"86 1028 OFFCURVE",
"86 604 CURVE SMOOTH",
"86 199 OFFCURVE",
"298 -33 OFFCURVE",
"641 -33 CURVE SMOOTH"
);
}
);
};
layerId = "9D994BBA-EAF3-4FD1-99F5-B9EE3FFE0BB8";
paths = (
{
closed = 1;
nodes = (
"829 -33 OFFCURVE",
"977 29 OFFCURVE",
"1067 78 CURVE",
"1006 -32 LINE",
"1006 408 LINE",
"1151 269 LINE",
"847 269 LINE",
"1074 332 LINE",
"934 206 OFFCURVE",
"755 187 OFFCURVE",
"675 187 CURVE SMOOTH",
"481 187 OFFCURVE",
"368 358 OFFCURVE",
"368 636 CURVE SMOOTH",
"368 956 OFFCURVE",
"514 1092 OFFCURVE",
"655 1092 CURVE SMOOTH",
"802 1092 OFFCURVE",
"952 1002 OFFCURVE",
"1010 937 CURVE",
"819 982 LINE",
"1123 982 LINE",
"956 907 LINE",
"1052 1230 LINE",
"1112 1154 LINE",
"981 1239 OFFCURVE",
"886 1310 OFFCURVE",
"671 1310 CURVE SMOOTH",
"318 1310 OFFCURVE",
"86 1028 OFFCURVE",
"86 604 CURVE SMOOTH",
"86 199 OFFCURVE",
"298 -33 OFFCURVE",
"641 -33 CURVE SMOOTH"
);
}
);
width = 1093;
},
{
anchors = (
{
name = bottom;
position = "{547, 0}";
},
{
name = top;
position = "{647, 1264}";
}
);
associatedMasterId = "785B6CE2-304A-4677-8076-DAC1C502AB09";
background = {
paths = (
{
closed = 1;
nodes = (
"829 -33 OFFCURVE",
"977 29 OFFCURVE",
"1067 78 CURVE",
"1006 -32 LINE",
"1006 408 LINE",
"1151 269 LINE",
"847 269 LINE",
"1074 332 LINE",
"934 206 OFFCURVE",
"755 187 OFFCURVE",
"675 187 CURVE SMOOTH",
"481 187 OFFCURVE",
"368 358 OFFCURVE",
"368 636 CURVE SMOOTH",
"368 956 OFFCURVE",
"514 1092 OFFCURVE",
"655 1092 CURVE SMOOTH",
"802 1092 OFFCURVE",
"952 1002 OFFCURVE",
"1010 937 CURVE",
"819 982 LINE",
"1123 982 LINE",
"956 907 LINE",
"1052 1230 LINE",
"1112 1154 LINE",
"981 1239 OFFCURVE",
"886 1310 OFFCURVE",
"671 1310 CURVE SMOOTH",
"318 1310 OFFCURVE",
"86 1028 OFFCURVE",
"86 604 CURVE SMOOTH",
"86 199 OFFCURVE",
"298 -33 OFFCURVE",
"641 -33 CURVE SMOOTH"
);
}
);
};
layerId = "8B394377-5BCA-48B7-848B-09182AF0918C";
name = "Light Aug 15 16, 16:02";
paths = (
{
closed = 1;
nodes = (
"786 -24 OFFCURVE",
"945 34 OFFCURVE",
"1019 103 CURVE",
"994 12 LINE",
"994 272 LINE",
"1062 205 LINE",
"921 205 LINE",
"1028 235 LINE",
"922 147 OFFCURVE",
"773 90 OFFCURVE",
"636 90 CURVE SMOOTH",
"391 90 OFFCURVE",
"261 272 OFFCURVE",
"261 629 CURVE SMOOTH",
"261 992 OFFCURVE",
"395 1177 OFFCURVE",
"633 1177 CURVE SMOOTH",
"762 1177 OFFCURVE",
"874 1122 OFFCURVE",
"990 1042 CURVE",
"914 1066 LINE",
"1008 1066 LINE",
"939 1013 LINE",
"1000 1211 LINE",
"1030 1150 LINE",
"952 1225 OFFCURVE",
"799 1288 OFFCURVE",
"646 1288 CURVE SMOOTH",
"344 1288 OFFCURVE",
"130 1044 OFFCURVE",
"130 608 CURVE SMOOTH",
"130 188 OFFCURVE",
"328 -24 OFFCURVE",
"629 -24 CURVE SMOOTH"
);
}
);
width = 1094;
}
);
unicode = 0043;
},
{
glyphname = D;
lastChange = "2016-08-09 18:20:45 +0000";
layers = (
{
background = {
paths = (
{
closed = 1;
nodes = (
"570 0 LINE SMOOTH",
"817 0 OFFCURVE",
"1083 153 OFFCURVE",
"1083 662 CURVE SMOOTH",
"1083 1134 OFFCURVE",
"801 1264 OFFCURVE",
"569 1264 CURVE SMOOTH",
"287 1264 LINE",
"287 1154 LINE",
"543 1154 LINE SMOOTH",
"760 1154 OFFCURVE",
"952 1056 OFFCURVE",
"952 646 CURVE SMOOTH",
"952 189 OFFCURVE",
"749 110 OFFCURVE",
"560 110 CURVE SMOOTH",
"299 110 LINE",
"299 0 LINE"
);
},
{
closed = 1;
nodes = (
"323 0 LINE",
"323 1264 LINE",
"200 1264 LINE",
"200 0 LINE"
);
}
);
};
layerId = "785B6CE2-304A-4677-8076-DAC1C502AB09";
paths = (
{
closed = 1;
nodes = (
"540 0 LINE SMOOTH",
"795 0 OFFCURVE",
"1113 153 OFFCURVE",
"1113 662 CURVE SMOOTH",
"1113 1134 OFFCURVE",
"751 1264 OFFCURVE",
"519 1264 CURVE SMOOTH",
"287 1264 LINE",
"287 1154 LINE",
"493 1154 LINE SMOOTH",
"710 1154 OFFCURVE",
"982 1056 OFFCURVE",
"982 646 CURVE SMOOTH",
"982 189 OFFCURVE",
"727 110 OFFCURVE",
"530 110 CURVE SMOOTH",
"299 110 LINE",
"299 0 LINE"
);
},
{
closed = 1;
nodes = (
"323 0 LINE",
"323 1264 LINE",
"200 1264 LINE",
"200 0 LINE"
);
}
);
width = 1243;
},
{
background = {
paths = (
{
closed = 1;
nodes = (
"528 0 LINE SMOOTH",
"863 0 OFFCURVE",
"1179 165 OFFCURVE",
"1179 646 CURVE SMOOTH",
"1179 1159 OFFCURVE",
"820 1277 OFFCURVE",
"507 1277 CURVE SMOOTH",
"275 1277 LINE",
"275 1070 LINE",
"481 1070 LINE SMOOTH",
"739 1070 OFFCURVE",
"901 972 OFFCURVE",
"901 633 CURVE SMOOTH",
"901 288 OFFCURVE",
"734 209 OFFCURVE",
"518 209 CURVE SMOOTH",
"287 209 LINE",
"287 0 LINE"
);
},
{
closed = 1;
nodes = (
"403 0 LINE",
"403 1277 LINE",
"140 1277 LINE",
"140 0 LINE"
);
}
);
};
layerId = "9D994BBA-EAF3-4FD1-99F5-B9EE3FFE0BB8";
paths = (
{
closed = 1;
nodes = (
"528 0 LINE SMOOTH",
"863 0 OFFCURVE",
"1149 165 OFFCURVE",
"1149 646 CURVE SMOOTH",
"1149 1159 OFFCURVE",
"820 1277 OFFCURVE",
"507 1277 CURVE SMOOTH",
"275 1277 LINE",
"275 1070 LINE",
"481 1070 LINE SMOOTH",
"739 1070 OFFCURVE",
"871 972 OFFCURVE",
"871 633 CURVE SMOOTH",
"871 288 OFFCURVE",
"734 209 OFFCURVE",
"518 209 CURVE SMOOTH",
"287 209 LINE",
"287 0 LINE"
);
},
{
closed = 1;
nodes = (
"403 0 LINE",
"403 1277 LINE",
"140 1277 LINE",
"140 0 LINE"
);
}
);
width = 1224;
}
);
unicode = 0044;
},
{
glyphname = E;
lastChange = "2016-08-14 16:24:27 +0000";
layers = (
{
anchors = (
{
name = bottom;
position = "{507, 0}";
},
{
name = ogonek;
position = "{821, 0}";
},
{
name = top;
position = "{507, 1264}";
},
{
name = topleft;
position = "{20, 1264}";
}
);
background = {
paths = (
{
closed = 1;
nodes = (
"323 0 LINE",
"323 1264 LINE",
"200 1264 LINE",
"200 0 LINE"
);
},
{
closed = 1;
nodes = (
"883 0 LINE",
"883 110 LINE",
"287 110 LINE",
"287 0 LINE"
);
},
{
closed = 1;
nodes = (
"803 606 LINE",
"803 712 LINE",
"287 712 LINE",
"287 606 LINE"
);
},
{
closed = 1;
nodes = (
"873 1154 LINE",
"873 1264 LINE",
"287 1264 LINE",
"287 1154 LINE"
);
}
);
};
guideLines = (
{
angle = 270;
position = "{853, 1209}";
}
);
layerId = "785B6CE2-304A-4677-8076-DAC1C502AB09";
paths = (
{
closed = 1;
nodes = (
"883 0 LINE",
"883 110 LINE",
"269 110 LINE",
"323 56 LINE",
"323 650 LINE",
"269 606 LINE",
"782 606 LINE",
"803 712 LINE",
"269 712 LINE",
"323 668 LINE",
"323 1208 LINE",
"269 1154 LINE",
"873 1154 LINE",
"873 1264 LINE",
"200 1264 LINE",
"200 0 LINE"
);
}
);
width = 1013;
},
{
anchors = (
{
name = bottom;
position = "{493, 0}";
},
{
name = ogonek;
position = "{783, 0}";
},
{
name = top;
position = "{493, 1277}";
},
{
name = topleft;
position = "{20, 1277}";
}
);
background = {
paths = (
{
closed = 1;
nodes = (
"403 0 LINE",
"403 1264 LINE",
"140 1264 LINE",
"140 0 LINE"
);
},
{
closed = 1;
nodes = (
"896 0 LINE",
"896 207 LINE",
"300 207 LINE",
"300 0 LINE"
);
},
{
closed = 1;
nodes = (
"823 552 LINE",
"823 754 LINE",
"300 754 LINE",
"300 552 LINE"
);
},
{
closed = 1;
nodes = (
"891 1057 LINE",
"891 1264 LINE",
"300 1264 LINE",
"300 1057 LINE"
);
}
);
};
layerId = "9D994BBA-EAF3-4FD1-99F5-B9EE3FFE0BB8";
paths = (
{
closed = 1;
nodes = (
"896 0 LINE",
"896 207 LINE",
"289 207 LINE",
"403 93 LINE",
"403 626 LINE",
"289 552 LINE",
"791 552 LINE",
"823 754 LINE",
"289 754 LINE",
"403 680 LINE",
"403 1184 LINE",
"289 1070 LINE",
"891 1070 LINE",
"891 1277 LINE",
"140 1277 LINE",
"140 0 LINE"
);
}
);
width = 986;
}
);
unicode = 0045;
},
{
glyphname = F;
lastChange = "2016-08-15 22:51:54 +0000";
layers = (
{
background = {
paths = (
{
closed = 1;
nodes = (
"323 0 LINE",
"323 1264 LINE",
"200 1264 LINE",
"200 0 LINE"
);
},
{
closed = 1;
nodes = (
"883 0 LINE",
"883 110 LINE",
"287 110 LINE",
"287 0 LINE"
);
},
{
closed = 1;
nodes = (
"873 1154 LINE",
"873 1264 LINE",
"287 1264 LINE",
"287 1154 LINE"
);
},
{
closed = 1;
nodes = (
"803 606 LINE",
"803 712 LINE",
"287 712 LINE",
"287 606 LINE"
);
}
);
};
layerId = "785B6CE2-304A-4677-8076-DAC1C502AB09";
paths = (
{
closed = 1;
nodes = (
"323 0 LINE",
"323 1264 LINE",
"200 1264 LINE",
"200 0 LINE"
);
},
{
closed = 1;
nodes = (
"859 1154 LINE",
"859 1264 LINE",
"287 1264 LINE",
"287 1154 LINE"
);
},
{
closed = 1;
nodes = (
"768 606 LINE",
"789 712 LINE",
"287 712 LINE",
"287 606 LINE"
);
}
);
width = 969;
},
{
background = {
paths = (
{
closed = 1;
nodes = (
"334 0 LINE",
"334 1264 LINE",
"211 1264 LINE",
"211 0 LINE"
);
},
{
closed = 1;
nodes = (
"870 1154 LINE",
"870 1264 LINE",
"298 1264 LINE",
"298 1154 LINE"
);
},
{
closed = 1;
nodes = (
"800 606 LINE",
"800 712 LINE",
"298 712 LINE",
"298 606 LINE"
);
}
);
};
layerId = "9D994BBA-EAF3-4FD1-99F5-B9EE3FFE0BB8";
paths = (
{
closed = 1;
nodes = (
"405 0 LINE",
"405 1277 LINE",
"140 1277 LINE",
"140 0 LINE"
);
},
{
closed = 1;
nodes = (
"870 1061 LINE",
"870 1277 LINE",
"298 1277 LINE",
"298 1061 LINE"
);
},
{
closed = 1;
nodes = (
"768 536 LINE",
"800 748 LINE",
"298 748 LINE",
"298 536 LINE"
);
}
);
width = 940;
}
);
unicode = 0046;
},
{
glyphname = G;
lastChange = "2016-08-10 21:56:34 +0000";
layers = (
{
background = {
paths = (
{
closed = 1;
nodes = (
"882 -24 OFFCURVE",
"1032 45 OFFCURVE",
"1109 122 CURVE",
"1084 31 LINE",
"1084 291 LINE",
"1152 224 LINE",
"1011 224 LINE",
"1118 254 LINE",
"996 166 OFFCURVE",
"868 88 OFFCURVE",
"672 88 CURVE SMOOTH",
"400 88 OFFCURVE",
"261 271 OFFCURVE",
"261 627 CURVE SMOOTH",
"261 993 OFFCURVE",
"411 1171 OFFCURVE",
"648 1171 CURVE SMOOTH",
"826 1171 OFFCURVE",
"836 1128 OFFCURVE",
"1128 1062 CURVE",
"994 1077 LINE",
"1143 1077 LINE",
"1074 1040 LINE",
"1074 1264 LINE",
"1109 1188 LINE",
"1006 1190 OFFCURVE",
"897 1288 OFFCURVE",
"670 1288 CURVE SMOOTH",
"358 1288 OFFCURVE",
"130 1045 OFFCURVE",
"130 609 CURVE SMOOTH",
"130 188 OFFCURVE",
"332 -24 OFFCURVE",
"670 -24 CURVE SMOOTH"
);
},
{
closed = 1;
nodes = (
"1084 110 LINE",
"1084 554 LINE",
"961 554 LINE",
"961 110 LINE"
);
},
{
closed = 1;
nodes = (
"1084 552 LINE",
"1084 662 LINE",
"632 662 LINE",
"632 552 LINE"
);
}
);
};
layerId = "785B6CE2-304A-4677-8076-DAC1C502AB09";
paths = (
{
closed = 1;
nodes = (
"858 -24 OFFCURVE",
"1005 35 OFFCURVE",
"1084 110 CURVE",
"1084 12 LINE",
"1084 272 LINE",
"1122 205 LINE",
"981 205 LINE",
"1088 235 LINE",
"984 150 OFFCURVE",
"851 90 OFFCURVE",
"673 90 CURVE SMOOTH",
"396 90 OFFCURVE",
"261 272 OFFCURVE",
"261 631 CURVE SMOOTH",
"261 992 OFFCURVE",
"397 1177 OFFCURVE",
"688 1177 CURVE SMOOTH",
"818 1177 OFFCURVE",
"925 1128 OFFCURVE",
"1050 1042 CURVE",
"974 1066 LINE",
"1068 1066 LINE",
"999 1013 LINE",
"1078 1211 LINE",
"1090 1150 LINE",
"1012 1224 OFFCURVE",
"865 1288 OFFCURVE",
"699 1288 CURVE SMOOTH",
"347 1288 OFFCURVE",
"130 1044 OFFCURVE",
"130 608 CURVE SMOOTH",
"130 188 OFFCURVE",
"331 -24 OFFCURVE",
"670 -24 CURVE SMOOTH"
);
},
{
closed = 1;
nodes = (
"1084 110 LINE",
"1084 554 LINE",
"961 554 LINE",
"961 110 LINE"
);
},
{
closed = 1;
nodes = (
"1084 552 LINE",
"1084 662 LINE",
"632 662 LINE",
"632 552 LINE"
);
}
);
width = 1224;
},
{
background = {
paths = (
{
closed = 1;
nodes = (
"838 -33 OFFCURVE",
"987 29 OFFCURVE",
"1077 78 CURVE",
"1016 -32 LINE",
"1016 408 LINE",
"1161 268 LINE",
"857 268 LINE",
"1084 332 LINE",
"948 210 OFFCURVE",
"777 181 OFFCURVE",
"679 181 CURVE SMOOTH",
"475 181 OFFCURVE",
"368 359 OFFCURVE",
"368 634 CURVE SMOOTH",
"368 957 OFFCURVE",
"501 1086 OFFCURVE",
"670 1086 CURVE SMOOTH",
"808 1086 OFFCURVE",
"963 979 OFFCURVE",
"1020 914 CURVE",
"829 962 LINE",
"1133 962 LINE",
"966 884 LINE",
"1062 1207 LINE",
"1122 1131 LINE",
"964 1233 OFFCURVE",
"901 1310 OFFCURVE",
"659 1310 CURVE SMOOTH",
"319 1310 OFFCURVE",
"86 1028 OFFCURVE",
"86 604 CURVE SMOOTH",
"86 199 OFFCURVE",
"287 -33 OFFCURVE",
"654 -33 CURVE SMOOTH"
);
}
);
};
layerId = "9D994BBA-EAF3-4FD1-99F5-B9EE3FFE0BB8";
paths = (
{
closed = 1;
nodes = (
"923 -33 OFFCURVE",
"1078 29 OFFCURVE",
"1167 78 CURVE",
"1106 -32 LINE",
"1106 408 LINE",
"1251 268 LINE",
"947 268 LINE",
"1174 332 LINE",
"1043 212 OFFCURVE",
"859 181 OFFCURVE",
"743 181 CURVE SMOOTH",
"475 181 OFFCURVE",
"368 347 OFFCURVE",
"368 633 CURVE SMOOTH",
"368 956 OFFCURVE",
"505 1086 OFFCURVE",
"705 1086 CURVE SMOOTH",
"867 1086 OFFCURVE",
"1034 976 OFFCURVE",
"1090 914 CURVE",
"899 962 LINE",
"1203 962 LINE",
"1036 884 LINE",
"1132 1207 LINE",
"1192 1131 LINE",
"1063 1214 OFFCURVE",
"948 1310 OFFCURVE",
"726 1310 CURVE SMOOTH",
"307 1310 OFFCURVE",
"86 1028 OFFCURVE",
"86 602 CURVE SMOOTH",
"86 198 OFFCURVE",
"285 -33 OFFCURVE",
"705 -33 CURVE SMOOTH"
);
},
{
closed = 1;
nodes = (
"1106 110 LINE",
"1106 485 LINE",
"844 485 LINE",
"844 110 LINE"
);
},
{
closed = 1;
nodes = (
"1106 483 LINE",
"1106 682 LINE",
"654 682 LINE",
"654 483 LINE"
);
}
);
width = 1229;
}
);
unicode = 0047;
},
{
glyphname = H;
lastChange = "2016-08-11 18:50:54 +0000";
layers = (
{
background = {
paths = (
{
closed = 1;
nodes = (
"1056 0 LINE",
"1056 1264 LINE",
"933 1264 LINE",
"933 0 LINE"
);
},
{
closed = 1;
nodes = (
"323 0 LINE",
"323 1264 LINE",
"200 1264 LINE",
"200 0 LINE"
);
},
{
closed = 1;
nodes = (
"973 604 LINE",
"973 714 LINE",
"287 714 LINE",
"287 604 LINE"
);
}
);
};
layerId = "785B6CE2-304A-4677-8076-DAC1C502AB09";
paths = (
{
closed = 1;
nodes = (
"1056 0 LINE",
"1056 1264 LINE",
"933 1264 LINE",
"933 0 LINE"
);
},
{
closed = 1;
nodes = (
"323 0 LINE",
"323 1264 LINE",
"200 1264 LINE",
"200 0 LINE"
);
},
{
closed = 1;
nodes = (
"973 604 LINE",
"973 714 LINE",
"287 714 LINE",
"287 604 LINE"
);
}
);
width = 1256;
},
{
associatedMasterId = "785B6CE2-304A-4677-8076-DAC1C502AB09";
background = {
paths = (
{
closed = 1;
nodes = (
"918 0 LINE",
"918 692 LINE SMOOTH",
"918 877 OFFCURVE",
"826 1008 OFFCURVE",
"635 1008 CURVE SMOOTH",
"527 1008 OFFCURVE",
"433 966 OFFCURVE",
"266 779 CURVE",
"312 693 LINE",
"438 846 OFFCURVE",
"527 904 OFFCURVE",
"622 904 CURVE SMOOTH",
"747 904 OFFCURVE",
"798 805 OFFCURVE",
"798 685 CURVE SMOOTH",
"798 0 LINE"
);
},
{
closed = 1;
nodes = (
"320 0 LINE",
"320 1377 LINE",
"200 1377 LINE",
"200 0 LINE"
);
},
{
closed = 0;
nodes = (
"1098 1287 LINE",
"975 1287 LINE"
);
},
{
closed = 1;
nodes = (
"1098 0 LINE",
"1098 1282 LINE",
"975 1282 LINE",
"975 0 LINE"
);
},
{
closed = 1;
nodes = (
"323 0 LINE",
"323 1282 LINE",
"200 1282 LINE",
"200 0 LINE"
);
},
{
closed = 1;
nodes = (
"1015 642 LINE",
"1015 752 LINE",
"287 752 LINE",
"287 642 LINE"
);
},
{
closed = 1;
nodes = (
"1036 0 LINE",
"1036 1282 LINE",
"926 1282 LINE",
"926 722 LINE",
"323 722 LINE",
"323 1282 LINE",
"213 1282 LINE",
"213 0 LINE",
"323 0 LINE",
"323 629 LINE",
"926 629 LINE",
"926 0 LINE"
);
}
);
};
layerId = "D29BCC14-7299-48CA-9C57-CDBACF52D791";
name = "Light Apr 30 16, 23:02";
paths = (
{
closed = 1;
nodes = (
"1088 0 LINE",
"1088 1282 LINE",
"965 1282 LINE",
"965 0 LINE"
);
},
{
closed = 1;
nodes = (
"323 0 LINE",
"323 1282 LINE",
"200 1282 LINE",
"200 0 LINE"
);
},
{
closed = 1;
nodes = (
"1005 614 LINE",
"1005 724 LINE",
"287 724 LINE",
"287 614 LINE"
);
}
);
width = 1288;
},
{
associatedMasterId = "785B6CE2-304A-4677-8076-DAC1C502AB09";
background = {
paths = (
{
closed = 1;
nodes = (
"883 0 LINE",
"883 692 LINE SMOOTH",
"883 877 OFFCURVE",
"791 1008 OFFCURVE",
"600 1008 CURVE SMOOTH",
"492 1008 OFFCURVE",
"398 966 OFFCURVE",
"231 779 CURVE",
"277 693 LINE",
"403 846 OFFCURVE",
"492 904 OFFCURVE",
"587 904 CURVE SMOOTH",
"712 904 OFFCURVE",
"763 805 OFFCURVE",
"763 685 CURVE SMOOTH",
"763 0 LINE"
);
},
{
closed = 1;
nodes = (
"285 0 LINE",
"285 1377 LINE",
"165 1377 LINE",
"165 0 LINE"
);
},
{
closed = 0;
nodes = (
"1063 1287 LINE",
"940 1287 LINE"
);
},
{
closed = 1;
nodes = (
"1063 0 LINE",
"1063 1282 LINE",
"940 1282 LINE",
"940 0 LINE"
);
},
{
closed = 1;
nodes = (
"288 0 LINE",
"288 1282 LINE",
"165 1282 LINE",
"165 0 LINE"
);
},
{
closed = 1;
nodes = (
"980 642 LINE",
"980 752 LINE",
"252 752 LINE",
"252 642 LINE"
);
},
{
closed = 1;
nodes = (
"1050 0 LINE",
"1050 1282 LINE",
"940 1282 LINE",
"940 722 LINE",
"337 722 LINE",
"337 1282 LINE",
"227 1282 LINE",
"227 0 LINE",
"337 0 LINE",
"337 629 LINE",
"940 629 LINE",
"940 0 LINE"
);
}
);
};
layerId = "B2A3F24C-63EB-4FCE-A3C5-385B7CB02893";
name = "Light Apr 30 16, 23:06";
paths = (
{
closed = 1;
nodes = (
"1053 0 LINE",
"1053 1282 LINE",
"930 1282 LINE",
"930 0 LINE"
);
},
{
closed = 1;
nodes = (
"323 0 LINE",
"323 1282 LINE",
"200 1282 LINE",
"200 0 LINE"
);
},
{
closed = 1;
nodes = (
"970 614 LINE",
"970 724 LINE",
"287 724 LINE",
"287 614 LINE"
);
}
);
width = 1253;
},
{
associatedMasterId = "785B6CE2-304A-4677-8076-DAC1C502AB09";
background = {
paths = (
{
closed = 1;
nodes = (
"1040 0 LINE",
"1040 1291 LINE",
"928 1291 LINE",
"928 727 LINE",
"321 727 LINE",
"321 1291 LINE",
"210 1291 LINE",
"210 0 LINE",
"321 0 LINE",
"321 634 LINE",
"928 634 LINE",
"928 0 LINE"
);
},
{
closed = 1;
nodes = (
"317 701 LINE",
"384 811 OFFCURVE",
"485 916 OFFCURVE",
"609 916 CURVE SMOOTH",
"742 916 OFFCURVE",
"793 847 OFFCURVE",
"793 677 CURVE SMOOTH",
"793 0 LINE",
"900 0 LINE",
"900 707 LINE SMOOTH",
"900 900 OFFCURVE",
"827 1007 OFFCURVE",
"638 1007 CURVE SMOOTH",
"502 1007 OFFCURVE",
"395 943 OFFCURVE",
"317 830 CURVE",
"317 1400 LINE",
"210 1387 LINE",
"210 0 LINE",
"317 0 LINE"
);
},
{
closed = 1;
nodes = (
"918 0 LINE",
"918 692 LINE SMOOTH",
"918 877 OFFCURVE",
"826 1008 OFFCURVE",
"635 1008 CURVE SMOOTH",
"527 1008 OFFCURVE",
"433 966 OFFCURVE",
"266 779 CURVE",
"312 693 LINE",
"438 846 OFFCURVE",
"527 904 OFFCURVE",
"622 904 CURVE SMOOTH",
"747 904 OFFCURVE",
"798 805 OFFCURVE",
"798 685 CURVE SMOOTH",
"798 0 LINE"
);
},
{
closed = 1;
nodes = (
"320 0 LINE",
"320 1377 LINE",
"200 1377 LINE",
"200 0 LINE"
);
}
);
};
layerId = "19CC55CF-B6C5-44FA-A651-5837FDF48BE2";
name = "Light Apr 30 16, 23:12";
paths = (
{
closed = 1;
nodes = (
"1058 0 LINE",
"1058 1282 LINE",
"935 1282 LINE",
"935 0 LINE"
);
},
{
closed = 1;
nodes = (
"323 0 LINE",
"323 1282 LINE",
"200 1282 LINE",
"200 0 LINE"
);
},
{
closed = 1;
nodes = (
"975 614 LINE",
"975 724 LINE",
"287 724 LINE",
"287 614 LINE"
);
}
);
width = 1258;
},
{
associatedMasterId = "785B6CE2-304A-4677-8076-DAC1C502AB09";
background = {
paths = (
{
closed = 1;
nodes = (
"1038 0 LINE",
"1038 1291 LINE",
"926 1291 LINE",
"926 727 LINE",
"319 727 LINE",
"319 1291 LINE",
"208 1291 LINE",
"208 0 LINE",
"319 0 LINE",
"319 634 LINE",
"926 634 LINE",
"926 0 LINE"
);
},
{
closed = 1;
nodes = (
"315 701 LINE",
"382 811 OFFCURVE",
"483 916 OFFCURVE",
"607 916 CURVE SMOOTH",
"740 916 OFFCURVE",
"791 847 OFFCURVE",
"791 677 CURVE SMOOTH",
"791 0 LINE",
"898 0 LINE",
"898 707 LINE SMOOTH",
"898 900 OFFCURVE",
"825 1007 OFFCURVE",
"636 1007 CURVE SMOOTH",
"500 1007 OFFCURVE",
"393 943 OFFCURVE",
"315 830 CURVE",
"315 1400 LINE",
"208 1387 LINE",
"208 0 LINE",
"315 0 LINE"
);
},
{
closed = 1;
nodes = (
"916 0 LINE",
"916 692 LINE SMOOTH",
"916 877 OFFCURVE",
"824 1008 OFFCURVE",
"633 1008 CURVE SMOOTH",
"525 1008 OFFCURVE",
"431 966 OFFCURVE",
"264 779 CURVE",
"310 693 LINE",
"436 846 OFFCURVE",
"525 904 OFFCURVE",
"620 904 CURVE SMOOTH",
"745 904 OFFCURVE",
"796 805 OFFCURVE",
"796 685 CURVE SMOOTH",
"796 0 LINE"
);
},
{
closed = 1;
nodes = (
"318 0 LINE",
"318 1377 LINE",
"198 1377 LINE",
"198 0 LINE"
);
},
{
closed = 1;
nodes = (
"1056 0 LINE",
"1056 1264 LINE",
"933 1264 LINE",
"933 0 LINE"
);
},
{
closed = 1;
nodes = (
"323 0 LINE",
"323 1264 LINE",
"200 1264 LINE",
"200 0 LINE"
);
},
{
closed = 1;
nodes = (
"973 604 LINE",
"973 714 LINE",
"287 714 LINE",
"287 604 LINE"
);
},
{
closed = 1;
nodes = (
"-1193 0 LINE",
"-1193 1291 LINE",
"-1305 1291 LINE",
"-1305 727 LINE",
"-1912 727 LINE",
"-1912 1291 LINE",
"-2023 1291 LINE",
"-2023 0 LINE",
"-1912 0 LINE",
"-1912 634 LINE",
"-1305 634 LINE",
"-1305 0 LINE"
);
},
{
closed = 1;
nodes = (
"-778 701 LINE",
"-711 811 OFFCURVE",
"-610 916 OFFCURVE",
"-486 916 CURVE SMOOTH",
"-353 916 OFFCURVE",
"-302 847 OFFCURVE",
"-302 677 CURVE SMOOTH",
"-302 0 LINE",
"-195 0 LINE",
"-195 707 LINE SMOOTH",
"-195 900 OFFCURVE",
"-268 1007 OFFCURVE",
"-457 1007 CURVE SMOOTH",
"-593 1007 OFFCURVE",
"-700 943 OFFCURVE",
"-778 830 CURVE",
"-778 1400 LINE",
"-885 1387 LINE",
"-885 0 LINE",
"-778 0 LINE"
);
}
);
};
layerId = "1F87503C-A633-4EDC-885A-10F88AF0F7DC";
name = "Light Apr 30 16, 23:35";
paths = (
{
closed = 1;
nodes = (
"1056 0 LINE",
"1056 1264 LINE",
"933 1264 LINE",
"933 0 LINE"
);
},
{
closed = 1;
nodes = (
"323 0 LINE",
"323 1264 LINE",
"200 1264 LINE",
"200 0 LINE"
);
},
{
closed = 1;
nodes = (
"973 604 LINE",
"973 714 LINE",
"287 714 LINE",
"287 604 LINE"
);
}
);
width = 1256;
},
{
associatedMasterId = "785B6CE2-304A-4677-8076-DAC1C502AB09";
background = {
paths = (
{
closed = 1;
nodes = (
"918 0 LINE",
"918 692 LINE SMOOTH",
"918 877 OFFCURVE",
"826 1008 OFFCURVE",
"635 1008 CURVE SMOOTH",
"527 1008 OFFCURVE",
"433 966 OFFCURVE",
"266 779 CURVE",
"312 693 LINE",
"438 846 OFFCURVE",
"527 904 OFFCURVE",
"622 904 CURVE SMOOTH",
"747 904 OFFCURVE",
"798 805 OFFCURVE",
"798 685 CURVE SMOOTH",
"798 0 LINE"
);
},
{
closed = 1;
nodes = (
"320 0 LINE",
"320 1377 LINE",
"200 1377 LINE",
"200 0 LINE"
);
},
{
closed = 0;
nodes = (
"1098 1287 LINE",
"975 1287 LINE"
);
},
{
closed = 1;
nodes = (
"1098 0 LINE",
"1098 1282 LINE",
"975 1282 LINE",
"975 0 LINE"
);
},
{
closed = 1;
nodes = (
"323 0 LINE",
"323 1282 LINE",
"200 1282 LINE",
"200 0 LINE"
);
},
{
closed = 1;
nodes = (
"1015 642 LINE",
"1015 752 LINE",
"287 752 LINE",
"287 642 LINE"
);
},
{
closed = 1;
nodes = (
"1036 0 LINE",
"1036 1282 LINE",
"926 1282 LINE",
"926 722 LINE",
"323 722 LINE",
"323 1282 LINE",
"213 1282 LINE",
"213 0 LINE",
"323 0 LINE",
"323 629 LINE",
"926 629 LINE",
"926 0 LINE"
);
}
);
};
layerId = "CB0AAB72-0549-449C-9EE4-2A190FE29C7D";
name = "Light Apr 30 16, 23:02";
paths = (
{
closed = 1;
nodes = (
"1088 0 LINE",
"1088 1282 LINE",
"965 1282 LINE",
"965 0 LINE"
);
},
{
closed = 1;
nodes = (
"323 0 LINE",
"323 1282 LINE",
"200 1282 LINE",
"200 0 LINE"
);
},
{
closed = 1;
nodes = (
"1005 614 LINE",
"1005 724 LINE",
"287 724 LINE",
"287 614 LINE"
);
}
);
width = 1288;
},
{
associatedMasterId = "785B6CE2-304A-4677-8076-DAC1C502AB09";
background = {
paths = (
{
closed = 1;
nodes = (
"883 0 LINE",
"883 692 LINE SMOOTH",
"883 877 OFFCURVE",
"791 1008 OFFCURVE",
"600 1008 CURVE SMOOTH",
"492 1008 OFFCURVE",
"398 966 OFFCURVE",
"231 779 CURVE",
"277 693 LINE",
"403 846 OFFCURVE",
"492 904 OFFCURVE",
"587 904 CURVE SMOOTH",
"712 904 OFFCURVE",
"763 805 OFFCURVE",
"763 685 CURVE SMOOTH",
"763 0 LINE"
);
},
{
closed = 1;
nodes = (
"285 0 LINE",
"285 1377 LINE",
"165 1377 LINE",
"165 0 LINE"
);
},
{
closed = 0;
nodes = (
"1063 1287 LINE",
"940 1287 LINE"
);
},
{
closed = 1;
nodes = (
"1063 0 LINE",
"1063 1282 LINE",
"940 1282 LINE",
"940 0 LINE"
);
},
{
closed = 1;
nodes = (
"288 0 LINE",
"288 1282 LINE",
"165 1282 LINE",
"165 0 LINE"
);
},
{
closed = 1;
nodes = (
"980 642 LINE",
"980 752 LINE",
"252 752 LINE",
"252 642 LINE"
);
},
{
closed = 1;
nodes = (
"1050 0 LINE",
"1050 1282 LINE",
"940 1282 LINE",
"940 722 LINE",
"337 722 LINE",
"337 1282 LINE",
"227 1282 LINE",
"227 0 LINE",
"337 0 LINE",
"337 629 LINE",
"940 629 LINE",
"940 0 LINE"
);
}
);
};
layerId = "96A50A74-1956-4B7B-BB40-E9A2D0F3EB00";
name = "Light Apr 30 16, 23:06";
paths = (
{
closed = 1;
nodes = (
"1053 0 LINE",
"1053 1282 LINE",
"930 1282 LINE",
"930 0 LINE"
);
},
{
closed = 1;
nodes = (
"323 0 LINE",
"323 1282 LINE",
"200 1282 LINE",
"200 0 LINE"
);
},
{
closed = 1;
nodes = (
"970 614 LINE",
"970 724 LINE",
"287 724 LINE",
"287 614 LINE"
);
}
);
width = 1253;
},
{
associatedMasterId = "785B6CE2-304A-4677-8076-DAC1C502AB09";
background = {
paths = (
{
closed = 1;
nodes = (
"1040 0 LINE",
"1040 1291 LINE",
"928 1291 LINE",
"928 727 LINE",
"321 727 LINE",
"321 1291 LINE",
"210 1291 LINE",
"210 0 LINE",
"321 0 LINE",
"321 634 LINE",
"928 634 LINE",
"928 0 LINE"
);
},
{
closed = 1;
nodes = (
"317 701 LINE",
"384 811 OFFCURVE",
"485 916 OFFCURVE",
"609 916 CURVE SMOOTH",
"742 916 OFFCURVE",
"793 847 OFFCURVE",
"793 677 CURVE SMOOTH",
"793 0 LINE",
"900 0 LINE",
"900 707 LINE SMOOTH",
"900 900 OFFCURVE",
"827 1007 OFFCURVE",
"638 1007 CURVE SMOOTH",
"502 1007 OFFCURVE",
"395 943 OFFCURVE",
"317 830 CURVE",
"317 1400 LINE",
"210 1387 LINE",
"210 0 LINE",
"317 0 LINE"
);
},
{
closed = 1;
nodes = (
"918 0 LINE",
"918 692 LINE SMOOTH",
"918 877 OFFCURVE",
"826 1008 OFFCURVE",
"635 1008 CURVE SMOOTH",
"527 1008 OFFCURVE",
"433 966 OFFCURVE",
"266 779 CURVE",
"312 693 LINE",
"438 846 OFFCURVE",
"527 904 OFFCURVE",
"622 904 CURVE SMOOTH",
"747 904 OFFCURVE",
"798 805 OFFCURVE",
"798 685 CURVE SMOOTH",
"798 0 LINE"
);
},
{
closed = 1;
nodes = (
"320 0 LINE",
"320 1377 LINE",
"200 1377 LINE",
"200 0 LINE"
);
}
);
};
layerId = "021D0319-F348-4BEC-83DE-6DC378E1E805";
name = "Light Apr 30 16, 23:12";
paths = (
{
closed = 1;
nodes = (
"1058 0 LINE",
"1058 1282 LINE",
"935 1282 LINE",
"935 0 LINE"
);
},
{
closed = 1;
nodes = (
"323 0 LINE",
"323 1282 LINE",
"200 1282 LINE",
"200 0 LINE"
);
},
{
closed = 1;
nodes = (
"975 614 LINE",
"975 724 LINE",
"287 724 LINE",
"287 614 LINE"
);
}
);
width = 1258;
},
{
associatedMasterId = "785B6CE2-304A-4677-8076-DAC1C502AB09";
background = {
paths = (
{
closed = 1;
nodes = (
"1038 0 LINE",
"1038 1291 LINE",
"926 1291 LINE",
"926 727 LINE",
"319 727 LINE",
"319 1291 LINE",
"208 1291 LINE",
"208 0 LINE",
"319 0 LINE",
"319 634 LINE",
"926 634 LINE",
"926 0 LINE"
);
},
{
closed = 1;
nodes = (
"315 701 LINE",
"382 811 OFFCURVE",
"483 916 OFFCURVE",
"607 916 CURVE SMOOTH",
"740 916 OFFCURVE",
"791 847 OFFCURVE",
"791 677 CURVE SMOOTH",
"791 0 LINE",
"898 0 LINE",
"898 707 LINE SMOOTH",
"898 900 OFFCURVE",
"825 1007 OFFCURVE",
"636 1007 CURVE SMOOTH",
"500 1007 OFFCURVE",
"393 943 OFFCURVE",
"315 830 CURVE",
"315 1400 LINE",
"208 1387 LINE",
"208 0 LINE",
"315 0 LINE"
);
},
{
closed = 1;
nodes = (
"916 0 LINE",
"916 692 LINE SMOOTH",
"916 877 OFFCURVE",
"824 1008 OFFCURVE",
"633 1008 CURVE SMOOTH",
"525 1008 OFFCURVE",
"431 966 OFFCURVE",
"264 779 CURVE",
"310 693 LINE",
"436 846 OFFCURVE",
"525 904 OFFCURVE",
"620 904 CURVE SMOOTH",
"745 904 OFFCURVE",
"796 805 OFFCURVE",
"796 685 CURVE SMOOTH",
"796 0 LINE"
);
},
{
closed = 1;
nodes = (
"318 0 LINE",
"318 1377 LINE",
"198 1377 LINE",
"198 0 LINE"
);
},
{
closed = 1;
nodes = (
"1056 0 LINE",
"1056 1264 LINE",
"933 1264 LINE",
"933 0 LINE"
);
},
{
closed = 1;
nodes = (
"323 0 LINE",
"323 1264 LINE",
"200 1264 LINE",
"200 0 LINE"
);
},
{
closed = 1;
nodes = (
"973 604 LINE",
"973 714 LINE",
"287 714 LINE",
"287 604 LINE"
);
},
{
closed = 1;
nodes = (
"-1193 0 LINE",
"-1193 1291 LINE",
"-1305 1291 LINE",
"-1305 727 LINE",
"-1912 727 LINE",
"-1912 1291 LINE",
"-2023 1291 LINE",
"-2023 0 LINE",
"-1912 0 LINE",
"-1912 634 LINE",
"-1305 634 LINE",
"-1305 0 LINE"
);
},
{
closed = 1;
nodes = (
"-778 701 LINE",
"-711 811 OFFCURVE",
"-610 916 OFFCURVE",
"-486 916 CURVE SMOOTH",
"-353 916 OFFCURVE",
"-302 847 OFFCURVE",
"-302 677 CURVE SMOOTH",
"-302 0 LINE",
"-195 0 LINE",
"-195 707 LINE SMOOTH",
"-195 900 OFFCURVE",
"-268 1007 OFFCURVE",
"-457 1007 CURVE SMOOTH",
"-593 1007 OFFCURVE",
"-700 943 OFFCURVE",
"-778 830 CURVE",
"-778 1400 LINE",
"-885 1387 LINE",
"-885 0 LINE",
"-778 0 LINE"
);
}
);
};
layerId = "8B032701-6543-4E6D-B326-AFAEFEF5FAE0";
name = "Light Apr 30 16, 23:35";
paths = (
{
closed = 1;
nodes = (
"1056 0 LINE",
"1056 1264 LINE",
"933 1264 LINE",
"933 0 LINE"
);
},
{
closed = 1;
nodes = (
"323 0 LINE",
"323 1264 LINE",
"200 1264 LINE",
"200 0 LINE"
);
},
{
closed = 1;
nodes = (
"973 604 LINE",
"973 714 LINE",
"287 714 LINE",
"287 604 LINE"
);
}
);
width = 1256;
},
{
associatedMasterId = "785B6CE2-304A-4677-8076-DAC1C502AB09";
background = {
paths = (
{
closed = 1;
nodes = (
"918 0 LINE",
"918 692 LINE SMOOTH",
"918 877 OFFCURVE",
"826 1008 OFFCURVE",
"635 1008 CURVE SMOOTH",
"527 1008 OFFCURVE",
"433 966 OFFCURVE",
"266 779 CURVE",
"312 693 LINE",
"438 846 OFFCURVE",
"527 904 OFFCURVE",
"622 904 CURVE SMOOTH",
"747 904 OFFCURVE",
"798 805 OFFCURVE",
"798 685 CURVE SMOOTH",
"798 0 LINE"
);
},
{
closed = 1;
nodes = (
"320 0 LINE",
"320 1377 LINE",
"200 1377 LINE",
"200 0 LINE"
);
},
{
closed = 0;
nodes = (
"1098 1287 LINE",
"975 1287 LINE"
);
},
{
closed = 1;
nodes = (
"1098 0 LINE",
"1098 1282 LINE",
"975 1282 LINE",
"975 0 LINE"
);
},
{
closed = 1;
nodes = (
"323 0 LINE",
"323 1282 LINE",
"200 1282 LINE",
"200 0 LINE"
);
},
{
closed = 1;
nodes = (
"1015 642 LINE",
"1015 752 LINE",
"287 752 LINE",
"287 642 LINE"
);
},
{
closed = 1;
nodes = (
"1036 0 LINE",
"1036 1282 LINE",
"926 1282 LINE",
"926 722 LINE",
"323 722 LINE",
"323 1282 LINE",
"213 1282 LINE",
"213 0 LINE",
"323 0 LINE",
"323 629 LINE",
"926 629 LINE",
"926 0 LINE"
);
}
);
};
layerId = "CADDA950-381E-4276-A295-10F566F9A50F";
name = "Light Apr 30 16, 23:02";
paths = (
{
closed = 1;
nodes = (
"1088 0 LINE",
"1088 1282 LINE",
"965 1282 LINE",
"965 0 LINE"
);
},
{
closed = 1;
nodes = (
"323 0 LINE",
"323 1282 LINE",
"200 1282 LINE",
"200 0 LINE"
);
},
{
closed = 1;
nodes = (
"1005 614 LINE",
"1005 724 LINE",
"287 724 LINE",
"287 614 LINE"
);
}
);
width = 1288;
},
{
associatedMasterId = "785B6CE2-304A-4677-8076-DAC1C502AB09";
background = {
paths = (
{
closed = 1;
nodes = (
"883 0 LINE",
"883 692 LINE SMOOTH",
"883 877 OFFCURVE",
"791 1008 OFFCURVE",
"600 1008 CURVE SMOOTH",
"492 1008 OFFCURVE",
"398 966 OFFCURVE",
"231 779 CURVE",
"277 693 LINE",
"403 846 OFFCURVE",
"492 904 OFFCURVE",
"587 904 CURVE SMOOTH",
"712 904 OFFCURVE",
"763 805 OFFCURVE",
"763 685 CURVE SMOOTH",
"763 0 LINE"
);
},
{
closed = 1;
nodes = (
"285 0 LINE",
"285 1377 LINE",
"165 1377 LINE",
"165 0 LINE"
);
},
{
closed = 0;
nodes = (
"1063 1287 LINE",
"940 1287 LINE"
);
},
{
closed = 1;
nodes = (
"1063 0 LINE",
"1063 1282 LINE",
"940 1282 LINE",
"940 0 LINE"
);
},
{
closed = 1;
nodes = (
"288 0 LINE",
"288 1282 LINE",
"165 1282 LINE",
"165 0 LINE"
);
},
{
closed = 1;
nodes = (
"980 642 LINE",
"980 752 LINE",
"252 752 LINE",
"252 642 LINE"
);
},
{
closed = 1;
nodes = (
"1050 0 LINE",
"1050 1282 LINE",
"940 1282 LINE",
"940 722 LINE",
"337 722 LINE",
"337 1282 LINE",
"227 1282 LINE",
"227 0 LINE",
"337 0 LINE",
"337 629 LINE",
"940 629 LINE",
"940 0 LINE"
);
}
);
};
layerId = "C1887B40-701B-41D5-A75F-781E619E774F";
name = "Light Apr 30 16, 23:06";
paths = (
{
closed = 1;
nodes = (
"1053 0 LINE",
"1053 1282 LINE",
"930 1282 LINE",
"930 0 LINE"
);
},
{
closed = 1;
nodes = (
"323 0 LINE",
"323 1282 LINE",
"200 1282 LINE",
"200 0 LINE"
);
},
{
closed = 1;
nodes = (
"970 614 LINE",
"970 724 LINE",
"287 724 LINE",
"287 614 LINE"
);
}
);
width = 1253;
},
{
associatedMasterId = "785B6CE2-304A-4677-8076-DAC1C502AB09";
background = {
paths = (
{
closed = 1;
nodes = (
"1040 0 LINE",
"1040 1291 LINE",
"928 1291 LINE",
"928 727 LINE",
"321 727 LINE",
"321 1291 LINE",
"210 1291 LINE",
"210 0 LINE",
"321 0 LINE",
"321 634 LINE",
"928 634 LINE",
"928 0 LINE"
);
},
{
closed = 1;
nodes = (
"317 701 LINE",
"384 811 OFFCURVE",
"485 916 OFFCURVE",
"609 916 CURVE SMOOTH",
"742 916 OFFCURVE",
"793 847 OFFCURVE",
"793 677 CURVE SMOOTH",
"793 0 LINE",
"900 0 LINE",
"900 707 LINE SMOOTH",
"900 900 OFFCURVE",
"827 1007 OFFCURVE",
"638 1007 CURVE SMOOTH",
"502 1007 OFFCURVE",
"395 943 OFFCURVE",
"317 830 CURVE",
"317 1400 LINE",
"210 1387 LINE",
"210 0 LINE",
"317 0 LINE"
);
},
{
closed = 1;
nodes = (
"918 0 LINE",
"918 692 LINE SMOOTH",
"918 877 OFFCURVE",
"826 1008 OFFCURVE",
"635 1008 CURVE SMOOTH",
"527 1008 OFFCURVE",
"433 966 OFFCURVE",
"266 779 CURVE",
"312 693 LINE",
"438 846 OFFCURVE",
"527 904 OFFCURVE",
"622 904 CURVE SMOOTH",
"747 904 OFFCURVE",
"798 805 OFFCURVE",
"798 685 CURVE SMOOTH",
"798 0 LINE"
);
},
{
closed = 1;
nodes = (
"320 0 LINE",
"320 1377 LINE",
"200 1377 LINE",
"200 0 LINE"
);
}
);
};
layerId = "212F0E0E-878F-4E8D-87AE-B45D0DAB8022";
name = "Light Apr 30 16, 23:12";
paths = (
{
closed = 1;
nodes = (
"1058 0 LINE",
"1058 1282 LINE",
"935 1282 LINE",
"935 0 LINE"
);
},
{
closed = 1;
nodes = (
"323 0 LINE",
"323 1282 LINE",
"200 1282 LINE",
"200 0 LINE"
);
},
{
closed = 1;
nodes = (
"975 614 LINE",
"975 724 LINE",
"287 724 LINE",
"287 614 LINE"
);
}
);
width = 1258;
},
{
associatedMasterId = "785B6CE2-304A-4677-8076-DAC1C502AB09";
background = {
paths = (
{
closed = 1;
nodes = (
"1038 0 LINE",
"1038 1291 LINE",
"926 1291 LINE",
"926 727 LINE",
"319 727 LINE",
"319 1291 LINE",
"208 1291 LINE",
"208 0 LINE",
"319 0 LINE",
"319 634 LINE",
"926 634 LINE",
"926 0 LINE"
);
},
{
closed = 1;
nodes = (
"315 701 LINE",
"382 811 OFFCURVE",
"483 916 OFFCURVE",
"607 916 CURVE SMOOTH",
"740 916 OFFCURVE",
"791 847 OFFCURVE",
"791 677 CURVE SMOOTH",
"791 0 LINE",
"898 0 LINE",
"898 707 LINE SMOOTH",
"898 900 OFFCURVE",
"825 1007 OFFCURVE",
"636 1007 CURVE SMOOTH",
"500 1007 OFFCURVE",
"393 943 OFFCURVE",
"315 830 CURVE",
"315 1400 LINE",
"208 1387 LINE",
"208 0 LINE",
"315 0 LINE"
);
},
{
closed = 1;
nodes = (
"916 0 LINE",
"916 692 LINE SMOOTH",
"916 877 OFFCURVE",
"824 1008 OFFCURVE",
"633 1008 CURVE SMOOTH",
"525 1008 OFFCURVE",
"431 966 OFFCURVE",
"264 779 CURVE",
"310 693 LINE",
"436 846 OFFCURVE",
"525 904 OFFCURVE",
"620 904 CURVE SMOOTH",
"745 904 OFFCURVE",
"796 805 OFFCURVE",
"796 685 CURVE SMOOTH",
"796 0 LINE"
);
},
{
closed = 1;
nodes = (
"318 0 LINE",
"318 1377 LINE",
"198 1377 LINE",
"198 0 LINE"
);
},
{
closed = 1;
nodes = (
"1056 0 LINE",
"1056 1264 LINE",
"933 1264 LINE",
"933 0 LINE"
);
},
{
closed = 1;
nodes = (
"323 0 LINE",
"323 1264 LINE",
"200 1264 LINE",
"200 0 LINE"
);
},
{
closed = 1;
nodes = (
"973 604 LINE",
"973 714 LINE",
"287 714 LINE",
"287 604 LINE"
);
},
{
closed = 1;
nodes = (
"-1193 0 LINE",
"-1193 1291 LINE",
"-1305 1291 LINE",
"-1305 727 LINE",
"-1912 727 LINE",
"-1912 1291 LINE",
"-2023 1291 LINE",
"-2023 0 LINE",
"-1912 0 LINE",
"-1912 634 LINE",
"-1305 634 LINE",
"-1305 0 LINE"
);
},
{
closed = 1;
nodes = (
"-778 701 LINE",
"-711 811 OFFCURVE",
"-610 916 OFFCURVE",
"-486 916 CURVE SMOOTH",
"-353 916 OFFCURVE",
"-302 847 OFFCURVE",
"-302 677 CURVE SMOOTH",
"-302 0 LINE",
"-195 0 LINE",
"-195 707 LINE SMOOTH",
"-195 900 OFFCURVE",
"-268 1007 OFFCURVE",
"-457 1007 CURVE SMOOTH",
"-593 1007 OFFCURVE",
"-700 943 OFFCURVE",
"-778 830 CURVE",
"-778 1400 LINE",
"-885 1387 LINE",
"-885 0 LINE",
"-778 0 LINE"
);
}
);
};
layerId = "F16368C3-85C7-4374-B5C6-DA6F018A2DAF";
name = "Light Apr 30 16, 23:35";
paths = (
{
closed = 1;
nodes = (
"1056 0 LINE",
"1056 1264 LINE",
"933 1264 LINE",
"933 0 LINE"
);
},
{
closed = 1;
nodes = (
"323 0 LINE",
"323 1264 LINE",
"200 1264 LINE",
"200 0 LINE"
);
},
{
closed = 1;
nodes = (
"973 604 LINE",
"973 714 LINE",
"287 714 LINE",
"287 604 LINE"
);
}
);
width = 1256;
},
{
background = {
paths = (
{
closed = 1;
nodes = (
"1056 0 LINE",
"1056 1264 LINE",
"933 1264 LINE",
"933 0 LINE"
);
},
{
closed = 1;
nodes = (
"323 0 LINE",
"323 1264 LINE",
"200 1264 LINE",
"200 0 LINE"
);
},
{
closed = 1;
nodes = (
"973 604 LINE",
"973 714 LINE",
"287 714 LINE",
"287 604 LINE"
);
},
{
closed = 1;
nodes = (
"1116 0 LINE",
"1116 1277 LINE",
"852 1277 LINE",
"852 0 LINE"
);
},
{
closed = 1;
nodes = (
"404 0 LINE",
"404 1277 LINE",
"140 1277 LINE",
"140 0 LINE"
);
},
{
closed = 1;
nodes = (
"973 540 LINE",
"973 765 LINE",
"287 765 LINE",
"287 540 LINE"
);
}
);
};
layerId = "9D994BBA-EAF3-4FD1-99F5-B9EE3FFE0BB8";
paths = (
{
closed = 1;
nodes = (
"1116 0 LINE",
"1116 1277 LINE",
"852 1277 LINE",
"852 0 LINE"
);
},
{
closed = 1;
nodes = (
"404 0 LINE",
"404 1277 LINE",
"140 1277 LINE",
"140 0 LINE"
);
},
{
closed = 1;
nodes = (
"973 540 LINE",
"973 765 LINE",
"287 765 LINE",
"287 540 LINE"
);
}
);
width = 1256;
}
);
unicode = 0048;
},
{
glyphname = I;
lastChange = "2016-08-09 20:04:58 +0000";
layers = (
{
layerId = "785B6CE2-304A-4677-8076-DAC1C502AB09";
paths = (
{
closed = 1;
nodes = (
"443 0 LINE",
"443 1264 LINE",
"320 1264 LINE",
"320 0 LINE"
);
},
{
closed = 1;
nodes = (
"603 1155 LINE",
"603 1264 LINE",
"160 1264 LINE",
"160 1155 LINE"
);
},
{
closed = 1;
nodes = (
"603 0 LINE",
"603 109 LINE",
"160 109 LINE",
"160 0 LINE"
);
}
);
width = 763;
},
{
background = {
paths = (
{
closed = 1;
nodes = (
"443 0 LINE",
"443 1264 LINE",
"320 1264 LINE",
"320 0 LINE"
);
},
{
closed = 1;
nodes = (
"603 1155 LINE",
"603 1264 LINE",
"160 1264 LINE",
"160 1155 LINE"
);
},
{
closed = 1;
nodes = (
"603 0 LINE",
"603 109 LINE",
"160 109 LINE",
"160 0 LINE"
);
}
);
};
layerId = "9D994BBA-EAF3-4FD1-99F5-B9EE3FFE0BB8";
paths = (
{
closed = 1;
nodes = (
"513 0 LINE",
"513 1264 LINE",
"249 1264 LINE",
"249 0 LINE"
);
},
{
closed = 1;
nodes = (
"656 1077 LINE",
"656 1277 LINE",
"106 1277 LINE",
"106 1077 LINE"
);
},
{
closed = 1;
nodes = (
"656 0 LINE",
"656 200 LINE",
"106 200 LINE",
"106 0 LINE"
);
}
);
width = 763;
},
{
associatedMasterId = "9D994BBA-EAF3-4FD1-99F5-B9EE3FFE0BB8";
background = {
paths = (
{
closed = 1;
nodes = (
"334 0 LINE",
"334 1264 LINE",
"211 1264 LINE",
"211 0 LINE"
);
},
{
closed = 1;
nodes = (
"494 1155 LINE",
"494 1264 LINE",
"51 1264 LINE",
"51 1155 LINE"
);
},
{
closed = 1;
nodes = (
"494 0 LINE",
"494 109 LINE",
"51 109 LINE",
"51 0 LINE"
);
}
);
};
layerId = "2772C4BC-7817-4503-86DD-295840F4FC74";
name = "Bold Aug 9 16, 22:04";
paths = (
{
closed = 1;
nodes = (
"404 0 LINE",
"404 1264 LINE",
"140 1264 LINE",
"140 0 LINE"
);
}
);
width = 544;
}
);
unicode = 0049;
},
{
glyphname = J;
lastChange = "2016-08-14 14:17:07 +0000";
layers = (
{
background = {
paths = (
{
closed = 1;
nodes = (
"30 28 LINE",
"94 -3 OFFCURVE",
"151 -24 OFFCURVE",
"226 -24 CURVE SMOOTH",
"418 -24 OFFCURVE",
"489 103 OFFCURVE",
"489 232 CURVE SMOOTH",
"489 1264 LINE",
"366 1264 LINE",
"366 257 LINE SMOOTH",
"366 161 OFFCURVE",
"333 80 OFFCURVE",
"224 80 CURVE SMOOTH",
"143 80 OFFCURVE",
"97 116 OFFCURVE",
"40 144 CURVE",
"132 124 LINE",
"51 124 LINE",
"70 140 LINE",
"70 -53 LINE"
);
}
);
};
layerId = "785B6CE2-304A-4677-8076-DAC1C502AB09";
paths = (
{
closed = 1;
nodes = (
"20 28 LINE",
"84 -3 OFFCURVE",
"151 -24 OFFCURVE",
"226 -24 CURVE SMOOTH",
"418 -24 OFFCURVE",
"489 103 OFFCURVE",
"489 232 CURVE SMOOTH",
"489 1264 LINE",
"366 1264 LINE",
"366 257 LINE SMOOTH",
"366 161 OFFCURVE",
"333 80 OFFCURVE",
"224 80 CURVE SMOOTH",
"143 80 OFFCURVE",
"87 116 OFFCURVE",
"30 144 CURVE",
"122 124 LINE",
"41 124 LINE",
"60 140 LINE",
"60 -53 LINE"
);
}
);
width = 686;
},
{
background = {
paths = (
{
closed = 1;
nodes = (
"-231 72 LINE",
"-116 -18 OFFCURVE",
"33 -33 OFFCURVE",
"154 -33 CURVE SMOOTH",
"509 -33 OFFCURVE",
"580 122 OFFCURVE",
"580 268 CURVE SMOOTH",
"580 1277 LINE",
"315 1277 LINE",
"315 402 LINE SMOOTH",
"315 262 OFFCURVE",
"297 189 OFFCURVE",
"148 189 CURVE SMOOTH",
"34 189 OFFCURVE",
"-74 224 OFFCURVE",
"-141 265 CURVE",
"-54 245 LINE",
"-135 245 LINE",
"-116 261 LINE",
"-192 -25 LINE"
);
},
{
closed = 1;
nodes = (
"498 1062 LINE",
"530 1277 LINE",
"-107 1277 LINE",
"-107 1062 LINE"
);
}
);
};
layerId = "9D994BBA-EAF3-4FD1-99F5-B9EE3FFE0BB8";
paths = (
{
closed = 1;
nodes = (
"0 19 LINE",
"64 -12 OFFCURVE",
"131 -33 OFFCURVE",
"237 -33 CURVE SMOOTH",
"488 -33 OFFCURVE",
"580 90 OFFCURVE",
"580 232 CURVE SMOOTH",
"580 1277 LINE",
"315 1277 LINE",
"315 366 LINE SMOOTH",
"315 230 OFFCURVE",
"277 189 OFFCURVE",
"204 189 CURVE SMOOTH",
"123 189 OFFCURVE",
"67 211 OFFCURVE",
"10 239 CURVE",
"102 219 LINE",
"21 219 LINE",
"40 235 LINE",
"40 -62 LINE"
);
}
);
width = 720;
},
{
associatedMasterId = "9D994BBA-EAF3-4FD1-99F5-B9EE3FFE0BB8";
background = {
paths = (
{
closed = 1;
nodes = (
"-36 19 LINE",
"28 -12 OFFCURVE",
"95 -33 OFFCURVE",
"201 -33 CURVE SMOOTH",
"453 -33 OFFCURVE",
"524 103 OFFCURVE",
"524 232 CURVE SMOOTH",
"524 1264 LINE",
"259 1264 LINE",
"259 366 LINE SMOOTH",
"259 230 OFFCURVE",
"241 189 OFFCURVE",
"168 189 CURVE SMOOTH",
"87 189 OFFCURVE",
"31 211 OFFCURVE",
"-26 239 CURVE",
"66 219 LINE",
"-15 219 LINE",
"4 235 LINE",
"4 -62 LINE"
);
}
);
};
layerId = "A9155100-A2E7-482F-9750-463914CD65C2";
name = "Bold Aug 9 16, 22:25";
paths = (
{
closed = 1;
nodes = (
"-36 19 LINE",
"28 -12 OFFCURVE",
"95 -33 OFFCURVE",
"201 -33 CURVE SMOOTH",
"453 -33 OFFCURVE",
"524 103 OFFCURVE",
"524 232 CURVE SMOOTH",
"524 1277 LINE",
"259 1277 LINE",
"259 366 LINE SMOOTH",
"259 230 OFFCURVE",
"241 189 OFFCURVE",
"168 189 CURVE SMOOTH",
"87 189 OFFCURVE",
"31 211 OFFCURVE",
"-26 239 CURVE",
"66 219 LINE",
"-15 219 LINE",
"4 235 LINE",
"4 -62 LINE"
);
}
);
width = 664;
},
{
associatedMasterId = "9D994BBA-EAF3-4FD1-99F5-B9EE3FFE0BB8";
background = {
paths = (
{
closed = 1;
nodes = (
"201 19 LINE",
"265 -12 OFFCURVE",
"332 -33 OFFCURVE",
"438 -33 CURVE SMOOTH",
"690 -33 OFFCURVE",
"761 103 OFFCURVE",
"761 232 CURVE SMOOTH",
"761 1277 LINE",
"496 1277 LINE",
"496 366 LINE SMOOTH",
"496 230 OFFCURVE",
"478 189 OFFCURVE",
"405 189 CURVE SMOOTH",
"324 189 OFFCURVE",
"268 211 OFFCURVE",
"211 239 CURVE",
"303 219 LINE",
"222 219 LINE",
"241 235 LINE",
"241 -62 LINE"
);
}
);
};
layerId = "AC135D63-E553-4E4C-ABA5-5456E33C29E2";
name = "Bold Aug 9 16, 23:14";
paths = (
{
closed = 1;
nodes = (
"-40 72 LINE",
"75 -18 OFFCURVE",
"224 -33 OFFCURVE",
"335 -33 CURVE SMOOTH",
"690 -33 OFFCURVE",
"761 122 OFFCURVE",
"761 268 CURVE SMOOTH",
"761 1277 LINE",
"496 1277 LINE",
"496 402 LINE SMOOTH",
"496 262 OFFCURVE",
"478 189 OFFCURVE",
"329 189 CURVE SMOOTH",
"225 189 OFFCURVE",
"117 224 OFFCURVE",
"50 265 CURVE",
"137 245 LINE",
"56 245 LINE",
"75 261 LINE",
"-1 -25 LINE"
);
},
{
closed = 1;
nodes = (
"679 1062 LINE",
"711 1277 LINE",
"84 1277 LINE",
"84 1062 LINE"
);
}
);
width = 901;
}
);
unicode = 004A;
},
{
glyphname = K;
lastChange = "2016-08-17 21:09:31 +0000";
layers = (
{
background = {
paths = (
{
closed = 1;
nodes = (
"1072 0 LINE",
"745 496 OFFCURVE",
"706 685 OFFCURVE",
"472 704 CURVE SMOOTH",
"459 705 OFFCURVE",
"446 705 OFFCURVE",
"432 705 CURVE SMOOTH",
"374 705 OFFCURVE",
"297 698 OFFCURVE",
"243 692 CURVE",
"209 577 LINE",
"277 592 OFFCURVE",
"360 599 OFFCURVE",
"424 599 CURVE SMOOTH",
"620 599 OFFCURVE",
"623 473 OFFCURVE",
"928 0 CURVE"
);
},
{
closed = 1;
nodes = (
"323 0 LINE",
"323 1264 LINE",
"200 1264 LINE",
"200 0 LINE"
);
},
{
closed = 1;
nodes = (
"478 608 LINE",
"533 650 OFFCURVE",
"601 728 OFFCURVE",
"637 776 CURVE SMOOTH",
"1010 1264 LINE",
"875 1264 LINE",
"385 608 LINE"
);
}
);
};
layerId = "785B6CE2-304A-4677-8076-DAC1C502AB09";
paths = (
{
closed = 1;
nodes = (
"1072 0 LINE",
"745 496 OFFCURVE",
"706 685 OFFCURVE",
"472 704 CURVE SMOOTH",
"459 705 OFFCURVE",
"446 705 OFFCURVE",
"432 705 CURVE SMOOTH",
"374 705 OFFCURVE",
"297 698 OFFCURVE",
"243 692 CURVE",
"209 573 LINE",
"277 588 OFFCURVE",
"356 595 OFFCURVE",
"420 595 CURVE SMOOTH",
"616 595 OFFCURVE",
"619 473 OFFCURVE",
"924 0 CURVE"
);
},
{
closed = 1;
nodes = (
"323 0 LINE",
"323 1264 LINE",
"200 1264 LINE",
"200 0 LINE"
);
},
{
closed = 1;
nodes = (
"478 608 LINE",
"533 650 OFFCURVE",
"601 728 OFFCURVE",
"637 776 CURVE SMOOTH",
"1010 1264 LINE",
"871 1264 LINE",
"381 608 LINE"
);
}
);
width = 1109;
},
{
background = {
paths = (
{
closed = 1;
nodes = (
"1152 0 LINE",
"807 523 OFFCURVE",
"783 705 OFFCURVE",
"512 705 CURVE SMOOTH",
"454 705 OFFCURVE",
"377 698 OFFCURVE",
"323 692 CURVE",
"289 577 LINE",
"357 592 OFFCURVE",
"440 599 OFFCURVE",
"504 599 CURVE SMOOTH",
"700 599 OFFCURVE",
"703 473 OFFCURVE",
"1008 0 CURVE"
);
},
{
closed = 1;
nodes = (
"403 0 LINE",
"403 1264 LINE",
"280 1264 LINE",
"280 0 LINE"
);
},
{
closed = 1;
nodes = (
"558 608 LINE",
"613 650 OFFCURVE",
"681 728 OFFCURVE",
"717 776 CURVE SMOOTH",
"1090 1264 LINE",
"955 1264 LINE",
"465 608 LINE"
);
}
);
};
layerId = "9D994BBA-EAF3-4FD1-99F5-B9EE3FFE0BB8";
paths = (
{
closed = 1;
nodes = (
"1170 0 LINE",
"841 509 OFFCURVE",
"817 620 OFFCURVE",
"575 708 CURVE SMOOTH",
"543 720 OFFCURVE",
"532 735 OFFCURVE",
"518 735 CURVE SMOOTH",
"443 733 OFFCURVE",
"309 727 OFFCURVE",
"263 722 CURVE",
"246 477 LINE",
"314 492 OFFCURVE",
"351 499 OFFCURVE",
"448 499 CURVE SMOOTH",
"572 499 OFFCURVE",
"624 387 OFFCURVE",
"859 0 CURVE"
);
},
{
closed = 1;
nodes = (
"403 0 LINE",
"403 1277 LINE",
"140 1277 LINE",
"140 0 LINE"
);
},
{
closed = 1;
nodes = (
"600 608 LINE",
"693 668 OFFCURVE",
"764 732 OFFCURVE",
"828 825 CURVE SMOOTH",
"1138 1277 LINE",
"853 1277 LINE",
"405 608 LINE"
);
}
);
width = 1170;
},
{
associatedMasterId = "785B6CE2-304A-4677-8076-DAC1C502AB09";
background = {
paths = (
{
closed = 1;
nodes = (
"1056 0 LINE",
"1056 1264 LINE",
"933 1264 LINE",
"933 0 LINE"
);
},
{
closed = 1;
nodes = (
"323 0 LINE",
"323 1264 LINE",
"200 1264 LINE",
"200 0 LINE"
);
},
{
closed = 1;
nodes = (
"973 604 LINE",
"973 714 LINE",
"287 714 LINE",
"287 604 LINE"
);
}
);
};
layerId = "FF83ED94-628C-4A0B-A0C4-0DE72A4175D4";
name = "Light Aug 5 16, 14:01";
paths = (
{
closed = 1;
nodes = (
"1082 0 LINE",
"737 523 OFFCURVE",
"713 705 OFFCURVE",
"442 705 CURVE SMOOTH",
"384 705 OFFCURVE",
"307 703 OFFCURVE",
"253 698 CURVE",
"219 577 LINE",
"287 592 OFFCURVE",
"370 599 OFFCURVE",
"434 599 CURVE SMOOTH",
"630 599 OFFCURVE",
"633 473 OFFCURVE",
"938 0 CURVE"
);
},
{
closed = 1;
nodes = (
"323 0 LINE",
"323 1264 LINE",
"200 1264 LINE",
"200 0 LINE"
);
},
{
closed = 1;
nodes = (
"488 608 LINE",
"543 650 OFFCURVE",
"611 728 OFFCURVE",
"647 776 CURVE SMOOTH",
"1020 1264 LINE",
"885 1264 LINE",
"395 608 LINE"
);
}
);
width = 1109;
}
);
unicode = 004B;
},
{
glyphname = L;
lastChange = "2016-08-11 07:30:41 +0000";
layers = (
{
anchors = (
{
name = bottom;
position = "{437, 0}";
},
{
name = center;
position = "{437, 632}";
},
{
name = top;
position = "{437, 1264}";
},
{
name = topright;
position = "{853, 1264}";
}
);
layerId = "785B6CE2-304A-4677-8076-DAC1C502AB09";
paths = (
{
closed = 1;
nodes = (
"323 0 LINE",
"323 1264 LINE",
"200 1264 LINE",
"200 0 LINE"
);
},
{
closed = 1;
nodes = (
"843 0 LINE",
"843 112 LINE",
"287 112 LINE",
"287 0 LINE"
);
}
);
width = 873;
},
{
anchors = (
{
name = bottom;
position = "{437, 0}";
},
{
name = center;
position = "{437, 639}";
},
{
name = top;
position = "{437, 1277}";
},
{
name = topright;
position = "{853, 1277}";
}
);
background = {
paths = (
{
closed = 1;
nodes = (
"403 0 LINE",
"403 1264 LINE",
"138 1264 LINE",
"138 0 LINE"
);
},
{
closed = 1;
nodes = (
"843 0 LINE",
"843 217 LINE",
"287 217 LINE",
"287 0 LINE"
);
}
);
};
layerId = "9D994BBA-EAF3-4FD1-99F5-B9EE3FFE0BB8";
paths = (
{
closed = 1;
nodes = (
"403 0 LINE",
"403 1277 LINE",
"138 1277 LINE",
"138 0 LINE"
);
},
{
closed = 1;
nodes = (
"828 0 LINE",
"860 217 LINE",
"287 217 LINE",
"287 0 LINE"
);
}
);
width = 873;
}
);
unicode = 004C;
},
{
color = 0;
glyphname = M;
lastChange = "2016-08-17 21:15:54 +0000";
layers = (
{
background = {
paths = (
{
closed = 1;
nodes = (
"323 0 LINE",
"323 998 LINE",
"321 1202 LINE",
"289 1197 LINE",
"374 1007 LINE",
"738 262 LINE",
"660 311 LINE",
"861 311 LINE",
"783 263 LINE",
"1148 1007 LINE",
"1233 1197 LINE",
"1201 1202 LINE",
"1199 998 LINE",
"1199 0 LINE",
"1322 0 LINE",
"1322 1318 LINE",
"1376 1264 LINE",
"1088 1264 LINE",
"1166 1313 LINE",
"789 534 LINE",
"730 382 LINE",
"795 382 LINE",
"735 535 LINE",
"360 1313 LINE",
"437 1264 LINE",
"146 1264 LINE",
"200 1318 LINE",
"200 0 LINE"
);
}
);
};
layerId = "785B6CE2-304A-4677-8076-DAC1C502AB09";
paths = (
{
closed = 1;
nodes = (
"323 0 LINE",
"323 998 LINE",
"311 1202 LINE",
"281 1197 LINE",
"366 1007 LINE",
"738 262 LINE",
"660 311 LINE",
"861 311 LINE",
"783 263 LINE",
"1156 1007 LINE",
"1241 1197 LINE",
"1211 1202 LINE",
"1199 998 LINE",
"1199 0 LINE",
"1322 0 LINE",
"1322 1318 LINE",
"1376 1264 LINE",
"1098 1264 LINE",
"1176 1313 LINE",
"789 534 LINE",
"730 382 LINE",
"795 382 LINE",
"735 535 LINE",
"350 1313 LINE",
"427 1264 LINE",
"146 1264 LINE",
"200 1318 LINE",
"200 0 LINE"
);
}
);
width = 1522;
},
{
background = {
paths = (
{
closed = 1;
nodes = (
"390 0 LINE",
"390 764 LINE",
"378 1202 LINE",
"307 1197 LINE",
"434 825 LINE",
"702 208 LINE",
"598 290 LINE",
"919 290 LINE",
"815 208 LINE",
"1089 835 LINE",
"1211 1197 LINE",
"1140 1202 LINE",
"1128 764 LINE",
"1128 0 LINE",
"1378 0 LINE",
"1378 1264 LINE",
"1040 1264 LINE",
"811 705 LINE",
"747 504 LINE",
"793 505 LINE",
"730 704 LINE",
"501 1264 LINE",
"140 1264 LINE",
"140 0 LINE"
);
}
);
};
layerId = "9D994BBA-EAF3-4FD1-99F5-B9EE3FFE0BB8";
paths = (
{
closed = 1;
nodes = (
"390 0 LINE",
"390 764 LINE",
"378 1202 LINE",
"307 1197 LINE",
"434 825 LINE",
"702 208 LINE",
"598 290 LINE",
"919 290 LINE",
"815 208 LINE",
"1089 835 LINE",
"1211 1197 LINE",
"1140 1202 LINE",
"1128 764 LINE",
"1128 0 LINE",
"1376 0 LINE",
"1376 1378 LINE",
"1490 1277 LINE",
"926 1277 LINE",
"1083 1370 LINE",
"811 705 LINE",
"747 504 LINE",
"793 505 LINE",
"730 704 LINE",
"458 1370 LINE",
"615 1277 LINE",
"28 1277 LINE",
"142 1378 LINE",
"142 0 LINE"
);
}
);
width = 1518;
},
{
associatedMasterId = "785B6CE2-304A-4677-8076-DAC1C502AB09";
background = {
paths = (
{
closed = 1;
nodes = (
"1179 0 LINE",
"1179 1264 LINE",
"1056 1264 LINE",
"1056 0 LINE"
);
},
{
closed = 1;
nodes = (
"446 0 LINE",
"446 1264 LINE",
"323 1264 LINE",
"323 0 LINE"
);
},
{
closed = 1;
nodes = (
"1096 604 LINE",
"1096 714 LINE",
"410 714 LINE",
"410 604 LINE"
);
}
);
};
layerId = "554BE530-B698-41D7-A75A-ED116F64AEEC";
name = "Light Aug 5 16, 16:15";
paths = (
{
closed = 1;
nodes = (
"755 323 LINE",
"1227 1098 LINE",
"1199 1106 LINE",
"1199 0 LINE",
"1322 0 LINE",
"1322 1264 LINE",
"1199 1264 LINE",
"751 528 LINE",
"303 1264 LINE",
"180 1264 LINE",
"180 0 LINE",
"303 0 LINE",
"303 1106 LINE",
"275 1098 LINE",
"747 323 LINE"
);
}
);
width = 1502;
},
{
associatedMasterId = "785B6CE2-304A-4677-8076-DAC1C502AB09";
background = {
paths = (
{
closed = 1;
nodes = (
"1199 0 LINE",
"1199 1264 LINE",
"1076 1264 LINE",
"1076 0 LINE"
);
},
{
closed = 1;
nodes = (
"466 0 LINE",
"466 1264 LINE",
"343 1264 LINE",
"343 0 LINE"
);
},
{
closed = 1;
nodes = (
"1116 604 LINE",
"1116 714 LINE",
"430 714 LINE",
"430 604 LINE"
);
},
{
closed = 1;
nodes = (
"1166 998 LINE",
"1251 1172 LINE",
"1234 1169 LINE",
"1219 938 LINE",
"1219 0 LINE",
"1342 0 LINE",
"1342 1264 LINE",
"1179 1264 LINE",
"745 471 LINE",
"793 471 LINE",
"359 1264 LINE",
"200 1264 LINE",
"200 0 LINE",
"323 0 LINE",
"323 938 LINE",
"313 1146 LINE",
"305 1133 LINE",
"376 998 LINE",
"767 313 LINE",
"775 313 LINE"
);
}
);
};
layerId = "07F8815D-6A86-40A5-BF93-7C497F9D447B";
name = "Light Aug 5 16, 16:53";
paths = (
{
closed = 1;
nodes = (
"775 313 LINE",
"1166 998 LINE",
"1251 1172 LINE",
"1234 1169 LINE",
"1219 938 LINE",
"1219 0 LINE",
"1342 0 LINE",
"1342 1264 LINE",
"1183 1264 LINE",
"749 471 LINE",
"797 471 LINE",
"363 1264 LINE",
"200 1264 LINE",
"200 0 LINE",
"323 0 LINE",
"323 938 LINE",
"308 1169 LINE",
"291 1172 LINE",
"376 998 LINE",
"767 313 LINE"
);
}
);
width = 1542;
},
{
associatedMasterId = "785B6CE2-304A-4677-8076-DAC1C502AB09";
background = {
paths = (
{
closed = 1;
nodes = (
"765 311 LINE",
"1209 1158 LINE",
"1209 0 LINE",
"1332 0 LINE",
"1332 1264 LINE",
"1132 1264 LINE",
"731 471 LINE",
"794 471 LINE",
"393 1264 LINE",
"190 1264 LINE",
"190 0 LINE",
"313 0 LINE",
"313 1158 LINE",
"757 311 LINE"
);
}
);
};
layerId = "33A9C93B-4D86-4B27-A1B1-C84E1EFD658A";
name = "Light Aug 9 16, 19:23";
paths = (
{
closed = 1;
nodes = (
"837 311 LINE",
"1199 1148 LINE",
"1199 0 LINE",
"1322 0 LINE",
"1322 1264 LINE",
"1122 1264 LINE",
"731 340 LINE",
"794 340 LINE",
"403 1264 LINE",
"200 1264 LINE",
"200 0 LINE",
"324 0 LINE",
"323 1148 LINE",
"684 311 LINE"
);
}
);
width = 1522;
},
{
associatedMasterId = "9D994BBA-EAF3-4FD1-99F5-B9EE3FFE0BB8";
background = {
paths = (
{
closed = 1;
nodes = (
"817 311 LINE",
"1135 1009 LINE",
"1221 1197 LINE",
"1199 1202 LINE",
"1199 1008 LINE",
"1199 0 LINE",
"1322 0 LINE",
"1322 1264 LINE",
"1122 1264 LINE",
"711 340 LINE",
"814 340 LINE",
"403 1264 LINE",
"200 1264 LINE",
"200 0 LINE",
"323 0 LINE",
"323 1008 LINE",
"323 1202 LINE",
"301 1197 LINE",
"387 1008 LINE",
"704 311 LINE"
);
}
);
};
layerId = "45E2F369-51F3-47E8-A003-F4810B6B8171";
name = "Bold Aug 9 16, 20:15";
paths = (
{
closed = 1;
nodes = (
"372 0 LINE",
"372 998 LINE",
"370 1202 LINE",
"289 1197 LINE",
"374 1007 LINE",
"684 208 LINE",
"600 311 LINE",
"921 311 LINE",
"837 208 LINE",
"1148 1007 LINE",
"1233 1197 LINE",
"1152 1202 LINE",
"1150 998 LINE",
"1150 0 LINE",
"1400 0 LINE",
"1400 1264 LINE",
"1012 1264 LINE",
"739 534 LINE",
"805 535 LINE",
"533 1264 LINE",
"122 1264 LINE",
"122 0 LINE"
);
}
);
width = 1522;
},
{
associatedMasterId = "9D994BBA-EAF3-4FD1-99F5-B9EE3FFE0BB8";
background = {
paths = (
{
closed = 1;
nodes = (
"817 311 LINE",
"1135 1009 LINE",
"1221 1197 LINE",
"1199 1202 LINE",
"1199 1008 LINE",
"1199 0 LINE",
"1322 0 LINE",
"1322 1264 LINE",
"1122 1264 LINE",
"711 340 LINE",
"814 340 LINE",
"403 1264 LINE",
"200 1264 LINE",
"200 0 LINE",
"323 0 LINE",
"323 1008 LINE",
"323 1202 LINE",
"301 1197 LINE",
"387 1008 LINE",
"704 311 LINE"
);
},
{
closed = 1;
nodes = (
"372 0 LINE",
"372 998 LINE",
"370 1202 LINE",
"289 1197 LINE",
"374 1007 LINE",
"684 208 LINE",
"600 311 LINE",
"921 311 LINE",
"837 208 LINE",
"1148 1007 LINE",
"1233 1197 LINE",
"1152 1202 LINE",
"1150 998 LINE",
"1150 0 LINE",
"1400 0 LINE",
"1400 1264 LINE",
"1012 1264 LINE",
"739 534 LINE",
"805 535 LINE",
"533 1264 LINE",
"122 1264 LINE",
"122 0 LINE"
);
}
);
};
layerId = "70BBC44E-8D68-4ADF-A803-E927553E3504";
name = "Bold Aug 9 16, 22:03";
paths = (
{
closed = 1;
nodes = (
"372 0 LINE",
"372 764 LINE",
"360 1202 LINE",
"299 1197 LINE",
"430 823 LINE",
"684 208 LINE",
"600 290 LINE",
"921 290 LINE",
"837 208 LINE",
"1087 811 LINE",
"1223 1197 LINE",
"1162 1202 LINE",
"1150 764 LINE",
"1150 0 LINE",
"1400 0 LINE",
"1400 1264 LINE",
"1022 1264 LINE",
"813 705 LINE",
"749 504 LINE",
"795 505 LINE",
"732 704 LINE",
"523 1264 LINE",
"122 1264 LINE",
"122 0 LINE"
);
}
);
width = 1522;
},
{
associatedMasterId = "9D994BBA-EAF3-4FD1-99F5-B9EE3FFE0BB8";
background = {
paths = (
{
closed = 1;
nodes = (
"817 311 LINE",
"1135 1009 LINE",
"1221 1197 LINE",
"1199 1202 LINE",
"1199 1008 LINE",
"1199 0 LINE",
"1322 0 LINE",
"1322 1264 LINE",
"1122 1264 LINE",
"711 340 LINE",
"814 340 LINE",
"403 1264 LINE",
"200 1264 LINE",
"200 0 LINE",
"323 0 LINE",
"323 1008 LINE",
"323 1202 LINE",
"301 1197 LINE",
"387 1008 LINE",
"704 311 LINE"
);
},
{
closed = 1;
nodes = (
"372 0 LINE",
"372 998 LINE",
"370 1202 LINE",
"289 1197 LINE",
"374 1007 LINE",
"684 208 LINE",
"600 311 LINE",
"921 311 LINE",
"837 208 LINE",
"1148 1007 LINE",
"1233 1197 LINE",
"1152 1202 LINE",
"1150 998 LINE",
"1150 0 LINE",
"1400 0 LINE",
"1400 1264 LINE",
"1012 1264 LINE",
"739 534 LINE",
"805 535 LINE",
"533 1264 LINE",
"122 1264 LINE",
"122 0 LINE"
);
}
);
};
layerId = "56802CA3-751E-435D-93E8-C0E96F3FEEC6";
name = "Bold Aug 9 16, 22:15";
paths = (
{
closed = 1;
nodes = (
"372 0 LINE",
"372 764 LINE",
"360 1202 LINE",
"279 1197 LINE",
"420 823 LINE",
"694 208 LINE",
"600 290 LINE",
"921 290 LINE",
"827 208 LINE",
"1097 811 LINE",
"1243 1197 LINE",
"1162 1202 LINE",
"1150 764 LINE",
"1150 0 LINE",
"1400 0 LINE",
"1400 1264 LINE",
"1042 1264 LINE",
"813 705 LINE",
"749 504 LINE",
"795 505 LINE",
"732 704 LINE",
"503 1264 LINE",
"122 1264 LINE",
"122 0 LINE"
);
}
);
width = 1522;
}
);
unicode = 004D;
},
{
glyphname = N;
lastChange = "2016-08-14 14:53:41 +0000";
layers = (
{
anchors = (
{
name = bottom;
position = "{638, 0}";
},
{
name = top;
position = "{658, 1264}";
}
);
background = {
paths = (
{
closed = 1;
nodes = (
"323 0 LINE",
"323 942 LINE SMOOTH",
"323 1036 OFFCURVE",
"318 1131 OFFCURVE",
"313 1226 CURVE",
"290 1211 LINE",
"325 1135 OFFCURVE",
"365 1053 OFFCURVE",
"401 984 CURVE SMOOTH",
"923 0 LINE",
"1076 0 LINE",
"1076 1264 LINE",
"953 1264 LINE",
"953 418 LINE SMOOTH",
"953 323 OFFCURVE",
"966 129 OFFCURVE",
"977 34 CURVE",
"1011 28 LINE",
"973 116 OFFCURVE",
"942 224 OFFCURVE",
"899 304 CURVE SMOOTH",
"386 1264 LINE",
"200 1264 LINE",
"200 0 LINE"
);
}
);
};
layerId = "785B6CE2-304A-4677-8076-DAC1C502AB09";
paths = (
{
closed = 1;
nodes = (
"323 0 LINE",
"323 942 LINE SMOOTH",
"323 1036 OFFCURVE",
"318 1131 OFFCURVE",
"313 1226 CURVE",
"290 1211 LINE",
"325 1135 OFFCURVE",
"363 1053 OFFCURVE",
"401 984 CURVE SMOOTH",
"943 0 LINE",
"1076 0 LINE",
"1076 1264 LINE",
"953 1264 LINE",
"953 418 LINE SMOOTH",
"953 323 OFFCURVE",
"966 129 OFFCURVE",
"977 34 CURVE",
"1021 28 LINE",
"983 116 OFFCURVE",
"952 225 OFFCURVE",
"909 304 CURVE SMOOTH",
"386 1264 LINE",
"200 1264 LINE",
"200 0 LINE"
);
}
);
width = 1276;
},
{
anchors = (
{
name = bottom;
position = "{651, 0}";
},
{
name = top;
position = "{651, 1277}";
}
);
background = {
paths = (
{
closed = 1;
nodes = (
"338 0 LINE",
"338 942 LINE SMOOTH",
"338 1036 OFFCURVE",
"333 1131 OFFCURVE",
"328 1226 CURVE",
"305 1211 LINE",
"340 1135 OFFCURVE",
"378 1053 OFFCURVE",
"416 984 CURVE SMOOTH",
"958 0 LINE",
"1091 0 LINE",
"1091 1264 LINE",
"968 1264 LINE",
"968 418 LINE SMOOTH",
"968 323 OFFCURVE",
"981 129 OFFCURVE",
"992 34 CURVE",
"1036 28 LINE",
"998 116 OFFCURVE",
"967 225 OFFCURVE",
"924 304 CURVE SMOOTH",
"401 1264 LINE",
"215 1264 LINE",
"215 0 LINE"
);
}
);
};
layerId = "9D994BBA-EAF3-4FD1-99F5-B9EE3FFE0BB8";
paths = (
{
closed = 1;
nodes = (
"378 0 LINE",
"378 687 LINE SMOOTH",
"378 810 OFFCURVE",
"343 1144 OFFCURVE",
"338 1239 CURVE",
"225 1224 LINE",
"260 1148 OFFCURVE",
"430 825 OFFCURVE",
"489 718 CURVE SMOOTH",
"885 0 LINE",
"1161 0 LINE",
"1161 1277 LINE",
"923 1277 LINE",
"923 660 LINE SMOOTH",
"923 503 OFFCURVE",
"966 158 OFFCURVE",
"977 63 CURVE",
"1051 57 LINE",
"1013 157 OFFCURVE",
"897 488 OFFCURVE",
"821 631 CURVE SMOOTH",
"479 1277 LINE",
"140 1277 LINE",
"140 0 LINE"
);
}
);
width = 1301;
},
{
associatedMasterId = "785B6CE2-304A-4677-8076-DAC1C502AB09";
background = {
paths = (
{
closed = 1;
nodes = (
"1056 0 LINE",
"1056 1264 LINE",
"933 1264 LINE",
"933 0 LINE"
);
},
{
closed = 1;
nodes = (
"323 0 LINE",
"323 1264 LINE",
"200 1264 LINE",
"200 0 LINE"
);
},
{
closed = 1;
nodes = (
"973 604 LINE",
"973 714 LINE",
"287 714 LINE",
"287 604 LINE"
);
}
);
};
layerId = "E2B93A2E-38A6-4064-9D26-72CD8AB36073";
name = "Light Aug 5 16, 16:58";
paths = (
{
closed = 1;
nodes = (
"323 0 LINE",
"323 938 LINE",
"308 1169 LINE",
"291 1172 LINE",
"376 998 LINE",
"913 0 LINE",
"1076 0 LINE",
"1076 1264 LINE",
"953 1264 LINE",
"953 326 LINE",
"968 95 LINE",
"985 92 LINE",
"900 266 LINE",
"363 1264 LINE",
"200 1264 LINE",
"200 0 LINE"
);
}
);
width = 1276;
},
{
associatedMasterId = "785B6CE2-304A-4677-8076-DAC1C502AB09";
background = {
paths = (
{
closed = 1;
nodes = (
"323 0 LINE",
"323 942 LINE SMOOTH",
"323 1036 OFFCURVE",
"318 1131 OFFCURVE",
"313 1226 CURVE",
"290 1211 LINE",
"325 1135 OFFCURVE",
"365 1053 OFFCURVE",
"401 984 CURVE SMOOTH",
"913 0 LINE",
"1076 0 LINE",
"1076 1264 LINE",
"953 1264 LINE",
"953 418 LINE SMOOTH",
"953 323 OFFCURVE",
"961 130 OFFCURVE",
"973 35 CURVE",
"1004 40 LINE",
"966 128 OFFCURVE",
"931 224 OFFCURVE",
"889 304 CURVE SMOOTH",
"386 1264 LINE",
"200 1264 LINE",
"200 0 LINE"
);
}
);
};
layerId = "542C03BC-D3DC-4ACC-B00C-0037AA9914D9";
name = "Light Aug 6 16, 01:41";
paths = (
{
closed = 1;
nodes = (
"323 0 LINE",
"323 942 LINE SMOOTH",
"323 1036 OFFCURVE",
"318 1131 OFFCURVE",
"313 1226 CURVE",
"290 1211 LINE",
"325 1135 OFFCURVE",
"365 1053 OFFCURVE",
"401 984 CURVE SMOOTH",
"923 0 LINE",
"1076 0 LINE",
"1076 1264 LINE",
"953 1264 LINE",
"953 418 LINE SMOOTH",
"953 323 OFFCURVE",
"966 129 OFFCURVE",
"977 34 CURVE",
"1011 28 LINE",
"973 116 OFFCURVE",
"942 224 OFFCURVE",
"899 304 CURVE SMOOTH",
"386 1264 LINE",
"200 1264 LINE",
"200 0 LINE"
);
}
);
width = 1276;
}
);
unicode = 004E;
},
{
glyphname = O;
lastChange = "2016-08-10 00:51:19 +0000";
layers = (
{
anchors = (
{
name = bottom;
position = "{648, 0}";
},
{
name = center;
position = "{648, 632}";
},
{
name = ogonek;
position = "{1166, 10}";
},
{
name = top;
position = "{648, 1264}";
},
{
name = topleft;
position = "{20, 1264}";
},
{
name = topright;
position = "{1276, 1264}";
}
);
background = {
paths = (
{
closed = 1;
nodes = (
"956 -24 OFFCURVE",
"1166 229 OFFCURVE",
"1166 647 CURVE SMOOTH",
"1166 1046 OFFCURVE",
"976 1288 OFFCURVE",
"662 1288 CURVE SMOOTH",
"341 1288 OFFCURVE",
"130 1038 OFFCURVE",
"130 618 CURVE SMOOTH",
"130 221 OFFCURVE",
"320 -24 OFFCURVE",
"634 -24 CURVE SMOOTH"
);
},
{
closed = 1;
nodes = (
"413 86 OFFCURVE",
"261 256 OFFCURVE",
"261 631 CURVE SMOOTH",
"261 1012 OFFCURVE",
"418 1178 OFFCURVE",
"648 1178 CURVE SMOOTH",
"879 1178 OFFCURVE",
"1035 1010 OFFCURVE",
"1035 629 CURVE SMOOTH",
"1035 255 OFFCURVE",
"884 86 OFFCURVE",
"650 86 CURVE SMOOTH"
);
}
);
};
layerId = "785B6CE2-304A-4677-8076-DAC1C502AB09";
paths = (
{
closed = 1;
nodes = (
"956 -24 OFFCURVE",
"1166 229 OFFCURVE",
"1166 647 CURVE SMOOTH",
"1166 1046 OFFCURVE",
"976 1288 OFFCURVE",
"662 1288 CURVE SMOOTH",
"341 1288 OFFCURVE",
"130 1038 OFFCURVE",
"130 618 CURVE SMOOTH",
"130 221 OFFCURVE",
"320 -24 OFFCURVE",
"634 -24 CURVE SMOOTH"
);
},
{
closed = 1;
nodes = (
"413 86 OFFCURVE",
"261 256 OFFCURVE",
"261 631 CURVE SMOOTH",
"261 1012 OFFCURVE",
"418 1178 OFFCURVE",
"648 1178 CURVE SMOOTH",
"879 1178 OFFCURVE",
"1035 1010 OFFCURVE",
"1035 629 CURVE SMOOTH",
"1035 255 OFFCURVE",
"884 86 OFFCURVE",
"650 86 CURVE SMOOTH"
);
}
);
width = 1296;
},
{
anchors = (
{
name = bottom;
position = "{648, 0}";
},
{
name = center;
position = "{648, 639}";
},
{
name = ogonek;
position = "{1166, 10}";
},
{
name = top;
position = "{648, 1277}";
},
{
name = topleft;
position = "{20, 1277}";
},
{
name = topright;
position = "{1276, 1277}";
}
);
background = {
paths = (
{
closed = 1;
nodes = (
"956 -24 OFFCURVE",
"1166 229 OFFCURVE",
"1166 647 CURVE SMOOTH",
"1166 1046 OFFCURVE",
"976 1288 OFFCURVE",
"662 1288 CURVE SMOOTH",
"341 1288 OFFCURVE",
"130 1038 OFFCURVE",
"130 618 CURVE SMOOTH",
"130 221 OFFCURVE",
"320 -24 OFFCURVE",
"634 -24 CURVE SMOOTH"
);
},
{
closed = 1;
nodes = (
"413 86 OFFCURVE",
"261 256 OFFCURVE",
"261 631 CURVE SMOOTH",
"261 1012 OFFCURVE",
"418 1178 OFFCURVE",
"648 1178 CURVE SMOOTH",
"879 1178 OFFCURVE",
"1035 1010 OFFCURVE",
"1035 629 CURVE SMOOTH",
"1035 255 OFFCURVE",
"884 86 OFFCURVE",
"650 86 CURVE SMOOTH"
);
},
{
closed = 1;
nodes = (
"858 -33 OFFCURVE",
"1007 29 OFFCURVE",
"1097 78 CURVE",
"1036 -32 LINE",
"1036 408 LINE",
"1181 268 LINE",
"877 268 LINE",
"1104 332 LINE",
"968 210 OFFCURVE",
"797 181 OFFCURVE",
"699 181 CURVE SMOOTH",
"475 181 OFFCURVE",
"390 359 OFFCURVE",
"390 634 CURVE SMOOTH",
"390 957 OFFCURVE",
"501 1085 OFFCURVE",
"690 1085 CURVE SMOOTH",
"828 1085 OFFCURVE",
"983 979 OFFCURVE",
"1040 914 CURVE",
"849 962 LINE",
"1153 962 LINE",
"986 884 LINE",
"1082 1207 LINE",
"1142 1131 LINE",
"984 1233 OFFCURVE",
"921 1310 OFFCURVE",
"679 1310 CURVE SMOOTH",
"319 1310 OFFCURVE",
"86 1028 OFFCURVE",
"86 604 CURVE SMOOTH",
"86 199 OFFCURVE",
"287 -33 OFFCURVE",
"674 -33 CURVE SMOOTH"
);
}
);
};
layerId = "9D994BBA-EAF3-4FD1-99F5-B9EE3FFE0BB8";
paths = (
{
closed = 1;
nodes = (
"1002 -33 OFFCURVE",
"1210 229 OFFCURVE",
"1210 656 CURVE SMOOTH",
"1210 1059 OFFCURVE",
"1022 1310 OFFCURVE",
"662 1310 CURVE SMOOTH",
"295 1310 OFFCURVE",
"86 1051 OFFCURVE",
"86 627 CURVE SMOOTH",
"86 221 OFFCURVE",
"274 -33 OFFCURVE",
"634 -33 CURVE SMOOTH"
);
},
{
closed = 1;
nodes = (
"451 188 OFFCURVE",
"368 346 OFFCURVE",
"368 640 CURVE SMOOTH",
"368 935 OFFCURVE",
"456 1089 OFFCURVE",
"648 1089 CURVE SMOOTH",
"841 1089 OFFCURVE",
"928 933 OFFCURVE",
"928 638 CURVE SMOOTH",
"928 345 OFFCURVE",
"846 188 OFFCURVE",
"650 188 CURVE SMOOTH"
);
}
);
width = 1296;
}
);
leftKerningGroup = O;
unicode = 004F;
},
{
glyphname = P;
lastChange = "2016-08-15 20:37:27 +0000";
layers = (
{
background = {
paths = (
{
closed = 1;
nodes = (
"542 495 LINE SMOOTH",
"809 495 OFFCURVE",
"985 639 OFFCURVE",
"985 904 CURVE SMOOTH",
"985 1151 OFFCURVE",
"810 1264 OFFCURVE",
"605 1264 CURVE SMOOTH",
"287 1264 LINE",
"287 1154 LINE",
"564 1154 LINE SMOOTH",
"781 1154 OFFCURVE",
"855 1061 OFFCURVE",
"855 888 CURVE SMOOTH",
"855 689 OFFCURVE",
"731 604 OFFCURVE",
"570 604 CURVE SMOOTH",
"299 604 LINE",
"299 495 LINE"
);
},
{
closed = 1;
nodes = (
"323 0 LINE",
"323 1264 LINE",
"200 1264 LINE",
"200 0 LINE"
);
},
{
closed = 1;
nodes = (
"1056 0 LINE",
"1056 1264 LINE",
"933 1264 LINE",
"933 0 LINE"
);
},
{
closed = 1;
nodes = (
"323 0 LINE",
"323 1264 LINE",
"200 1264 LINE",
"200 0 LINE"
);
},
{
closed = 1;
nodes = (
"973 604 LINE",
"973 714 LINE",
"287 714 LINE",
"287 604 LINE"
);
}
);
};
layerId = "785B6CE2-304A-4677-8076-DAC1C502AB09";
paths = (
{
closed = 1;
nodes = (
"550 505 LINE SMOOTH",
"797 505 OFFCURVE",
"983 663 OFFCURVE",
"983 899 CURVE SMOOTH",
"983 1149 OFFCURVE",
"791 1264 OFFCURVE",
"559 1264 CURVE SMOOTH",
"287 1264 LINE",
"287 1154 LINE",
"533 1154 LINE SMOOTH",
"750 1154 OFFCURVE",
"853 1061 OFFCURVE",
"853 883 CURVE SMOOTH",
"853 699 OFFCURVE",
"729 614 OFFCURVE",
"540 614 CURVE SMOOTH",
"299 614 LINE",
"299 505 LINE"
);
},
{
closed = 1;
nodes = (
"323 0 LINE",
"323 1264 LINE",
"200 1264 LINE",
"200 0 LINE"
);
}
);
width = 1093;
},
{
background = {
paths = (
{
closed = 1;
nodes = (
"560 505 LINE SMOOTH",
"807 505 OFFCURVE",
"993 663 OFFCURVE",
"993 899 CURVE SMOOTH",
"993 1149 OFFCURVE",
"801 1264 OFFCURVE",
"569 1264 CURVE SMOOTH",
"297 1264 LINE",
"297 1154 LINE",
"543 1154 LINE SMOOTH",
"760 1154 OFFCURVE",
"863 1061 OFFCURVE",
"863 883 CURVE SMOOTH",
"863 699 OFFCURVE",
"739 614 OFFCURVE",
"550 614 CURVE SMOOTH",
"309 614 LINE",
"309 505 LINE"
);
},
{
closed = 1;
nodes = (
"333 0 LINE",
"333 1264 LINE",
"210 1264 LINE",
"210 0 LINE"
);
}
);
};
layerId = "9D994BBA-EAF3-4FD1-99F5-B9EE3FFE0BB8";
paths = (
{
closed = 1;
nodes = (
"560 439 LINE SMOOTH",
"877 439 OFFCURVE",
"1063 593 OFFCURVE",
"1063 873 CURVE SMOOTH",
"1063 1158 OFFCURVE",
"871 1277 OFFCURVE",
"569 1277 CURVE SMOOTH",
"297 1277 LINE",
"297 1071 LINE",
"543 1071 LINE SMOOTH",
"721 1071 OFFCURVE",
"787 986 OFFCURVE",
"787 858 CURVE SMOOTH",
"787 717 OFFCURVE",
"718 643 OFFCURVE",
"550 643 CURVE SMOOTH",
"309 643 LINE",
"309 439 LINE"
);
},
{
closed = 1;
nodes = (
"403 0 LINE",
"403 1277 LINE",
"140 1277 LINE",
"140 0 LINE"
);
}
);
width = 1123;
},
{
associatedMasterId = "785B6CE2-304A-4677-8076-DAC1C502AB09";
background = {
paths = (
{
closed = 1;
nodes = (
"542 495 LINE SMOOTH",
"809 495 OFFCURVE",
"985 639 OFFCURVE",
"985 904 CURVE SMOOTH",
"985 1151 OFFCURVE",
"810 1264 OFFCURVE",
"605 1264 CURVE SMOOTH",
"287 1264 LINE",
"287 1154 LINE",
"564 1154 LINE SMOOTH",
"781 1154 OFFCURVE",
"855 1061 OFFCURVE",
"855 888 CURVE SMOOTH",
"855 689 OFFCURVE",
"731 604 OFFCURVE",
"570 604 CURVE SMOOTH",
"299 604 LINE",
"299 495 LINE"
);
},
{
closed = 1;
nodes = (
"323 0 LINE",
"323 1264 LINE",
"200 1264 LINE",
"200 0 LINE"
);
},
{
closed = 1;
nodes = (
"1056 0 LINE",
"1056 1264 LINE",
"933 1264 LINE",
"933 0 LINE"
);
},
{
closed = 1;
nodes = (
"323 0 LINE",
"323 1264 LINE",
"200 1264 LINE",
"200 0 LINE"
);
},
{
closed = 1;
nodes = (
"973 604 LINE",
"973 714 LINE",
"287 714 LINE",
"287 604 LINE"
);
}
);
};
layerId = "4B773D33-837A-4692-B48C-EAE31821684F";
name = "Light Aug 5 16, 16:10";
paths = (
{
closed = 1;
nodes = (
"550 495 LINE SMOOTH",
"797 495 OFFCURVE",
"983 653 OFFCURVE",
"983 904 CURVE SMOOTH",
"983 1149 OFFCURVE",
"791 1264 OFFCURVE",
"559 1264 CURVE SMOOTH",
"287 1264 LINE",
"287 1154 LINE",
"533 1154 LINE SMOOTH",
"750 1154 OFFCURVE",
"853 1061 OFFCURVE",
"853 888 CURVE SMOOTH",
"853 689 OFFCURVE",
"729 604 OFFCURVE",
"540 604 CURVE SMOOTH",
"299 604 LINE",
"299 495 LINE"
);
},
{
closed = 1;
nodes = (
"323 0 LINE",
"323 1264 LINE",
"200 1264 LINE",
"200 0 LINE"
);
}
);
width = 1093;
}
);
unicode = 0050;
},
{
glyphname = Q;
lastChange = "2016-08-09 22:38:52 +0000";
layers = (
{
background = {
paths = (
{
closed = 1;
nodes = (
"939 -24 OFFCURVE",
"1166 216 OFFCURVE",
"1166 647 CURVE SMOOTH",
"1166 1046 OFFCURVE",
"986 1288 OFFCURVE",
"662 1288 CURVE SMOOTH",
"331 1288 OFFCURVE",
"130 1038 OFFCURVE",
"130 618 CURVE SMOOTH",
"130 221 OFFCURVE",
"310 -24 OFFCURVE",
"634 -24 CURVE SMOOTH"
);
},
{
closed = 1;
nodes = (
"413 86 OFFCURVE",
"261 256 OFFCURVE",
"261 631 CURVE SMOOTH",
"261 1012 OFFCURVE",
"418 1178 OFFCURVE",
"648 1178 CURVE SMOOTH",
"879 1178 OFFCURVE",
"1035 1010 OFFCURVE",
"1035 629 CURVE SMOOTH",
"1035 255 OFFCURVE",
"892 86 OFFCURVE",
"650 86 CURVE SMOOTH"
);
},
{
closed = 1;
nodes = (
"651 387 LINE",
"1005 -220 LINE",
"1136 -220 LINE",
"1136 -213 LINE",
"782 394 LINE",
"651 394 LINE"
);
}
);
};
layerId = "785B6CE2-304A-4677-8076-DAC1C502AB09";
paths = (
{
closed = 1;
nodes = (
"939 -24 OFFCURVE",
"1166 216 OFFCURVE",
"1166 647 CURVE SMOOTH",
"1166 1046 OFFCURVE",
"986 1288 OFFCURVE",
"662 1288 CURVE SMOOTH",
"331 1288 OFFCURVE",
"130 1038 OFFCURVE",
"130 618 CURVE SMOOTH",
"130 221 OFFCURVE",
"310 -24 OFFCURVE",
"634 -24 CURVE SMOOTH"
);
},
{
closed = 1;
nodes = (
"1134 -220 LINE",
"1134 -213 LINE",
"780 414 LINE",
"653 414 LINE",
"653 407 LINE",
"1007 -220 LINE"
);
},
{
closed = 1;
nodes = (
"413 86 OFFCURVE",
"261 256 OFFCURVE",
"261 631 CURVE SMOOTH",
"261 1012 OFFCURVE",
"418 1178 OFFCURVE",
"648 1178 CURVE SMOOTH",
"879 1178 OFFCURVE",
"1035 1010 OFFCURVE",
"1035 629 CURVE SMOOTH",
"1035 255 OFFCURVE",
"892 86 OFFCURVE",
"650 86 CURVE SMOOTH"
);
}
);
width = 1296;
},
{
background = {
paths = (
{
closed = 1;
nodes = (
"992 -33 OFFCURVE",
"1210 237 OFFCURVE",
"1210 656 CURVE SMOOTH",
"1210 1059 OFFCURVE",
"1020 1310 OFFCURVE",
"662 1310 CURVE SMOOTH",
"297 1310 OFFCURVE",
"86 1051 OFFCURVE",
"86 627 CURVE SMOOTH",
"86 221 OFFCURVE",
"276 -33 OFFCURVE",
"634 -33 CURVE SMOOTH"
);
},
{
closed = 1;
nodes = (
"453 188 OFFCURVE",
"368 346 OFFCURVE",
"368 640 CURVE SMOOTH",
"368 935 OFFCURVE",
"458 1089 OFFCURVE",
"648 1089 CURVE SMOOTH",
"839 1089 OFFCURVE",
"928 933 OFFCURVE",
"928 638 CURVE SMOOTH",
"928 306 OFFCURVE",
"859 188 OFFCURVE",
"650 188 CURVE SMOOTH"
);
},
{
closed = 1;
nodes = (
"1183 -220 LINE",
"1183 -213 LINE",
"801 464 LINE",
"574 464 LINE",
"574 457 LINE",
"956 -220 LINE"
);
}
);
};
layerId = "9D994BBA-EAF3-4FD1-99F5-B9EE3FFE0BB8";
paths = (
{
closed = 1;
nodes = (
"992 -33 OFFCURVE",
"1210 237 OFFCURVE",
"1210 656 CURVE SMOOTH",
"1210 1059 OFFCURVE",
"1020 1310 OFFCURVE",
"662 1310 CURVE SMOOTH",
"297 1310 OFFCURVE",
"86 1051 OFFCURVE",
"86 627 CURVE SMOOTH",
"86 221 OFFCURVE",
"276 -33 OFFCURVE",
"634 -33 CURVE SMOOTH"
);
},
{
closed = 1;
nodes = (
"1181 -220 LINE",
"1181 -213 LINE",
"799 464 LINE",
"547 464 LINE",
"547 457 LINE",
"929 -220 LINE"
);
},
{
closed = 1;
nodes = (
"453 188 OFFCURVE",
"368 346 OFFCURVE",
"368 640 CURVE SMOOTH",
"368 935 OFFCURVE",
"458 1089 OFFCURVE",
"648 1089 CURVE SMOOTH",
"839 1089 OFFCURVE",
"928 933 OFFCURVE",
"928 638 CURVE SMOOTH",
"928 306 OFFCURVE",
"859 188 OFFCURVE",
"650 188 CURVE SMOOTH"
);
}
);
width = 1296;
}
);
unicode = 0051;
},
{
glyphname = R;
lastChange = "2016-08-16 00:06:40 +0000";
layers = (
{
background = {
paths = (
{
closed = 1;
nodes = (
"550 610 LINE SMOOTH",
"797 610 OFFCURVE",
"963 744 OFFCURVE",
"963 944 CURVE SMOOTH",
"963 1162 OFFCURVE",
"791 1264 OFFCURVE",
"559 1264 CURVE SMOOTH",
"287 1264 LINE",
"287 1154 LINE",
"533 1154 LINE SMOOTH",
"750 1154 OFFCURVE",
"833 1077 OFFCURVE",
"833 928 CURVE SMOOTH",
"833 779 OFFCURVE",
"729 694 OFFCURVE",
"540 694 CURVE SMOOTH",
"299 694 LINE",
"299 610 LINE"
);
},
{
closed = 1;
nodes = (
"323 0 LINE",
"323 1264 LINE",
"200 1264 LINE",
"200 0 LINE"
);
},
{
closed = 1;
nodes = (
"1062 0 LINE",
"747 523 OFFCURVE",
"723 691 OFFCURVE",
"452 691 CURVE SMOOTH",
"394 691 OFFCURVE",
"317 684 OFFCURVE",
"263 678 CURVE",
"241 585 LINE",
"444 585 LINE SMOOTH",
"640 585 OFFCURVE",
"643 473 OFFCURVE",
"918 0 CURVE"
);
}
);
};
layerId = "785B6CE2-304A-4677-8076-DAC1C502AB09";
paths = (
{
closed = 1;
nodes = (
"550 610 LINE SMOOTH",
"797 610 OFFCURVE",
"963 744 OFFCURVE",
"963 944 CURVE SMOOTH",
"963 1162 OFFCURVE",
"791 1264 OFFCURVE",
"559 1264 CURVE SMOOTH",
"287 1264 LINE",
"287 1154 LINE",
"533 1154 LINE SMOOTH",
"750 1154 OFFCURVE",
"833 1077 OFFCURVE",
"833 928 CURVE SMOOTH",
"833 779 OFFCURVE",
"729 694 OFFCURVE",
"540 694 CURVE SMOOTH",
"299 694 LINE",
"299 610 LINE"
);
},
{
closed = 1;
nodes = (
"323 0 LINE",
"323 1264 LINE",
"200 1264 LINE",
"200 0 LINE"
);
},
{
closed = 1;
nodes = (
"1062 0 LINE",
"759 523 OFFCURVE",
"743 671 OFFCURVE",
"452 671 CURVE SMOOTH",
"394 671 OFFCURVE",
"317 684 OFFCURVE",
"263 678 CURVE",
"241 585 LINE",
"444 585 LINE SMOOTH",
"640 585 OFFCURVE",
"643 473 OFFCURVE",
"918 0 CURVE"
);
}
);
width = 1102;
},
{
background = {
paths = (
{
closed = 1;
nodes = (
"540 571 LINE SMOOTH",
"883 571 OFFCURVE",
"1049 740 OFFCURVE",
"1049 944 CURVE SMOOTH",
"1049 1175 OFFCURVE",
"833 1277 OFFCURVE",
"607 1277 CURVE SMOOTH",
"287 1277 LINE",
"287 1075 LINE",
"581 1075 LINE SMOOTH",
"692 1075 OFFCURVE",
"779 1042 OFFCURVE",
"779 910 CURVE SMOOTH",
"779 792 OFFCURVE",
"719 711 OFFCURVE",
"530 711 CURVE SMOOTH",
"299 711 LINE",
"299 571 LINE"
);
},
{
closed = 1;
nodes = (
"394 0 LINE",
"394 1277 LINE",
"130 1277 LINE",
"130 0 LINE"
);
},
{
closed = 1;
nodes = (
"1162 0 LINE",
"847 524 OFFCURVE",
"875 602 OFFCURVE",
"604 602 CURVE SMOOTH",
"546 602 OFFCURVE",
"317 615 OFFCURVE",
"263 609 CURVE",
"241 512 LINE",
"479 512 LINE SMOOTH",
"623 512 OFFCURVE",
"633 400 OFFCURVE",
"866 0 CURVE"
);
}
);
};
layerId = "9D994BBA-EAF3-4FD1-99F5-B9EE3FFE0BB8";
paths = (
{
closed = 1;
nodes = (
"532 571 LINE SMOOTH",
"875 571 OFFCURVE",
"1041 740 OFFCURVE",
"1041 944 CURVE SMOOTH",
"1041 1175 OFFCURVE",
"825 1277 OFFCURVE",
"599 1277 CURVE SMOOTH",
"287 1277 LINE",
"287 1075 LINE",
"573 1075 LINE SMOOTH",
"684 1075 OFFCURVE",
"771 1042 OFFCURVE",
"771 910 CURVE SMOOTH",
"771 792 OFFCURVE",
"711 711 OFFCURVE",
"522 711 CURVE SMOOTH",
"299 711 LINE",
"299 571 LINE"
);
},
{
closed = 1;
nodes = (
"394 0 LINE",
"394 1277 LINE",
"130 1277 LINE",
"130 0 LINE"
);
},
{
closed = 1;
nodes = (
"1162 0 LINE",
"847 524 OFFCURVE",
"875 602 OFFCURVE",
"604 602 CURVE SMOOTH",
"546 602 OFFCURVE",
"317 615 OFFCURVE",
"263 609 CURVE",
"241 512 LINE",
"462 512 LINE SMOOTH",
"606 512 OFFCURVE",
"633 400 OFFCURVE",
"866 0 CURVE"
);
}
);
width = 1162;
},
{
associatedMasterId = "9D994BBA-EAF3-4FD1-99F5-B9EE3FFE0BB8";
background = {
paths = (
{
closed = 1;
nodes = (
"550 583 LINE SMOOTH",
"893 583 OFFCURVE",
"1059 757 OFFCURVE",
"1059 957 CURVE SMOOTH",
"1059 1175 OFFCURVE",
"843 1277 OFFCURVE",
"617 1277 CURVE SMOOTH",
"287 1277 LINE",
"287 1075 LINE",
"591 1075 LINE SMOOTH",
"702 1075 OFFCURVE",
"789 1042 OFFCURVE",
"789 910 CURVE SMOOTH",
"789 792 OFFCURVE",
"729 723 OFFCURVE",
"540 723 CURVE SMOOTH",
"299 723 LINE",
"299 583 LINE"
);
},
{
closed = 1;
nodes = (
"394 0 LINE",
"394 1277 LINE",
"130 1277 LINE",
"130 0 LINE"
);
},
{
closed = 1;
nodes = (
"1162 0 LINE",
"847 536 OFFCURVE",
"840 634 OFFCURVE",
"569 634 CURVE SMOOTH",
"511 634 OFFCURVE",
"317 627 OFFCURVE",
"263 621 CURVE",
"241 524 LINE",
"444 524 LINE SMOOTH",
"640 524 OFFCURVE",
"643 412 OFFCURVE",
"876 0 CURVE"
);
}
);
};
layerId = "FA511C02-716E-472F-86AE-F2CCA32C46C7";
name = "Bold Aug 9 16, 21:56";
paths = (
{
closed = 1;
nodes = (
"550 571 LINE SMOOTH",
"893 571 OFFCURVE",
"1059 757 OFFCURVE",
"1059 957 CURVE SMOOTH",
"1059 1175 OFFCURVE",
"843 1277 OFFCURVE",
"617 1277 CURVE SMOOTH",
"287 1277 LINE",
"287 1075 LINE",
"591 1075 LINE SMOOTH",
"702 1075 OFFCURVE",
"789 1042 OFFCURVE",
"789 910 CURVE SMOOTH",
"789 792 OFFCURVE",
"729 711 OFFCURVE",
"540 711 CURVE SMOOTH",
"299 711 LINE",
"299 571 LINE"
);
},
{
closed = 1;
nodes = (
"394 0 LINE",
"394 1277 LINE",
"130 1277 LINE",
"130 0 LINE"
);
},
{
closed = 1;
nodes = (
"1162 0 LINE",
"847 524 OFFCURVE",
"875 622 OFFCURVE",
"604 622 CURVE SMOOTH",
"546 622 OFFCURVE",
"317 615 OFFCURVE",
"263 609 CURVE",
"241 512 LINE",
"479 512 LINE SMOOTH",
"675 512 OFFCURVE",
"643 400 OFFCURVE",
"876 0 CURVE"
);
}
);
width = 1184;
}
);
unicode = 0052;
},
{
glyphname = S;
lastChange = "2016-08-14 15:03:44 +0000";
layers = (
{
anchors = (
{
name = bottom;
position = "{525, 0}";
},
{
name = top;
position = "{525, 1264}";
}
);
background = {
paths = (
{
closed = 1;
nodes = (
"861 -33 OFFCURVE",
"1012 112 OFFCURVE",
"1012 352 CURVE SMOOTH",
"1012 612 OFFCURVE",
"858 689 OFFCURVE",
"625 775 CURVE SMOOTH",
"422 850 OFFCURVE",
"383 890 OFFCURVE",
"383 977 CURVE SMOOTH",
"383 1059 OFFCURVE",
"440 1097 OFFCURVE",
"565 1097 CURVE SMOOTH",
"679 1097 OFFCURVE",
"808 1058 OFFCURVE",
"904 977 CURVE",
"840 998 LINE",
"924 998 LINE",
"879 960 LINE",
"961 1245 LINE",
"986 1184 LINE",
"914 1244 OFFCURVE",
"803 1310 OFFCURVE",
"587 1310 CURVE SMOOTH",
"261 1310 OFFCURVE",
"115 1130 OFFCURVE",
"115 929 CURVE SMOOTH",
"115 671 OFFCURVE",
"309 601 OFFCURVE",
"507 532 CURVE SMOOTH",
"699 465 OFFCURVE",
"744 411 OFFCURVE",
"744 317 CURVE SMOOTH",
"744 223 OFFCURVE",
"697 178 OFFCURVE",
"540 181 CURVE SMOOTH",
"388 184 OFFCURVE",
"207 278 OFFCURVE",
"91 371 CURVE",
"197 338 LINE",
"57 338 LINE",
"125 396 LINE",
"125 3 LINE",
"100 93 LINE",
"184 11 OFFCURVE",
"377 -33 OFFCURVE",
"485 -33 CURVE SMOOTH"
);
}
);
};
layerId = "785B6CE2-304A-4677-8076-DAC1C502AB09";
paths = (
{
closed = 1;
nodes = (
"792 -24 OFFCURVE",
"946 134 OFFCURVE",
"946 332 CURVE SMOOTH",
"946 554 OFFCURVE",
"754 631 OFFCURVE",
"573 715 CURVE SMOOTH",
"385 802 OFFCURVE",
"308 847 OFFCURVE",
"308 966 CURVE SMOOTH",
"308 1073 OFFCURVE",
"371 1180 OFFCURVE",
"540 1180 CURVE SMOOTH",
"649 1180 OFFCURVE",
"769 1136 OFFCURVE",
"897 1049 CURVE",
"828 1078 LINE",
"946 1078 LINE",
"843 1034 LINE",
"900 1218 LINE",
"943 1164 LINE",
"840 1247 OFFCURVE",
"692 1288 OFFCURVE",
"564 1288 CURVE SMOOTH",
"324 1288 OFFCURVE",
"184 1143 OFFCURVE",
"184 951 CURVE SMOOTH",
"184 720 OFFCURVE",
"385 661 OFFCURVE",
"557 588 CURVE SMOOTH",
"736 512 OFFCURVE",
"822 442 OFFCURVE",
"822 313 CURVE SMOOTH",
"822 168 OFFCURVE",
"712 83 OFFCURVE",
"551 83 CURVE SMOOTH",
"377 83 OFFCURVE",
"238 182 OFFCURVE",
"116 270 CURVE",
"223 233 LINE",
"82 233 LINE",
"151 307 LINE",
"151 30 LINE",
"125 121 LINE",
"202 43 OFFCURVE",
"353 -24 OFFCURVE",
"526 -24 CURVE SMOOTH"
);
}
);
width = 1050;
},
{
anchors = (
{
name = bottom;
position = "{516, 0}";
},
{
name = top;
position = "{516, 1277}";
}
);
background = {
paths = (
{
closed = 1;
nodes = (
"821 -33 OFFCURVE",
"972 112 OFFCURVE",
"972 352 CURVE SMOOTH",
"972 612 OFFCURVE",
"818 689 OFFCURVE",
"585 775 CURVE SMOOTH",
"382 850 OFFCURVE",
"343 890 OFFCURVE",
"343 977 CURVE SMOOTH",
"343 1059 OFFCURVE",
"400 1105 OFFCURVE",
"525 1105 CURVE SMOOTH",
"639 1105 OFFCURVE",
"783 1066 OFFCURVE",
"879 985 CURVE",
"815 1006 LINE",
"899 1006 LINE",
"854 968 LINE",
"936 1239 LINE",
"961 1178 LINE",
"889 1238 OFFCURVE",
"763 1310 OFFCURVE",
"547 1310 CURVE SMOOTH",
"221 1310 OFFCURVE",
"75 1130 OFFCURVE",
"75 929 CURVE SMOOTH",
"75 671 OFFCURVE",
"269 601 OFFCURVE",
"467 532 CURVE SMOOTH",
"659 465 OFFCURVE",
"704 411 OFFCURVE",
"704 317 CURVE SMOOTH",
"704 223 OFFCURVE",
"657 169 OFFCURVE",
"500 172 CURVE SMOOTH",
"348 175 OFFCURVE",
"157 266 OFFCURVE",
"45 349 CURVE",
"151 316 LINE",
"11 316 LINE",
"79 374 LINE",
"79 -5 LINE",
"54 85 LINE",
"134 13 OFFCURVE",
"337 -33 OFFCURVE",
"445 -33 CURVE SMOOTH"
);
}
);
};
layerId = "9D994BBA-EAF3-4FD1-99F5-B9EE3FFE0BB8";
paths = (
{
closed = 1;
nodes = (
"821 -33 OFFCURVE",
"972 112 OFFCURVE",
"972 352 CURVE SMOOTH",
"972 612 OFFCURVE",
"818 689 OFFCURVE",
"585 775 CURVE SMOOTH",
"382 850 OFFCURVE",
"343 890 OFFCURVE",
"343 977 CURVE SMOOTH",
"343 1059 OFFCURVE",
"400 1097 OFFCURVE",
"525 1097 CURVE SMOOTH",
"639 1097 OFFCURVE",
"768 1058 OFFCURVE",
"864 977 CURVE",
"800 998 LINE",
"884 998 LINE",
"839 960 LINE",
"921 1245 LINE",
"946 1184 LINE",
"874 1244 OFFCURVE",
"763 1310 OFFCURVE",
"547 1310 CURVE SMOOTH",
"221 1310 OFFCURVE",
"75 1130 OFFCURVE",
"75 929 CURVE SMOOTH",
"75 671 OFFCURVE",
"269 601 OFFCURVE",
"467 532 CURVE SMOOTH",
"659 465 OFFCURVE",
"704 411 OFFCURVE",
"704 317 CURVE SMOOTH",
"704 223 OFFCURVE",
"657 178 OFFCURVE",
"500 181 CURVE SMOOTH",
"348 184 OFFCURVE",
"167 278 OFFCURVE",
"51 371 CURVE",
"157 338 LINE",
"17 338 LINE",
"85 396 LINE",
"85 3 LINE",
"60 93 LINE",
"144 11 OFFCURVE",
"337 -33 OFFCURVE",
"445 -33 CURVE SMOOTH"
);
}
);
width = 1032;
},
{
associatedMasterId = "785B6CE2-304A-4677-8076-DAC1C502AB09";
background = {
paths = (
{
closed = 1;
nodes = (
"820 -24 OFFCURVE",
"980 134 OFFCURVE",
"980 344 CURVE SMOOTH",
"980 556 OFFCURVE",
"816 629 OFFCURVE",
"611 713 CURVE SMOOTH",
"418 793 OFFCURVE",
"336 850 OFFCURVE",
"336 949 CURVE SMOOTH",
"336 1075 OFFCURVE",
"433 1156 OFFCURVE",
"551 1156 CURVE SMOOTH",
"685 1156 OFFCURVE",
"743 1097 OFFCURVE",
"980 1060 CURVE",
"862 1077 LINE",
"1011 1077 LINE",
"905 1028 LINE",
"905 1273 LINE",
"977 1203 LINE",
"854 1199 OFFCURVE",
"743 1288 OFFCURVE",
"573 1288 CURVE SMOOTH",
"358 1288 OFFCURVE",
"184 1162 OFFCURVE",
"184 935 CURVE SMOOTH",
"184 709 OFFCURVE",
"385 644 OFFCURVE",
"539 586 CURVE SMOOTH",
"737 509 OFFCURVE",
"828 451 OFFCURVE",
"828 318 CURVE SMOOTH",
"828 197 OFFCURVE",
"718 107 OFFCURVE",
"564 107 CURVE SMOOTH",
"386 107 OFFCURVE",
"238 220 OFFCURVE",
"116 308 CURVE",
"223 271 LINE",
"82 271 LINE",
"151 345 LINE",
"151 45 LINE",
"125 136 LINE",
"203 59 OFFCURVE",
"353 -24 OFFCURVE",
"546 -24 CURVE SMOOTH"
);
},
{
closed = 1;
nodes = (
"1040 0 LINE",
"1040 1264 LINE",
"917 1264 LINE",
"917 0 LINE"
);
},
{
closed = 1;
nodes = (
"307 0 LINE",
"307 1264 LINE",
"184 1264 LINE",
"184 0 LINE"
);
},
{
closed = 1;
nodes = (
"957 604 LINE",
"957 714 LINE",
"271 714 LINE",
"271 604 LINE"
);
}
);
};
layerId = "7C50CCBA-16A3-49AD-BDD2-D2CF81EC55FA";
name = "Light Aug 5 16, 15:53";
paths = (
{
closed = 1;
nodes = (
"820 -24 OFFCURVE",
"980 134 OFFCURVE",
"980 344 CURVE SMOOTH",
"980 556 OFFCURVE",
"788 629 OFFCURVE",
"583 713 CURVE SMOOTH",
"390 793 OFFCURVE",
"308 850 OFFCURVE",
"308 949 CURVE SMOOTH",
"308 1095 OFFCURVE",
"405 1180 OFFCURVE",
"551 1180 CURVE SMOOTH",
"685 1180 OFFCURVE",
"743 1121 OFFCURVE",
"980 1084 CURVE",
"862 1101 LINE",
"1011 1101 LINE",
"905 1052 LINE",
"905 1273 LINE",
"977 1203 LINE",
"854 1199 OFFCURVE",
"743 1288 OFFCURVE",
"573 1288 CURVE SMOOTH",
"358 1288 OFFCURVE",
"184 1162 OFFCURVE",
"184 935 CURVE SMOOTH",
"184 709 OFFCURVE",
"414 646 OFFCURVE",
"567 586 CURVE SMOOTH",
"765 509 OFFCURVE",
"856 451 OFFCURVE",
"856 318 CURVE SMOOTH",
"856 173 OFFCURVE",
"746 83 OFFCURVE",
"564 83 CURVE SMOOTH",
"386 83 OFFCURVE",
"238 196 OFFCURVE",
"116 284 CURVE",
"223 247 LINE",
"82 247 LINE",
"151 321 LINE",
"151 45 LINE",
"125 136 LINE",
"203 59 OFFCURVE",
"353 -24 OFFCURVE",
"546 -24 CURVE SMOOTH"
);
}
);
width = 1086;
},
{
associatedMasterId = "785B6CE2-304A-4677-8076-DAC1C502AB09";
background = {
paths = (
{
closed = 1;
nodes = (
"820 -24 OFFCURVE",
"980 134 OFFCURVE",
"980 344 CURVE SMOOTH",
"980 556 OFFCURVE",
"816 629 OFFCURVE",
"611 713 CURVE SMOOTH",
"418 793 OFFCURVE",
"336 850 OFFCURVE",
"336 949 CURVE SMOOTH",
"336 1075 OFFCURVE",
"433 1156 OFFCURVE",
"551 1156 CURVE SMOOTH",
"685 1156 OFFCURVE",
"743 1097 OFFCURVE",
"980 1060 CURVE",
"862 1077 LINE",
"1011 1077 LINE",
"905 1028 LINE",
"905 1273 LINE",
"977 1203 LINE",
"854 1199 OFFCURVE",
"743 1288 OFFCURVE",
"573 1288 CURVE SMOOTH",
"358 1288 OFFCURVE",
"184 1162 OFFCURVE",
"184 935 CURVE SMOOTH",
"184 709 OFFCURVE",
"385 644 OFFCURVE",
"539 586 CURVE SMOOTH",
"737 509 OFFCURVE",
"828 451 OFFCURVE",
"828 318 CURVE SMOOTH",
"828 197 OFFCURVE",
"718 107 OFFCURVE",
"564 107 CURVE SMOOTH",
"386 107 OFFCURVE",
"238 220 OFFCURVE",
"116 308 CURVE",
"223 271 LINE",
"82 271 LINE",
"151 345 LINE",
"151 45 LINE",
"125 136 LINE",
"203 59 OFFCURVE",
"353 -24 OFFCURVE",
"546 -24 CURVE SMOOTH"
);
},
{
closed = 1;
nodes = (
"1040 0 LINE",
"1040 1264 LINE",
"917 1264 LINE",
"917 0 LINE"
);
},
{
closed = 1;
nodes = (
"307 0 LINE",
"307 1264 LINE",
"184 1264 LINE",
"184 0 LINE"
);
},
{
closed = 1;
nodes = (
"957 604 LINE",
"957 714 LINE",
"271 714 LINE",
"271 604 LINE"
);
}
);
};
layerId = "0322696A-EEBD-4BFB-AB69-2D638BC4B5DF";
name = "Light Aug 5 16, 19:55";
paths = (
{
closed = 1;
nodes = (
"806 -24 OFFCURVE",
"966 134 OFFCURVE",
"966 344 CURVE SMOOTH",
"966 552 OFFCURVE",
"774 629 OFFCURVE",
"573 713 CURVE SMOOTH",
"381 793 OFFCURVE",
"308 846 OFFCURVE",
"308 950 CURVE SMOOTH",
"308 1095 OFFCURVE",
"405 1180 OFFCURVE",
"541 1180 CURVE SMOOTH",
"661 1180 OFFCURVE",
"729 1121 OFFCURVE",
"966 1084 CURVE",
"848 1101 LINE",
"997 1101 LINE",
"891 1052 LINE",
"891 1273 LINE",
"963 1203 LINE",
"840 1199 OFFCURVE",
"719 1288 OFFCURVE",
"563 1288 CURVE SMOOTH",
"358 1288 OFFCURVE",
"184 1162 OFFCURVE",
"184 936 CURVE SMOOTH",
"184 709 OFFCURVE",
"405 646 OFFCURVE",
"557 586 CURVE SMOOTH",
"751 509 OFFCURVE",
"842 451 OFFCURVE",
"842 318 CURVE SMOOTH",
"842 173 OFFCURVE",
"732 83 OFFCURVE",
"554 83 CURVE SMOOTH",
"376 83 OFFCURVE",
"238 197 OFFCURVE",
"116 285 CURVE",
"223 248 LINE",
"82 248 LINE",
"151 322 LINE",
"151 45 LINE",
"125 136 LINE",
"203 59 OFFCURVE",
"343 -24 OFFCURVE",
"536 -24 CURVE SMOOTH"
);
}
);
width = 1060;
},
{
associatedMasterId = "785B6CE2-304A-4677-8076-DAC1C502AB09";
background = {
paths = (
{
closed = 1;
nodes = (
"806 -24 OFFCURVE",
"966 134 OFFCURVE",
"966 344 CURVE SMOOTH",
"966 552 OFFCURVE",
"774 629 OFFCURVE",
"573 713 CURVE SMOOTH",
"381 793 OFFCURVE",
"308 846 OFFCURVE",
"308 950 CURVE SMOOTH",
"308 1095 OFFCURVE",
"405 1180 OFFCURVE",
"541 1180 CURVE SMOOTH",
"661 1180 OFFCURVE",
"729 1121 OFFCURVE",
"966 1084 CURVE",
"848 1101 LINE",
"997 1101 LINE",
"891 1052 LINE",
"891 1273 LINE",
"963 1203 LINE",
"840 1199 OFFCURVE",
"719 1288 OFFCURVE",
"563 1288 CURVE SMOOTH",
"358 1288 OFFCURVE",
"184 1162 OFFCURVE",
"184 936 CURVE SMOOTH",
"184 709 OFFCURVE",
"405 646 OFFCURVE",
"557 586 CURVE SMOOTH",
"751 509 OFFCURVE",
"842 451 OFFCURVE",
"842 318 CURVE SMOOTH",
"842 173 OFFCURVE",
"732 83 OFFCURVE",
"554 83 CURVE SMOOTH",
"376 83 OFFCURVE",
"238 197 OFFCURVE",
"116 285 CURVE",
"223 248 LINE",
"82 248 LINE",
"151 322 LINE",
"151 45 LINE",
"125 136 LINE",
"203 59 OFFCURVE",
"343 -24 OFFCURVE",
"536 -24 CURVE SMOOTH"
);
},
{
closed = 1;
nodes = (
"1040 0 LINE",
"1040 1264 LINE",
"917 1264 LINE",
"917 0 LINE"
);
},
{
closed = 1;
nodes = (
"307 0 LINE",
"307 1264 LINE",
"184 1264 LINE",
"184 0 LINE"
);
},
{
closed = 1;
nodes = (
"957 604 LINE",
"957 714 LINE",
"271 714 LINE",
"271 604 LINE"
);
}
);
};
layerId = "96F3E5A9-660D-4AB4-BFFB-D7B85DFB8BE9";
name = "Light Aug 6 16, 00:11";
paths = (
{
closed = 1;
nodes = (
"806 -24 OFFCURVE",
"966 134 OFFCURVE",
"966 344 CURVE SMOOTH",
"966 554 OFFCURVE",
"774 631 OFFCURVE",
"573 715 CURVE SMOOTH",
"381 795 OFFCURVE",
"308 848 OFFCURVE",
"308 952 CURVE SMOOTH",
"308 1097 OFFCURVE",
"405 1180 OFFCURVE",
"531 1180 CURVE SMOOTH",
"661 1180 OFFCURVE",
"709 1121 OFFCURVE",
"925 1095 CURVE",
"848 1101 LINE",
"997 1101 LINE",
"891 1052 LINE",
"891 1273 LINE",
"963 1203 LINE",
"820 1199 OFFCURVE",
"719 1288 OFFCURVE",
"553 1288 CURVE SMOOTH",
"358 1288 OFFCURVE",
"184 1164 OFFCURVE",
"184 938 CURVE SMOOTH",
"184 711 OFFCURVE",
"405 648 OFFCURVE",
"557 588 CURVE SMOOTH",
"751 511 OFFCURVE",
"842 453 OFFCURVE",
"842 318 CURVE SMOOTH",
"842 173 OFFCURVE",
"732 83 OFFCURVE",
"554 83 CURVE SMOOTH",
"376 83 OFFCURVE",
"238 197 OFFCURVE",
"116 285 CURVE",
"223 248 LINE",
"82 248 LINE",
"151 322 LINE",
"151 45 LINE",
"125 136 LINE",
"203 59 OFFCURVE",
"343 -24 OFFCURVE",
"536 -24 CURVE SMOOTH"
);
}
);
width = 1060;
},
{
associatedMasterId = "785B6CE2-304A-4677-8076-DAC1C502AB09";
background = {
paths = (
{
closed = 1;
nodes = (
"806 -24 OFFCURVE",
"966 134 OFFCURVE",
"966 344 CURVE SMOOTH",
"966 552 OFFCURVE",
"774 629 OFFCURVE",
"573 713 CURVE SMOOTH",
"381 793 OFFCURVE",
"308 846 OFFCURVE",
"308 950 CURVE SMOOTH",
"308 1095 OFFCURVE",
"405 1180 OFFCURVE",
"541 1180 CURVE SMOOTH",
"661 1180 OFFCURVE",
"729 1121 OFFCURVE",
"966 1084 CURVE",
"848 1101 LINE",
"997 1101 LINE",
"891 1052 LINE",
"891 1273 LINE",
"963 1203 LINE",
"840 1199 OFFCURVE",
"719 1288 OFFCURVE",
"563 1288 CURVE SMOOTH",
"358 1288 OFFCURVE",
"184 1162 OFFCURVE",
"184 936 CURVE SMOOTH",
"184 709 OFFCURVE",
"405 646 OFFCURVE",
"557 586 CURVE SMOOTH",
"751 509 OFFCURVE",
"842 451 OFFCURVE",
"842 318 CURVE SMOOTH",
"842 173 OFFCURVE",
"732 83 OFFCURVE",
"554 83 CURVE SMOOTH",
"376 83 OFFCURVE",
"238 197 OFFCURVE",
"116 285 CURVE",
"223 248 LINE",
"82 248 LINE",
"151 322 LINE",
"151 45 LINE",
"125 136 LINE",
"203 59 OFFCURVE",
"343 -24 OFFCURVE",
"536 -24 CURVE SMOOTH"
);
},
{
closed = 1;
nodes = (
"1040 0 LINE",
"1040 1264 LINE",
"917 1264 LINE",
"917 0 LINE"
);
},
{
closed = 1;
nodes = (
"307 0 LINE",
"307 1264 LINE",
"184 1264 LINE",
"184 0 LINE"
);
},
{
closed = 1;
nodes = (
"957 604 LINE",
"957 714 LINE",
"271 714 LINE",
"271 604 LINE"
);
}
);
};
layerId = "60AB7D9A-C40A-4DC9-9621-61868D383EC2";
name = "Light Aug 6 16, 00:14";
paths = (
{
closed = 1;
nodes = (
"786 -24 OFFCURVE",
"946 134 OFFCURVE",
"946 332 CURVE SMOOTH",
"946 554 OFFCURVE",
"754 631 OFFCURVE",
"573 715 CURVE SMOOTH",
"385 802 OFFCURVE",
"308 848 OFFCURVE",
"308 964 CURVE SMOOTH",
"308 1097 OFFCURVE",
"405 1180 OFFCURVE",
"520 1180 CURVE SMOOTH",
"651 1180 OFFCURVE",
"702 1125 OFFCURVE",
"905 1105 CURVE",
"828 1111 LINE",
"977 1111 LINE",
"871 1062 LINE",
"871 1283 LINE",
"943 1213 LINE",
"813 1203 OFFCURVE",
"709 1288 OFFCURVE",
"542 1288 CURVE SMOOTH",
"358 1288 OFFCURVE",
"184 1164 OFFCURVE",
"184 950 CURVE SMOOTH",
"184 711 OFFCURVE",
"407 654 OFFCURVE",
"557 588 CURVE SMOOTH",
"731 511 OFFCURVE",
"822 453 OFFCURVE",
"822 306 CURVE SMOOTH",
"822 173 OFFCURVE",
"712 83 OFFCURVE",
"554 83 CURVE SMOOTH",
"376 83 OFFCURVE",
"238 197 OFFCURVE",
"116 285 CURVE",
"223 248 LINE",
"82 248 LINE",
"151 322 LINE",
"151 45 LINE",
"125 136 LINE",
"203 59 OFFCURVE",
"343 -24 OFFCURVE",
"536 -24 CURVE SMOOTH"
);
}
);
width = 1050;
},
{
associatedMasterId = "9D994BBA-EAF3-4FD1-99F5-B9EE3FFE0BB8";
background = {
paths = (
{
closed = 1;
nodes = (
"869 -32 OFFCURVE",
"1040 115 OFFCURVE",
"1040 366 CURVE SMOOTH",
"1040 627 OFFCURVE",
"854 700 OFFCURVE",
"663 778 CURVE SMOOTH",
"460 861 OFFCURVE",
"398 887 OFFCURVE",
"398 965 CURVE SMOOTH",
"398 1044 OFFCURVE",
"461 1085 OFFCURVE",
"565 1085 CURVE SMOOTH",
"681 1085 OFFCURVE",
"824 1036 OFFCURVE",
"920 955 CURVE",
"856 980 LINE",
"940 980 LINE",
"895 938 LINE",
"977 1239 LINE",
"1002 1178 LINE",
"925 1242 OFFCURVE",
"800 1310 OFFCURVE",
"585 1310 CURVE SMOOTH",
"257 1310 OFFCURVE",
"98 1147 OFFCURVE",
"98 913 CURVE SMOOTH",
"98 648 OFFCURVE",
"300 586 OFFCURVE",
"472 521 CURVE SMOOTH",
"676 444 OFFCURVE",
"741 395 OFFCURVE",
"741 317 CURVE SMOOTH",
"741 251 OFFCURVE",
"696 194 OFFCURVE",
"541 195 CURVE SMOOTH",
"397 197 OFFCURVE",
"200 257 OFFCURVE",
"86 342 CURVE",
"192 309 LINE",
"52 309 LINE",
"120 367 LINE",
"120 -38 LINE",
"95 52 LINE",
"175 -20 OFFCURVE",
"378 -32 OFFCURVE",
"486 -32 CURVE SMOOTH"
);
}
);
};
layerId = "86D37711-3D1F-44B0-865C-7216113AF447";
name = "Bold Aug 9 16, 21:45";
paths = (
{
closed = 1;
nodes = (
"862 -33 OFFCURVE",
"1013 112 OFFCURVE",
"1013 352 CURVE SMOOTH",
"1013 612 OFFCURVE",
"855 679 OFFCURVE",
"626 775 CURVE SMOOTH",
"423 860 OFFCURVE",
"384 900 OFFCURVE",
"384 977 CURVE SMOOTH",
"384 1059 OFFCURVE",
"441 1118 OFFCURVE",
"566 1118 CURVE SMOOTH",
"680 1118 OFFCURVE",
"824 1069 OFFCURVE",
"920 988 CURVE",
"856 1013 LINE",
"940 1013 LINE",
"895 971 LINE",
"977 1239 LINE",
"1002 1178 LINE",
"930 1238 OFFCURVE",
"804 1310 OFFCURVE",
"588 1310 CURVE SMOOTH",
"262 1310 OFFCURVE",
"116 1130 OFFCURVE",
"116 929 CURVE SMOOTH",
"116 681 OFFCURVE",
"310 601 OFFCURVE",
"508 522 CURVE SMOOTH",
"697 446 OFFCURVE",
"745 411 OFFCURVE",
"745 317 CURVE SMOOTH",
"745 223 OFFCURVE",
"698 159 OFFCURVE",
"541 162 CURVE SMOOTH",
"389 165 OFFCURVE",
"198 226 OFFCURVE",
"86 309 CURVE",
"192 276 LINE",
"52 276 LINE",
"120 334 LINE",
"120 -38 LINE",
"95 52 LINE",
"175 -20 OFFCURVE",
"378 -33 OFFCURVE",
"486 -33 CURVE SMOOTH"
);
}
);
width = 1091;
},
{
associatedMasterId = "9D994BBA-EAF3-4FD1-99F5-B9EE3FFE0BB8";
background = {
paths = (
{
closed = 1;
nodes = (
"813 -32 OFFCURVE",
"984 115 OFFCURVE",
"984 366 CURVE SMOOTH",
"984 627 OFFCURVE",
"798 700 OFFCURVE",
"607 778 CURVE SMOOTH",
"404 861 OFFCURVE",
"342 887 OFFCURVE",
"342 965 CURVE SMOOTH",
"342 1044 OFFCURVE",
"405 1085 OFFCURVE",
"509 1085 CURVE SMOOTH",
"625 1085 OFFCURVE",
"768 1036 OFFCURVE",
"864 955 CURVE",
"800 980 LINE",
"884 980 LINE",
"839 938 LINE",
"921 1239 LINE",
"946 1178 LINE",
"869 1242 OFFCURVE",
"744 1310 OFFCURVE",
"529 1310 CURVE SMOOTH",
"201 1310 OFFCURVE",
"42 1147 OFFCURVE",
"42 913 CURVE SMOOTH",
"42 648 OFFCURVE",
"244 586 OFFCURVE",
"416 521 CURVE SMOOTH",
"620 444 OFFCURVE",
"685 395 OFFCURVE",
"685 317 CURVE SMOOTH",
"685 251 OFFCURVE",
"640 194 OFFCURVE",
"485 195 CURVE SMOOTH",
"341 197 OFFCURVE",
"144 257 OFFCURVE",
"30 342 CURVE",
"136 309 LINE",
"-4 309 LINE",
"64 367 LINE",
"64 -38 LINE",
"39 52 LINE",
"119 -20 OFFCURVE",
"322 -32 OFFCURVE",
"430 -32 CURVE SMOOTH"
);
},
{
closed = 1;
nodes = (
"806 -33 OFFCURVE",
"957 112 OFFCURVE",
"957 352 CURVE SMOOTH",
"957 612 OFFCURVE",
"799 679 OFFCURVE",
"570 775 CURVE SMOOTH",
"367 860 OFFCURVE",
"328 900 OFFCURVE",
"328 977 CURVE SMOOTH",
"328 1059 OFFCURVE",
"385 1118 OFFCURVE",
"510 1118 CURVE SMOOTH",
"624 1118 OFFCURVE",
"768 1069 OFFCURVE",
"864 988 CURVE",
"800 1013 LINE",
"884 1013 LINE",
"839 971 LINE",
"921 1239 LINE",
"946 1178 LINE",
"874 1238 OFFCURVE",
"748 1310 OFFCURVE",
"532 1310 CURVE SMOOTH",
"206 1310 OFFCURVE",
"60 1130 OFFCURVE",
"60 929 CURVE SMOOTH",
"60 681 OFFCURVE",
"254 601 OFFCURVE",
"452 522 CURVE SMOOTH",
"641 446 OFFCURVE",
"689 411 OFFCURVE",
"689 317 CURVE SMOOTH",
"689 223 OFFCURVE",
"642 159 OFFCURVE",
"485 162 CURVE SMOOTH",
"333 165 OFFCURVE",
"142 226 OFFCURVE",
"30 309 CURVE",
"136 276 LINE",
"-4 276 LINE",
"64 334 LINE",
"64 -38 LINE",
"39 52 LINE",
"119 -20 OFFCURVE",
"322 -33 OFFCURVE",
"430 -33 CURVE SMOOTH"
);
}
);
};
layerId = "BF5596FB-78C0-4841-82D4-5B70192A7CD5";
name = "Bold Aug 9 16, 22:32";
paths = (
{
closed = 1;
nodes = (
"806 -33 OFFCURVE",
"957 112 OFFCURVE",
"957 352 CURVE SMOOTH",
"957 612 OFFCURVE",
"803 689 OFFCURVE",
"570 775 CURVE SMOOTH",
"367 850 OFFCURVE",
"328 890 OFFCURVE",
"328 977 CURVE SMOOTH",
"328 1059 OFFCURVE",
"385 1118 OFFCURVE",
"510 1118 CURVE SMOOTH",
"624 1118 OFFCURVE",
"768 1069 OFFCURVE",
"864 988 CURVE",
"800 1013 LINE",
"884 1013 LINE",
"839 971 LINE",
"921 1239 LINE",
"946 1178 LINE",
"874 1238 OFFCURVE",
"748 1310 OFFCURVE",
"532 1310 CURVE SMOOTH",
"206 1310 OFFCURVE",
"60 1130 OFFCURVE",
"60 929 CURVE SMOOTH",
"60 671 OFFCURVE",
"254 601 OFFCURVE",
"452 532 CURVE SMOOTH",
"644 465 OFFCURVE",
"689 411 OFFCURVE",
"689 317 CURVE SMOOTH",
"689 223 OFFCURVE",
"642 159 OFFCURVE",
"485 162 CURVE SMOOTH",
"333 165 OFFCURVE",
"142 226 OFFCURVE",
"30 309 CURVE",
"136 276 LINE",
"-4 276 LINE",
"64 334 LINE",
"64 -38 LINE",
"39 52 LINE",
"119 -20 OFFCURVE",
"322 -33 OFFCURVE",
"430 -33 CURVE SMOOTH"
);
}
);
width = 1017;
},
{
associatedMasterId = "9D994BBA-EAF3-4FD1-99F5-B9EE3FFE0BB8";
background = {
paths = (
{
closed = 1;
nodes = (
"821 -33 OFFCURVE",
"972 112 OFFCURVE",
"972 352 CURVE SMOOTH",
"972 612 OFFCURVE",
"818 689 OFFCURVE",
"585 775 CURVE SMOOTH",
"382 850 OFFCURVE",
"343 890 OFFCURVE",
"343 977 CURVE SMOOTH",
"343 1059 OFFCURVE",
"400 1105 OFFCURVE",
"525 1105 CURVE SMOOTH",
"639 1105 OFFCURVE",
"783 1066 OFFCURVE",
"879 985 CURVE",
"815 1006 LINE",
"899 1006 LINE",
"854 968 LINE",
"936 1239 LINE",
"961 1178 LINE",
"889 1238 OFFCURVE",
"763 1310 OFFCURVE",
"547 1310 CURVE SMOOTH",
"221 1310 OFFCURVE",
"75 1130 OFFCURVE",
"75 929 CURVE SMOOTH",
"75 671 OFFCURVE",
"269 601 OFFCURVE",
"467 532 CURVE SMOOTH",
"659 465 OFFCURVE",
"704 411 OFFCURVE",
"704 317 CURVE SMOOTH",
"704 223 OFFCURVE",
"657 169 OFFCURVE",
"500 172 CURVE SMOOTH",
"348 175 OFFCURVE",
"157 249 OFFCURVE",
"45 332 CURVE",
"151 299 LINE",
"11 299 LINE",
"79 357 LINE",
"79 -20 LINE",
"54 70 LINE",
"134 -2 OFFCURVE",
"337 -33 OFFCURVE",
"445 -33 CURVE SMOOTH"
);
}
);
};
layerId = "218DC7C2-0305-46E3-A828-4BC1BDC573BC";
name = "Bold Aug 9 16, 23:46";
paths = (
{
closed = 1;
nodes = (
"821 -33 OFFCURVE",
"972 112 OFFCURVE",
"972 352 CURVE SMOOTH",
"972 612 OFFCURVE",
"818 689 OFFCURVE",
"585 775 CURVE SMOOTH",
"382 850 OFFCURVE",
"343 890 OFFCURVE",
"343 977 CURVE SMOOTH",
"343 1059 OFFCURVE",
"400 1105 OFFCURVE",
"525 1105 CURVE SMOOTH",
"639 1105 OFFCURVE",
"783 1066 OFFCURVE",
"879 985 CURVE",
"815 1006 LINE",
"899 1006 LINE",
"854 968 LINE",
"936 1239 LINE",
"961 1178 LINE",
"889 1238 OFFCURVE",
"763 1310 OFFCURVE",
"547 1310 CURVE SMOOTH",
"221 1310 OFFCURVE",
"75 1130 OFFCURVE",
"75 929 CURVE SMOOTH",
"75 671 OFFCURVE",
"269 601 OFFCURVE",
"467 532 CURVE SMOOTH",
"659 465 OFFCURVE",
"704 411 OFFCURVE",
"704 317 CURVE SMOOTH",
"704 223 OFFCURVE",
"657 169 OFFCURVE",
"500 172 CURVE SMOOTH",
"348 175 OFFCURVE",
"157 266 OFFCURVE",
"45 349 CURVE",
"151 316 LINE",
"11 316 LINE",
"79 374 LINE",
"79 -5 LINE",
"54 85 LINE",
"134 13 OFFCURVE",
"337 -33 OFFCURVE",
"445 -33 CURVE SMOOTH"
);
}
);
width = 1032;
}
);
unicode = 0053;
},
{
glyphname = T;
lastChange = "2016-08-09 18:20:45 +0000";
layers = (
{
background = {
paths = (
{
closed = 1;
nodes = (
"533 0 LINE",
"533 1264 LINE",
"410 1264 LINE",
"410 0 LINE"
);
},
{
closed = 1;
nodes = (
"913 1155 LINE",
"913 1264 LINE",
"30 1264 LINE",
"30 1155 LINE"
);
}
);
};
layerId = "785B6CE2-304A-4677-8076-DAC1C502AB09";
paths = (
{
closed = 1;
nodes = (
"533 0 LINE",
"533 1264 LINE",
"410 1264 LINE",
"410 0 LINE"
);
},
{
closed = 1;
nodes = (
"894 1155 LINE",
"915 1264 LINE",
"30 1264 LINE",
"30 1155 LINE"
);
}
);
width = 943;
},
{
layerId = "9D994BBA-EAF3-4FD1-99F5-B9EE3FFE0BB8";
paths = (
{
closed = 1;
nodes = (
"604 0 LINE",
"604 1277 LINE",
"339 1277 LINE",
"339 0 LINE"
);
},
{
closed = 1;
nodes = (
"907 1062 LINE",
"939 1277 LINE",
"10 1277 LINE",
"10 1062 LINE"
);
}
);
width = 943;
}
);
leftKerningGroup = T;
unicode = 0054;
},
{
glyphname = U;
lastChange = "2016-08-14 16:25:06 +0000";
layers = (
{
anchors = (
{
name = bottom;
position = "{630, 0}";
},
{
name = ogonek;
position = "{720, 0}";
},
{
name = top;
position = "{630, 1264}";
},
{
name = topright;
position = "{1240, 1264}";
}
);
background = {
paths = (
{
closed = 1;
nodes = (
"888 -24 OFFCURVE",
"1060 141 OFFCURVE",
"1060 419 CURVE SMOOTH",
"1060 1264 LINE",
"937 1264 LINE",
"937 430 LINE SMOOTH",
"937 174 OFFCURVE",
"795 86 OFFCURVE",
"630 86 CURVE SMOOTH",
"465 86 OFFCURVE",
"323 176 OFFCURVE",
"323 432 CURVE SMOOTH",
"323 1264 LINE",
"200 1264 LINE",
"200 419 LINE SMOOTH",
"200 141 OFFCURVE",
"372 -24 OFFCURVE",
"630 -24 CURVE SMOOTH"
);
}
);
};
layerId = "785B6CE2-304A-4677-8076-DAC1C502AB09";
paths = (
{
closed = 1;
nodes = (
"888 -24 OFFCURVE",
"1060 141 OFFCURVE",
"1060 419 CURVE SMOOTH",
"1060 1264 LINE",
"937 1264 LINE",
"937 430 LINE SMOOTH",
"937 174 OFFCURVE",
"795 86 OFFCURVE",
"630 86 CURVE SMOOTH",
"465 86 OFFCURVE",
"323 176 OFFCURVE",
"323 432 CURVE SMOOTH",
"323 1264 LINE",
"200 1264 LINE",
"200 419 LINE SMOOTH",
"200 127 OFFCURVE",
"362 -24 OFFCURVE",
"630 -24 CURVE SMOOTH"
);
}
);
width = 1260;
},
{
anchors = (
{
name = bottom;
position = "{630, 0}";
},
{
name = ogonek;
position = "{728, 0}";
},
{
name = top;
position = "{630, 1277}";
},
{
name = topright;
position = "{1240, 1277}";
}
);
background = {
paths = (
{
closed = 1;
nodes = (
"888 -24 OFFCURVE",
"1060 141 OFFCURVE",
"1060 419 CURVE SMOOTH",
"1060 1264 LINE",
"937 1264 LINE",
"937 430 LINE SMOOTH",
"937 174 OFFCURVE",
"795 86 OFFCURVE",
"630 86 CURVE SMOOTH",
"465 86 OFFCURVE",
"323 176 OFFCURVE",
"323 432 CURVE SMOOTH",
"323 1264 LINE",
"200 1264 LINE",
"200 419 LINE SMOOTH",
"200 127 OFFCURVE",
"362 -24 OFFCURVE",
"630 -24 CURVE SMOOTH"
);
}
);
};
layerId = "9D994BBA-EAF3-4FD1-99F5-B9EE3FFE0BB8";
paths = (
{
closed = 1;
nodes = (
"951 -33 OFFCURVE",
"1123 157 OFFCURVE",
"1123 419 CURVE SMOOTH",
"1123 1277 LINE",
"862 1277 LINE",
"862 430 LINE SMOOTH",
"862 263 OFFCURVE",
"795 184 OFFCURVE",
"630 184 CURVE SMOOTH",
"497 184 OFFCURVE",
"400 265 OFFCURVE",
"400 432 CURVE SMOOTH",
"400 1277 LINE",
"136 1277 LINE",
"136 419 LINE SMOOTH",
"136 143 OFFCURVE",
"298 -33 OFFCURVE",
"630 -33 CURVE SMOOTH"
);
}
);
width = 1260;
}
);
unicode = 0055;
},
{
glyphname = V;
lastChange = "2016-08-09 23:16:14 +0000";
layers = (
{
background = {
paths = (
{
closed = 1;
nodes = (
"398 280 LINE",
"533 280 LINE",
"890 1264 LINE",
"767 1264 LINE",
"475 426 LINE",
"456 373 LINE",
"484 372 LINE",
"468 425 LINE",
"170 1264 LINE",
"41 1264 LINE"
);
}
);
};
layerId = "785B6CE2-304A-4677-8076-DAC1C502AB09";
paths = (
{
closed = 1;
nodes = (
"636 0 LINE",
"1091 1264 LINE",
"964 1264 LINE",
"574 151 LINE",
"555 98 LINE",
"583 97 LINE",
"567 150 LINE",
"170 1264 LINE",
"40 1264 LINE",
"496 0 LINE"
);
}
);
width = 1131;
},
{
background = {
paths = (
{
closed = 1;
nodes = (
"760 0 LINE",
"1202 1277 LINE",
"951 1277 LINE",
"643 318 LINE",
"579 93 LINE",
"667 92 LINE",
"606 318 LINE",
"296 1277 LINE",
"24 1277 LINE",
"455 0 LINE"
);
},
{
closed = 1;
nodes = (
"1191 1217 OFFCURVE",
"1196 1236 OFFCURVE",
"1199 1250 CURVE",
"1203 1278 OFFCURVE",
"1192 1293 OFFCURVE",
"1158 1297 CURVE SMOOTH",
"1141 1299 OFFCURVE",
"1117 1300 OFFCURVE",
"1086 1300 CURVE SMOOTH",
"1055 1300 OFFCURVE",
"1030 1299 OFFCURVE",
"1012 1298 CURVE SMOOTH",
"994 1297 OFFCURVE",
"980 1294 OFFCURVE",
"971 1290 CURVE",
"951 1282 OFFCURVE",
"945 1269 OFFCURVE",
"940 1246 CURVE",
"631 253 LINE",
"630 253 LINE",
"315 1251 LINE SMOOTH",
"312 1261 OFFCURVE",
"308 1269 OFFCURVE",
"305 1276 CURVE",
"297 1289 OFFCURVE",
"280 1296 OFFCURVE",
"245 1298 CURVE SMOOTH",
"228 1299 OFFCURVE",
"204 1300 OFFCURVE",
"173 1300 CURVE SMOOTH",
"137 1300 OFFCURVE",
"109 1299 OFFCURVE",
"89 1298 CURVE",
"49 1294 OFFCURVE",
"33 1281 OFFCURVE",
"37 1253 CURVE",
"38 1239 OFFCURVE",
"43 1220 OFFCURVE",
"51 1196 CURVE SMOOTH",
"436 49 LINE",
"441 32 OFFCURVE",
"446 21 OFFCURVE",
"458 13 CURVE",
"469 5 OFFCURVE",
"484 0 OFFCURVE",
"511 -3 CURVE SMOOTH",
"538 -6 OFFCURVE",
"575 -6 OFFCURVE",
"628 -6 CURVE SMOOTH",
"695 -6 OFFCURVE",
"734 -5 OFFCURVE",
"758 3 CURVE",
"782 10 OFFCURVE",
"789 23 OFFCURVE",
"797 46 CURVE SMOOTH",
"1183 1194 LINE SMOOTH"
);
}
);
};
layerId = "9D994BBA-EAF3-4FD1-99F5-B9EE3FFE0BB8";
paths = (
{
closed = 1;
nodes = (
"774 0 LINE",
"1216 1277 LINE",
"951 1277 LINE",
"643 318 LINE",
"579 93 LINE",
"667 92 LINE",
"606 318 LINE",
"296 1277 LINE",
"14 1277 LINE",
"445 0 LINE"
);
}
);
width = 1226;
}
);
unicode = 0056;
},
{
glyphname = W;
lastChange = "2016-08-19 03:18:06 +0000";
layers = (
{
background = {
paths = (
{
closed = 1;
nodes = (
"398 0 LINE",
"552 0 LINE",
"690 435 LINE SMOOTH",
"731 565 OFFCURVE",
"826 900 OFFCURVE",
"848 1032 CURVE",
"809 1007 LINE",
"835 875 OFFCURVE",
"915 570 OFFCURVE",
"951 435 CURVE SMOOTH",
"1066 0 LINE",
"1221 0 LINE",
"1560 1264 LINE",
"1438 1264 LINE",
"1138 54 LINE",
"1168 60 LINE",
"853 1264 LINE",
"718 1264 LINE",
"818 949 LINE",
"781 1130 LINE",
"473 82 LINE",
"493 82 LINE",
"188 1264 LINE",
"58 1264 LINE"
);
}
);
};
layerId = "785B6CE2-304A-4677-8076-DAC1C502AB09";
paths = (
{
closed = 1;
nodes = (
"398 0 LINE",
"552 0 LINE",
"680 435 LINE SMOOTH",
"718 565 OFFCURVE",
"820 900 OFFCURVE",
"842 1032 CURVE",
"817 1007 LINE",
"843 875 OFFCURVE",
"926 571 OFFCURVE",
"959 435 CURVE SMOOTH",
"1066 0 LINE",
"1221 0 LINE",
"1560 1264 LINE",
"1438 1264 LINE",
"1138 54 LINE",
"1168 60 LINE",
"863 1264 LINE",
"733 1264 LINE",
"818 949 LINE",
"771 1130 LINE",
"473 82 LINE",
"493 82 LINE",
"188 1264 LINE",
"58 1264 LINE"
);
}
);
width = 1612;
},
{
background = {
paths = (
{
closed = 1;
nodes = (
"362 0 LINE",
"674 0 LINE",
"802 435 LINE SMOOTH",
"840 565 OFFCURVE",
"867 754 OFFCURVE",
"889 886 CURVE",
"829 876 LINE",
"851 744 OFFCURVE",
"883 571 OFFCURVE",
"916 435 CURVE SMOOTH",
"1023 0 LINE",
"1335 0 LINE",
"1707 1277 LINE",
"1440 1277 LINE",
"1160 149 LINE",
"1221 149 LINE",
"950 1277 LINE",
"680 1277 LINE",
"778 949 LINE",
"786 1150 LINE",
"507 150 LINE",
"567 149 LINE",
"276 1277 LINE",
"-3 1277 LINE"
);
}
);
};
layerId = "9D994BBA-EAF3-4FD1-99F5-B9EE3FFE0BB8";
paths = (
{
closed = 1;
nodes = (
"358 0 LINE",
"674 0 LINE",
"802 435 LINE SMOOTH",
"840 565 OFFCURVE",
"867 754 OFFCURVE",
"889 886 CURVE",
"829 876 LINE",
"851 744 OFFCURVE",
"883 571 OFFCURVE",
"916 435 CURVE SMOOTH",
"1023 0 LINE",
"1339 0 LINE",
"1711 1277 LINE",
"1440 1277 LINE",
"1160 149 LINE",
"1221 149 LINE",
"950 1277 LINE",
"680 1277 LINE",
"778 949 LINE",
"778 1150 LINE",
"499 150 LINE",
"567 149 LINE",
"276 1277 LINE",
"-7 1277 LINE"
);
}
);
width = 1714;
},
{
associatedMasterId = "785B6CE2-304A-4677-8076-DAC1C502AB09";
background = {
paths = (
{
closed = 1;
nodes = (
"642 0 LINE",
"910 984 LINE",
"800 984 LINE",
"572 104 LINE",
"577 104 LINE",
"358 984 LINE",
"230 984 LINE",
"490 0 LINE"
);
},
{
closed = 1;
nodes = (
"1223 0 LINE",
"1483 984 LINE",
"1363 984 LINE",
"1145 104 LINE",
"1152 104 LINE",
"929 984 LINE",
"817 984 LINE",
"1071 0 LINE"
);
}
);
};
layerId = "9F36FB6B-D33B-4162-A12C-35E6523B2F89";
name = "Light Aug 3 16, 10:32";
paths = (
{
closed = 1;
nodes = (
"542 0 LINE",
"855 1264 LINE",
"745 1264 LINE",
"472 104 LINE",
"477 104 LINE",
"188 1264 LINE",
"60 1264 LINE",
"390 0 LINE"
);
},
{
closed = 1;
nodes = (
"1223 0 LINE",
"1552 1264 LINE",
"1432 1264 LINE",
"1145 104 LINE",
"1152 104 LINE",
"874 1264 LINE",
"762 1264 LINE",
"1071 0 LINE"
);
}
);
width = 1612;
},
{
associatedMasterId = "785B6CE2-304A-4677-8076-DAC1C502AB09";
background = {
paths = (
{
closed = 1;
nodes = (
"642 0 LINE",
"910 984 LINE",
"800 984 LINE",
"572 104 LINE",
"577 104 LINE",
"358 984 LINE",
"230 984 LINE",
"490 0 LINE"
);
},
{
closed = 1;
nodes = (
"1223 0 LINE",
"1483 984 LINE",
"1363 984 LINE",
"1145 104 LINE",
"1152 104 LINE",
"929 984 LINE",
"817 984 LINE",
"1071 0 LINE"
);
}
);
};
layerId = "8D5221AF-7BD8-47D2-A098-30E30EB4939D";
name = "Light Aug 5 16, 19:42";
paths = (
{
closed = 1;
nodes = (
"542 0 LINE",
"855 1264 LINE",
"744 1264 LINE",
"471 104 LINE",
"477 104 LINE",
"188 1264 LINE",
"58 1264 LINE",
"388 0 LINE"
);
},
{
closed = 1;
nodes = (
"1231 0 LINE",
"1560 1264 LINE",
"1439 1264 LINE",
"1152 104 LINE",
"1161 104 LINE",
"876 1264 LINE",
"760 1264 LINE",
"1076 0 LINE"
);
}
);
width = 1612;
},
{
associatedMasterId = "785B6CE2-304A-4677-8076-DAC1C502AB09";
background = {
paths = (
{
closed = 1;
nodes = (
"785 655 LINE",
"1006 0 LINE",
"1161 0 LINE",
"1560 1264 LINE",
"1439 1264 LINE",
"1082 104 LINE",
"1091 104 LINE",
"860 781 LINE"
);
},
{
closed = 1;
nodes = (
"850 781 LINE",
"686 1264 LINE",
"570 1264 LINE",
"775 655 LINE"
);
},
{
closed = 1;
nodes = (
"800 867 LINE",
"541 104 LINE",
"547 104 LINE",
"188 1264 LINE",
"58 1264 LINE",
"458 0 LINE",
"612 0 LINE",
"859 721 LINE"
);
},
{
closed = 1;
nodes = (
"854 678 LINE",
"1055 1264 LINE",
"944 1264 LINE",
"795 824 LINE"
);
}
);
};
layerId = "C64D18B5-C16A-4233-B431-0DE63A9A609E";
name = "Light Aug 5 16, 19:58";
paths = (
{
closed = 1;
nodes = (
"542 0 LINE",
"855 1264 LINE",
"744 1264 LINE",
"471 104 LINE",
"477 104 LINE",
"188 1264 LINE",
"58 1264 LINE",
"388 0 LINE"
);
},
{
closed = 1;
nodes = (
"1231 0 LINE",
"1560 1264 LINE",
"1439 1264 LINE",
"1152 104 LINE",
"1161 104 LINE",
"876 1264 LINE",
"760 1264 LINE",
"1076 0 LINE"
);
}
);
width = 1612;
},
{
associatedMasterId = "9D994BBA-EAF3-4FD1-99F5-B9EE3FFE0BB8";
background = {
paths = (
{
closed = 1;
nodes = (
"595 0 LINE",
"908 1264 LINE",
"797 1264 LINE",
"524 104 LINE",
"530 104 LINE",
"241 1264 LINE",
"111 1264 LINE",
"441 0 LINE"
);
},
{
closed = 1;
nodes = (
"1284 0 LINE",
"1613 1264 LINE",
"1492 1264 LINE",
"1205 104 LINE",
"1214 104 LINE",
"929 1264 LINE",
"813 1264 LINE",
"1129 0 LINE"
);
}
);
};
layerId = "7E829C6E-5904-411F-BBFF-E6B17755267E";
name = "Bold Aug 9 16, 17:18";
paths = (
{
closed = 1;
nodes = (
"369 0 LINE",
"674 0 LINE",
"973 1032 LINE",
"793 1277 LINE",
"538 260 LINE",
"296 1277 LINE",
"24 1277 LINE"
);
},
{
closed = 1;
nodes = (
"1023 0 LINE",
"1328 0 LINE",
"1690 1277 LINE",
"1439 1277 LINE",
"1192 260 LINE",
"932 1277 LINE",
"660 1277 LINE"
);
}
);
width = 1714;
},
{
associatedMasterId = "9D994BBA-EAF3-4FD1-99F5-B9EE3FFE0BB8";
background = {
paths = (
{
closed = 1;
nodes = (
"595 0 LINE",
"908 1264 LINE",
"797 1264 LINE",
"524 104 LINE",
"530 104 LINE",
"241 1264 LINE",
"111 1264 LINE",
"441 0 LINE"
);
},
{
closed = 1;
nodes = (
"1284 0 LINE",
"1613 1264 LINE",
"1492 1264 LINE",
"1205 104 LINE",
"1214 104 LINE",
"929 1264 LINE",
"813 1264 LINE",
"1129 0 LINE"
);
}
);
};
layerId = "C5C2A0F8-89CD-4F5C-91EE-EC2DFC11C5C8";
name = "Bold Aug 9 16, 21:44";
paths = (
{
closed = 1;
nodes = (
"369 0 LINE",
"674 0 LINE",
"792 435 LINE SMOOTH",
"828 566 OFFCURVE",
"857 744 OFFCURVE",
"879 876 CURVE",
"819 876 LINE",
"841 744 OFFCURVE",
"870 570 OFFCURVE",
"906 435 CURVE SMOOTH",
"1023 0 LINE",
"1328 0 LINE",
"1690 1277 LINE",
"1439 1277 LINE",
"1192 260 LINE",
"932 1277 LINE",
"680 1277 LINE",
"778 949 LINE",
"776 1140 LINE",
"538 260 LINE",
"276 1277 LINE",
"4 1277 LINE"
);
}
);
width = 1714;
},
{
associatedMasterId = "785B6CE2-304A-4677-8076-DAC1C502AB09";
background = {
paths = (
{
closed = 1;
nodes = (
"552 0 LINE",
"840 1011 LINE",
"775 1164 LINE",
"481 104 LINE",
"487 104 LINE",
"188 1264 LINE",
"58 1264 LINE",
"398 0 LINE"
);
},
{
closed = 1;
nodes = (
"1221 0 LINE",
"1560 1264 LINE",
"1439 1264 LINE",
"1142 104 LINE",
"1151 104 LINE",
"806 1264 LINE",
"690 1264 LINE",
"1066 0 LINE"
);
}
);
};
layerId = "3909CA7E-0C12-4C82-B0AA-3846BE4EC5C9";
name = "Light Aug 11 16, 09:36";
paths = (
{
closed = 1;
nodes = (
"542 0 LINE",
"855 1264 LINE",
"744 1264 LINE",
"471 104 LINE",
"477 104 LINE",
"188 1264 LINE",
"58 1264 LINE",
"388 0 LINE"
);
},
{
closed = 1;
nodes = (
"1231 0 LINE",
"1560 1264 LINE",
"1439 1264 LINE",
"1152 104 LINE",
"1161 104 LINE",
"876 1264 LINE",
"760 1264 LINE",
"1076 0 LINE"
);
}
);
width = 1612;
},
{
associatedMasterId = "785B6CE2-304A-4677-8076-DAC1C502AB09";
background = {
paths = (
{
closed = 1;
nodes = (
"398 0 LINE",
"552 0 LINE",
"680 435 LINE SMOOTH",
"718 565 OFFCURVE",
"820 900 OFFCURVE",
"842 1032 CURVE",
"817 1007 LINE",
"843 875 OFFCURVE",
"926 571 OFFCURVE",
"959 435 CURVE SMOOTH",
"1066 0 LINE",
"1221 0 LINE",
"1560 1264 LINE",
"1438 1264 LINE",
"1138 54 LINE",
"1168 60 LINE",
"863 1264 LINE",
"724 1264 LINE",
"818 949 LINE",
"771 1130 LINE",
"473 82 LINE",
"493 82 LINE",
"188 1264 LINE",
"58 1264 LINE"
);
}
);
};
layerId = "40B8F5A7-CC5E-4C9D-A98B-6827ECDD7188";
name = "Light Aug 19 16, 04:24";
paths = (
{
closed = 1;
nodes = (
"398 0 LINE",
"552 0 LINE",
"680 435 LINE SMOOTH",
"718 565 OFFCURVE",
"820 900 OFFCURVE",
"842 1032 CURVE",
"817 1007 LINE",
"843 875 OFFCURVE",
"926 571 OFFCURVE",
"959 435 CURVE SMOOTH",
"1066 0 LINE",
"1221 0 LINE",
"1560 1264 LINE",
"1438 1264 LINE",
"1138 54 LINE",
"1168 60 LINE",
"863 1264 LINE",
"724 1264 LINE",
"818 949 LINE",
"771 1130 LINE",
"473 82 LINE",
"493 82 LINE",
"188 1264 LINE",
"58 1264 LINE"
);
}
);
width = 1612;
}
);
leftKerningGroup = W;
unicode = 0057;
},
{
glyphname = X;
lastChange = "2016-08-09 23:15:08 +0000";
layers = (
{
background = {
paths = (
{
closed = 1;
nodes = (
"938 0 LINE",
"938 1264 LINE",
"815 1264 LINE",
"815 0 LINE"
);
},
{
closed = 1;
nodes = (
"205 0 LINE",
"205 1264 LINE",
"82 1264 LINE",
"82 0 LINE"
);
},
{
closed = 1;
nodes = (
"855 604 LINE",
"855 714 LINE",
"169 714 LINE",
"169 604 LINE"
);
}
);
};
layerId = "785B6CE2-304A-4677-8076-DAC1C502AB09";
paths = (
{
closed = 1;
nodes = (
"172 0 LINE",
"544 637 LINE",
"484 755 LINE",
"34 0 LINE"
);
},
{
closed = 1;
nodes = (
"992 0 LINE",
"586 694 LINE",
"507 590 LINE",
"854 0 LINE"
);
},
{
closed = 1;
nodes = (
"562 694 LINE",
"228 1264 LINE",
"90 1264 LINE",
"484 590 LINE"
);
},
{
closed = 1;
nodes = (
"954 1264 LINE",
"817 1264 LINE",
"485 696 LINE",
"543 578 LINE"
);
}
);
width = 1026;
},
{
background = {
paths = (
{
closed = 1;
nodes = (
"289 0 LINE",
"692 686 LINE",
"470 778 LINE",
"0 0 LINE"
);
},
{
closed = 1;
nodes = (
"1157 0 LINE",
"750 690 LINE",
"496 609 LINE",
"851 0 LINE"
);
},
{
closed = 1;
nodes = (
"671 717 LINE",
"344 1277 LINE",
"42 1277 LINE",
"421 636 LINE"
);
},
{
closed = 1;
nodes = (
"1117 1277 LINE",
"836 1277 LINE",
"499 699 LINE",
"713 607 LINE"
);
}
);
};
layerId = "9D994BBA-EAF3-4FD1-99F5-B9EE3FFE0BB8";
paths = (
{
closed = 1;
nodes = (
"289 0 LINE",
"692 686 LINE",
"470 778 LINE",
"0 0 LINE"
);
},
{
closed = 1;
nodes = (
"1157 0 LINE",
"750 690 LINE",
"496 609 LINE",
"851 0 LINE"
);
},
{
closed = 1;
nodes = (
"671 717 LINE",
"344 1277 LINE",
"42 1277 LINE",
"421 636 LINE"
);
},
{
closed = 1;
nodes = (
"1117 1277 LINE",
"836 1277 LINE",
"499 699 LINE",
"713 607 LINE"
);
}
);
width = 1157;
},
{
associatedMasterId = "785B6CE2-304A-4677-8076-DAC1C502AB09";
background = {
paths = (
{
closed = 1;
nodes = (
"992 0 LINE",
"992 1264 LINE",
"869 1264 LINE",
"869 0 LINE"
);
},
{
closed = 1;
nodes = (
"259 0 LINE",
"259 1264 LINE",
"136 1264 LINE",
"136 0 LINE"
);
},
{
closed = 1;
nodes = (
"909 604 LINE",
"909 714 LINE",
"223 714 LINE",
"223 604 LINE"
);
}
);
};
layerId = "DA21A985-1995-441E-8D17-A32FDA04858E";
name = "Light Aug 5 16, 17:37";
paths = (
{
closed = 1;
nodes = (
"174 0 LINE",
"586 637 LINE",
"532 755 LINE",
"34 0 LINE"
);
},
{
closed = 1;
nodes = (
"1063 0 LINE",
"613 694 LINE",
"540 590 LINE",
"923 0 LINE"
);
},
{
closed = 1;
nodes = (
"588 694 LINE",
"218 1264 LINE",
"78 1264 LINE",
"514 590 LINE"
);
},
{
closed = 1;
nodes = (
"1040 1264 LINE",
"902 1264 LINE",
"534 696 LINE",
"585 578 LINE"
);
}
);
width = 1097;
},
{
associatedMasterId = "9D994BBA-EAF3-4FD1-99F5-B9EE3FFE0BB8";
background = {
paths = (
{
closed = 1;
nodes = (
"232 0 LINE",
"604 637 LINE",
"544 755 LINE",
"94 0 LINE"
);
},
{
closed = 1;
nodes = (
"1052 0 LINE",
"646 694 LINE",
"567 590 LINE",
"914 0 LINE"
);
},
{
closed = 1;
nodes = (
"622 694 LINE",
"288 1264 LINE",
"150 1264 LINE",
"544 590 LINE"
);
},
{
closed = 1;
nodes = (
"1014 1264 LINE",
"877 1264 LINE",
"545 696 LINE",
"603 578 LINE"
);
},
{
closed = 1;
nodes = (
"273 0 LINE",
"564 496 LINE",
"388 588 LINE",
"30 0 LINE"
);
},
{
closed = 1;
nodes = (
"969 0 LINE",
"649 540 LINE",
"443 459 LINE",
"711 0 LINE"
);
},
{
closed = 1;
nodes = (
"579 540 LINE",
"313 997 LINE",
"55 997 LINE",
"373 459 LINE"
);
},
{
closed = 1;
nodes = (
"935 997 LINE",
"704 997 LINE",
"439 542 LINE",
"603 450 LINE"
);
}
);
};
layerId = "6E92C141-D3B3-4D83-B200-20F56ED7984B";
name = "Bold Aug 9 16, 21:01";
paths = (
{
closed = 1;
nodes = (
"273 0 LINE",
"676 686 LINE",
"480 778 LINE",
"10 0 LINE"
);
},
{
closed = 1;
nodes = (
"1141 0 LINE",
"734 690 LINE",
"510 609 LINE",
"865 0 LINE"
);
},
{
closed = 1;
nodes = (
"655 717 LINE",
"328 1277 LINE",
"52 1277 LINE",
"431 636 LINE"
);
},
{
closed = 1;
nodes = (
"1101 1277 LINE",
"850 1277 LINE",
"513 699 LINE",
"697 607 LINE"
);
}
);
width = 1151;
}
);
unicode = 0058;
},
{
glyphname = Y;
lastChange = "2016-08-11 07:50:58 +0000";
layers = (
{
anchors = (
{
name = bottom;
position = "{517, 0}";
},
{
name = top;
position = "{517, 1264}";
},
{
name = topleft;
position = "{20, 1264}";
}
);
background = {
paths = (
{
closed = 1;
nodes = (
"911 0 LINE",
"911 1264 LINE",
"788 1264 LINE",
"788 0 LINE"
);
},
{
closed = 1;
nodes = (
"178 0 LINE",
"178 1264 LINE",
"55 1264 LINE",
"55 0 LINE"
);
},
{
closed = 1;
nodes = (
"828 604 LINE",
"828 714 LINE",
"142 714 LINE",
"142 604 LINE"
);
}
);
};
layerId = "785B6CE2-304A-4677-8076-DAC1C502AB09";
paths = (
{
closed = 1;
nodes = (
"573 0 LINE",
"573 532 LINE",
"548 430 LINE",
"994 1264 LINE",
"857 1264 LINE",
"566 694 LINE",
"496 543 LINE",
"540 543 LINE",
"470 694 LINE",
"178 1264 LINE",
"40 1264 LINE",
"475 431 LINE",
"450 533 LINE",
"450 0 LINE"
);
}
);
width = 1034;
},
{
anchors = (
{
name = bottom;
position = "{519, 0}";
},
{
name = top;
position = "{519, 1277}";
},
{
name = topleft;
position = "{20, 1277}";
}
);
layerId = "9D994BBA-EAF3-4FD1-99F5-B9EE3FFE0BB8";
paths = (
{
closed = 1;
nodes = (
"656 0 LINE",
"656 592 LINE",
"637 377 LINE",
"1058 1277 LINE",
"787 1277 LINE",
"558 745 LINE",
"490 503 LINE",
"571 503 LINE",
"504 745 LINE",
"272 1277 LINE",
"-20 1277 LINE",
"410 378 LINE",
"391 593 LINE",
"391 0 LINE"
);
}
);
width = 1038;
},
{
associatedMasterId = "785B6CE2-304A-4677-8076-DAC1C502AB09";
background = {
paths = (
{
closed = 1;
nodes = (
"961 0 LINE",
"961 1264 LINE",
"838 1264 LINE",
"838 0 LINE"
);
},
{
closed = 1;
nodes = (
"228 0 LINE",
"228 1264 LINE",
"105 1264 LINE",
"105 0 LINE"
);
},
{
closed = 1;
nodes = (
"878 604 LINE",
"878 714 LINE",
"192 714 LINE",
"192 604 LINE"
);
}
);
};
layerId = "7650C0A3-D015-49DE-9066-C2059B2057F6";
name = "Light Aug 6 16, 00:22";
paths = (
{
closed = 1;
nodes = (
"455 479.343 LINE",
"455 0 LINE",
"578 0 LINE",
"578 478.151 LINE",
"954 1264 LINE",
"817 1264 LINE",
"571 714 LINE",
"501 543 LINE",
"545 543 LINE",
"475 714 LINE",
"228 1264 LINE",
"90 1264 LINE"
);
}
);
width = 1026;
},
{
associatedMasterId = "9D994BBA-EAF3-4FD1-99F5-B9EE3FFE0BB8";
background = {
paths = (
{
closed = 1;
nodes = (
"802 0 LINE",
"1186 1277 LINE",
"935 1277 LINE",
"685 318 LINE",
"621 93 LINE",
"709 92 LINE",
"648 318 LINE",
"280 1277 LINE",
"8 1277 LINE",
"497 0 LINE"
);
}
);
};
layerId = "B6E3F1FA-531A-4EDD-8B15-591858AEFB8B";
name = "Bold Aug 9 16, 23:16";
paths = (
{
closed = 1;
nodes = (
"398 378 LINE",
"379 593 LINE",
"379 0 LINE",
"644 0 LINE",
"644 592 LINE",
"625 377 LINE",
"1006 1277 LINE",
"755 1277 LINE",
"546 745 LINE",
"478 503 LINE",
"559 503 LINE",
"492 745 LINE",
"280 1277 LINE",
"8 1277 LINE"
);
}
);
width = 1034;
}
);
leftKerningGroup = Y;
unicode = 0059;
},
{
glyphname = Z;
lastChange = "2016-08-10 01:29:35 +0000";
layers = (
{
anchors = (
{
name = bottom;
position = "{496, 0}";
},
{
name = top;
position = "{496, 1264}";
}
);
background = {
paths = (
{
closed = 1;
nodes = (
"966 0 LINE",
"966 1264 LINE",
"843 1264 LINE",
"843 0 LINE"
);
},
{
closed = 1;
nodes = (
"233 0 LINE",
"233 1264 LINE",
"110 1264 LINE",
"110 0 LINE"
);
},
{
closed = 1;
nodes = (
"883 604 LINE",
"883 714 LINE",
"197 714 LINE",
"197 604 LINE"
);
}
);
};
layerId = "785B6CE2-304A-4677-8076-DAC1C502AB09";
paths = (
{
closed = 1;
nodes = (
"911 0 LINE",
"911 110 LINE",
"186 110 LINE",
"212 64 LINE",
"912 1200 LINE",
"887 1100 LINE",
"887 1318 LINE",
"938 1264 LINE",
"123 1264 LINE",
"123 1154 LINE",
"808 1154 LINE",
"782 1200 LINE",
"82 64 LINE",
"107 164 LINE",
"107 -54 LINE",
"56 0 LINE"
);
}
);
width = 991;
},
{
anchors = (
{
name = bottom;
position = "{500, 0}";
},
{
name = top;
position = "{510, 1277}";
}
);
background = {
paths = (
{
closed = 1;
nodes = (
"891 0 LINE",
"891 110 LINE",
"166 110 LINE",
"192 64 LINE",
"892 1200 LINE",
"867 1100 LINE",
"867 1318 LINE",
"918 1264 LINE",
"103 1264 LINE",
"103 1154 LINE",
"788 1154 LINE",
"762 1200 LINE",
"62 64 LINE",
"87 164 LINE",
"87 -54 LINE",
"36 0 LINE"
);
}
);
};
layerId = "9D994BBA-EAF3-4FD1-99F5-B9EE3FFE0BB8";
paths = (
{
closed = 1;
nodes = (
"927 0 LINE",
"959 212 LINE",
"236 212 LINE",
"262 64 LINE",
"1032 1213 LINE",
"935 950 LINE",
"935 1331 LINE",
"1058 1277 LINE",
"81 1277 LINE",
"81 1067 LINE",
"768 1067 LINE",
"740 1213 LINE",
"-30 64 LINE",
"50 285 LINE",
"50 -54 LINE",
"-56 0 LINE"
);
}
);
width = 999;
},
{
associatedMasterId = "9D994BBA-EAF3-4FD1-99F5-B9EE3FFE0BB8";
background = {
paths = (
{
closed = 1;
nodes = (
"911 0 LINE",
"911 110 LINE",
"186 110 LINE",
"212 64 LINE",
"912 1200 LINE",
"887 1100 LINE",
"887 1318 LINE",
"938 1264 LINE",
"123 1264 LINE",
"123 1154 LINE",
"808 1154 LINE",
"782 1200 LINE",
"82 64 LINE",
"107 164 LINE",
"107 -54 LINE",
"56 0 LINE"
);
}
);
};
layerId = "5F1A9DBC-BCC1-4A65-AF5D-DEA89C603942";
name = "Bold Aug 9 16, 21:46";
paths = (
{
closed = 1;
nodes = (
"929 0 LINE",
"929 212 LINE",
"266 212 LINE",
"292 64 LINE",
"992 1200 LINE",
"895 937 LINE",
"895 1318 LINE",
"1018 1264 LINE",
"101 1264 LINE",
"101 1054 LINE",
"728 1054 LINE",
"700 1200 LINE",
"0 64 LINE",
"80 285 LINE",
"80 -54 LINE",
"-26 0 LINE"
);
}
);
width = 991;
},
{
associatedMasterId = "9D994BBA-EAF3-4FD1-99F5-B9EE3FFE0BB8";
background = {
paths = (
{
closed = 1;
nodes = (
"911 0 LINE",
"911 110 LINE",
"186 110 LINE",
"212 64 LINE",
"912 1200 LINE",
"887 1100 LINE",
"887 1318 LINE",
"938 1264 LINE",
"123 1264 LINE",
"123 1154 LINE",
"808 1154 LINE",
"782 1200 LINE",
"82 64 LINE",
"107 164 LINE",
"107 -54 LINE",
"56 0 LINE"
);
}
);
};
layerId = "33EB1C24-CFF5-4C1D-BB64-0A3DADD08028";
name = "Bold Aug 9 16, 21:48";
paths = (
{
closed = 1;
nodes = (
"899 0 LINE",
"929 212 LINE",
"266 212 LINE",
"292 64 LINE",
"992 1200 LINE",
"895 937 LINE",
"895 1318 LINE",
"1018 1264 LINE",
"101 1264 LINE",
"101 1054 LINE",
"728 1054 LINE",
"700 1200 LINE",
"0 64 LINE",
"80 285 LINE",
"80 -54 LINE",
"-26 0 LINE"
);
}
);
width = 991;
},
{
associatedMasterId = "9D994BBA-EAF3-4FD1-99F5-B9EE3FFE0BB8";
background = {
paths = (
{
closed = 1;
nodes = (
"891 0 LINE",
"891 110 LINE",
"166 110 LINE",
"192 64 LINE",
"892 1200 LINE",
"867 1100 LINE",
"867 1318 LINE",
"918 1264 LINE",
"103 1264 LINE",
"103 1154 LINE",
"788 1154 LINE",
"762 1200 LINE",
"62 64 LINE",
"87 164 LINE",
"87 -54 LINE",
"36 0 LINE"
);
}
);
};
layerId = "9B818BB3-396C-48F9-9346-EEB20EE8D8F5";
name = "Bold Aug 9 16, 21:54";
paths = (
{
closed = 1;
nodes = (
"919 0 LINE",
"949 212 LINE",
"236 212 LINE",
"262 64 LINE",
"1012 1200 LINE",
"915 937 LINE",
"915 1318 LINE",
"1038 1264 LINE",
"71 1264 LINE",
"71 1054 LINE",
"748 1054 LINE",
"720 1200 LINE",
"-30 64 LINE",
"50 285 LINE",
"50 -54 LINE",
"-56 0 LINE"
);
}
);
width = 999;
}
);
leftKerningGroup = Z;
unicode = 005A;
},
{
glyphname = J.alt;
lastChange = "2016-08-17 21:16:28 +0000";
layers = (
{
background = {
paths = (
{
closed = 1;
nodes = (
"-40 72 LINE",
"75 -18 OFFCURVE",
"224 -33 OFFCURVE",
"345 -33 CURVE SMOOTH",
"700 -33 OFFCURVE",
"771 122 OFFCURVE",
"771 268 CURVE SMOOTH",
"771 1277 LINE",
"506 1277 LINE",
"506 402 LINE SMOOTH",
"506 262 OFFCURVE",
"488 189 OFFCURVE",
"339 189 CURVE SMOOTH",
"225 189 OFFCURVE",
"117 224 OFFCURVE",
"50 265 CURVE",
"137 245 LINE",
"56 245 LINE",
"75 261 LINE",
"-1 -25 LINE"
);
},
{
closed = 1;
nodes = (
"689 1062 LINE",
"721 1277 LINE",
"84 1277 LINE",
"84 1062 LINE"
);
},
{
closed = 1;
nodes = (
"231 28 LINE",
"295 -3 OFFCURVE",
"362 -24 OFFCURVE",
"437 -24 CURVE SMOOTH",
"629 -24 OFFCURVE",
"700 103 OFFCURVE",
"700 232 CURVE SMOOTH",
"700 1264 LINE",
"577 1264 LINE",
"577 257 LINE SMOOTH",
"577 161 OFFCURVE",
"544 80 OFFCURVE",
"435 80 CURVE SMOOTH",
"354 80 OFFCURVE",
"298 116 OFFCURVE",
"241 144 CURVE",
"333 124 LINE",
"252 124 LINE",
"271 140 LINE",
"271 -53 LINE"
);
}
);
};
layerId = "785B6CE2-304A-4677-8076-DAC1C502AB09";
paths = (
{
closed = 1;
nodes = (
"619 -24 OFFCURVE",
"700 103 OFFCURVE",
"700 232 CURVE SMOOTH",
"700 1264 LINE",
"577 1264 LINE",
"577 257 LINE SMOOTH",
"577 161 OFFCURVE",
"534 80 OFFCURVE",
"350 80 CURVE SMOOTH",
"159 80 OFFCURVE",
"103 146 OFFCURVE",
"46 174 CURVE",
"138 154 LINE",
"57 154 LINE",
"76 170 LINE",
"27 15 LINE",
"4 71 LINE",
"95 25 OFFCURVE",
"167 -24 OFFCURVE",
"352 -24 CURVE SMOOTH"
);
},
{
closed = 1;
nodes = (
"689 1154 LINE",
"700 1264 LINE",
"84 1264 LINE",
"84 1154 LINE"
);
}
);
width = 911;
},
{
background = {
paths = (
{
closed = 1;
nodes = (
"-40 72 LINE",
"75 -18 OFFCURVE",
"224 -33 OFFCURVE",
"345 -33 CURVE SMOOTH",
"700 -33 OFFCURVE",
"771 122 OFFCURVE",
"771 268 CURVE SMOOTH",
"771 1277 LINE",
"506 1277 LINE",
"506 402 LINE SMOOTH",
"506 262 OFFCURVE",
"488 189 OFFCURVE",
"339 189 CURVE SMOOTH",
"225 189 OFFCURVE",
"117 224 OFFCURVE",
"50 265 CURVE",
"137 245 LINE",
"56 245 LINE",
"75 261 LINE",
"-1 -25 LINE"
);
},
{
closed = 1;
nodes = (
"689 1062 LINE",
"721 1277 LINE",
"84 1277 LINE",
"84 1062 LINE"
);
}
);
};
layerId = "9D994BBA-EAF3-4FD1-99F5-B9EE3FFE0BB8";
paths = (
{
closed = 1;
nodes = (
"700 -33 OFFCURVE",
"771 122 OFFCURVE",
"771 268 CURVE SMOOTH",
"771 1277 LINE",
"506 1277 LINE",
"506 402 LINE SMOOTH",
"506 262 OFFCURVE",
"488 189 OFFCURVE",
"339 189 CURVE SMOOTH",
"225 189 OFFCURVE",
"117 224 OFFCURVE",
"50 265 CURVE",
"137 245 LINE",
"56 245 LINE",
"75 261 LINE",
"-1 -25 LINE",
"-40 72 LINE",
"75 -18 OFFCURVE",
"224 -33 OFFCURVE",
"345 -33 CURVE SMOOTH"
);
},
{
closed = 1;
nodes = (
"689 1062 LINE",
"721 1277 LINE",
"84 1277 LINE",
"84 1062 LINE"
);
}
);
width = 911;
}
);
},
